{"glyphs":{"0":{"ha":689,"x_min":0,"x_max":0,"o":"m 371 878 b 689 297 547 878 689 618 b 371 -283 689 -24 547 -283 b 53 297 196 -283 53 -24 b 371 878 53 618 196 878 m 372 -271 b 563 297 478 -271 563 -17 b 372 865 563 611 478 865 b 181 297 267 865 181 611 b 372 -271 181 -17 267 -271 "},"1":{"ha":299,"x_min":0,"x_max":0,"o":"m 240 -206 b 257 -247 240 -222 246 -237 b 299 -264 268 -258 282 -264 l 299 -278 l 56 -278 l 56 -264 b 114 -206 88 -264 114 -239 l 114 786 l 53 786 l 53 799 b 226 874 129 799 226 874 l 240 874 "},"2":{"ha":706,"x_min":0,"x_max":0,"o":"m 499 210 b 110 -151 147 46 110 -151 l 556 -151 b 667 -61 610 -151 656 -114 l 679 -64 l 661 -151 l 635 -278 l 61 -278 l 61 -276 b 339 156 61 -253 68 -33 b 567 515 558 310 567 481 l 567 521 b 365 865 567 725 471 865 b 197 708 289 865 236 832 b 186 631 192 692 186 663 b 263 472 186 575 201 510 b 413 308 382 397 413 347 b 392 247 413 285 401 265 l 379 254 b 397 308 392 276 397 293 b 375 360 397 325 390 340 b 301 407 357 382 331 396 b 74 614 225 436 83 469 l 74 621 b 140 786 74 676 106 744 b 365 879 199 854 278 879 b 706 525 542 879 706 740 b 499 210 706 394 619 265 "},"3":{"ha":681,"x_min":0,"x_max":0,"o":"m 422 476 b 681 100 569 442 681 286 b 347 -283 681 -112 525 -283 b 122 -190 260 -283 181 -258 b 57 -28 88 -150 57 -83 l 57 -18 b 283 189 65 126 207 160 b 357 236 313 200 338 217 b 397 319 383 263 397 290 b 383 369 397 336 393 353 l 394 376 b 410 319 406 356 410 336 b 390 257 410 296 401 275 b 244 124 368 215 332 185 b 169 -39 185 81 169 15 b 179 -112 169 -69 174 -96 b 349 -269 218 -236 272 -269 b 550 101 453 -269 550 -104 b 360 471 550 306 464 471 b 169 289 268 471 201 406 l 108 358 l 578 747 l 211 747 b 100 657 158 747 111 710 l 88 660 l 106 747 l 132 874 l 626 874 l 604 753 l 254 463 b 297 476 268 468 283 474 b 363 483 317 482 339 483 b 422 476 382 483 403 482 "},"4":{"ha":721,"x_min":0,"x_max":0,"o":"m 663 18 l 721 18 l 721 6 l 663 6 l 663 -206 b 679 -247 663 -222 669 -237 b 721 -264 690 -258 706 -264 l 721 -278 l 478 -278 l 478 -264 b 536 -206 510 -264 536 -239 l 536 6 l 53 6 b 64 18 53 6 57 10 b 279 874 108 74 276 319 l 414 874 b 79 18 414 874 414 435 l 536 18 l 536 610 l 663 610 "},"5":{"ha":681,"x_min":0,"x_max":0,"o":"m 421 476 b 681 100 568 442 681 286 b 347 -283 681 -112 524 -283 b 122 -190 260 -283 181 -258 b 56 -25 86 -149 56 -81 l 56 -18 b 282 189 65 126 207 160 b 357 236 311 200 336 217 b 396 319 383 263 396 290 b 383 369 396 336 392 353 l 394 376 b 408 321 404 356 408 338 b 389 257 408 296 400 275 b 244 124 367 215 331 185 b 168 -39 183 81 168 14 b 178 -112 168 -69 172 -96 b 347 -269 218 -236 271 -269 b 549 101 453 -269 549 -104 b 358 471 549 306 464 471 b 165 275 264 471 196 400 l 104 299 l 128 874 l 585 874 l 611 747 l 629 660 l 617 657 b 506 747 606 710 560 747 l 136 747 l 122 358 b 297 476 167 418 228 461 b 361 483 317 482 339 483 b 421 476 382 483 401 482 "},"6":{"ha":693,"x_min":0,"x_max":0,"o":"m 558 413 b 683 193 619 360 665 282 b 693 100 690 163 693 132 b 379 -283 693 -110 553 -279 l 354 -283 b 53 249 186 -272 53 -69 b 399 878 53 569 160 878 b 561 728 526 878 561 768 b 381 571 561 607 432 578 b 299 544 351 567 324 558 b 235 472 271 529 243 506 b 222 397 225 440 222 414 b 224 378 222 389 222 382 b 367 483 275 467 343 482 b 383 485 372 483 379 485 b 435 476 404 485 419 481 b 558 413 481 467 522 444 m 393 -268 b 563 101 488 -247 563 -90 b 558 175 563 126 561 151 b 372 471 540 344 464 471 l 367 471 b 219 340 311 468 254 418 b 214 360 219 340 217 347 b 210 401 213 369 210 383 b 222 476 210 422 213 449 b 315 565 238 522 279 550 b 369 583 333 574 351 579 l 372 583 b 479 724 457 607 479 690 l 479 740 b 401 865 479 769 474 858 l 393 865 b 182 296 282 865 182 692 l 182 264 l 186 139 l 186 126 b 347 -267 196 -60 261 -244 b 372 -269 356 -268 364 -269 b 392 -268 379 -269 385 -269 "},"7":{"ha":667,"x_min":0,"x_max":0,"o":"m 358 -218 b 406 -264 358 -243 381 -264 l 406 -278 l 163 -278 l 163 -264 b 224 -208 194 -264 221 -240 b 576 747 235 -62 294 303 l 176 747 b 65 657 124 747 76 710 l 53 660 l 71 747 l 97 874 l 667 874 b 358 -215 667 874 375 447 "},"8":{"ha":693,"x_min":0,"x_max":0,"o":"m 435 476 b 693 100 582 442 693 286 b 372 -283 693 -112 550 -283 b 53 100 196 -283 53 -112 b 311 476 53 286 164 442 b 99 676 189 497 99 579 b 372 882 99 789 221 882 b 646 676 524 882 646 789 b 435 476 646 579 556 497 m 228 675 b 371 483 228 571 292 485 l 375 483 b 517 675 453 486 517 571 b 372 867 517 781 451 867 b 228 675 292 867 228 781 m 372 -269 b 563 101 478 -269 563 -104 b 372 471 563 306 478 471 b 182 101 267 471 182 306 b 372 -269 182 -104 267 -269 "},"9":{"ha":693,"x_min":0,"x_max":0,"o":"m 390 878 b 693 346 560 867 693 664 b 346 -283 693 25 586 -283 b 183 -133 219 -283 183 -174 b 365 24 183 -12 314 17 b 447 50 394 28 422 36 b 511 122 475 65 503 89 b 524 197 521 154 524 181 b 522 217 524 206 524 213 b 379 111 471 128 403 113 b 363 110 374 111 367 110 b 311 118 342 110 326 114 b 186 182 265 128 224 150 b 61 401 125 235 81 313 b 53 494 56 432 53 463 b 367 878 53 704 192 874 m 353 -271 b 564 300 463 -271 564 -97 l 564 331 l 560 456 l 560 465 b 558 468 560 467 558 467 b 399 861 550 654 485 839 l 397 861 b 374 864 390 863 382 864 b 354 863 367 864 360 864 l 353 863 b 183 493 258 842 183 685 b 188 419 183 468 185 443 b 374 124 206 250 282 124 l 378 124 b 526 254 435 126 492 176 b 532 235 526 254 529 247 b 536 193 533 225 536 211 b 524 118 536 172 533 146 b 429 29 508 72 465 44 b 376 11 413 21 394 15 l 374 11 b 267 -129 289 -12 267 -96 l 267 -146 b 344 -271 267 -175 272 -264 "}," ":{"ha":354,"x_min":0,"x_max":0,"o":""},"!":{"ha":179,"x_min":0,"x_max":0,"o":"m 115 -82 l 53 874 l 179 874 m 115 -151 b 179 -215 150 -151 179 -179 b 115 -278 179 -250 150 -278 b 53 -215 81 -278 53 -250 b 115 -151 53 -179 81 -151 "},"\"":{"ha":326,"x_min":0,"x_max":0,"o":"m 321 807 b 231 676 321 792 317 717 b 257 747 231 676 254 708 b 194 810 222 747 194 775 b 258 874 194 846 224 874 b 321 810 293 874 321 846 m 179 807 b 89 676 179 792 175 717 b 115 747 89 676 113 708 b 53 810 81 747 53 775 b 115 874 53 846 81 874 b 179 810 150 874 179 846 "},"#":{"ha":1456,"x_min":0,"x_max":0,"o":"m 1068 504 l 910 92 l 1292 92 l 1286 78 l 904 79 l 768 -278 l 754 -278 l 892 79 l 449 79 l 311 -278 l 299 -278 l 435 79 l 53 79 l 58 92 l 440 92 l 599 504 l 217 504 l 222 518 l 604 517 l 740 874 l 754 874 l 617 517 l 1060 517 l 1196 874 l 1210 874 l 1074 517 l 1456 517 l 1450 504 m 1054 504 l 613 504 l 454 92 l 896 92 "},"$":{"ha":901,"x_min":0,"x_max":0,"o":"m 740 299 b 881 56 843 221 881 138 b 850 -82 881 8 868 -37 b 535 -282 808 -181 686 -271 l 535 -437 l 522 -437 l 522 -283 l 500 -283 b 176 -21 260 -283 176 -135 b 182 26 176 -4 179 11 b 361 182 210 143 315 165 b 396 215 388 192 396 203 b 356 268 396 242 356 268 l 371 283 b 426 199 393 268 426 240 b 424 178 426 192 425 185 b 294 -6 408 118 319 103 b 289 -53 292 -21 289 -36 b 514 -271 289 -160 367 -271 l 522 -271 l 522 286 l 322 439 b 182 660 224 514 182 592 b 472 881 182 779 304 872 l 522 881 l 522 1031 l 535 1031 l 535 881 l 767 881 l 792 660 l 776 658 b 535 867 765 769 658 856 l 535 451 b 740 299 633 378 740 299 m 367 576 b 522 461 369 574 442 521 l 522 868 l 490 868 b 299 714 369 867 299 796 b 367 576 299 668 321 619 m 535 -269 b 772 -10 681 -258 772 -131 b 692 157 772 54 747 115 b 653 186 679 167 667 178 l 535 276 "},"%":{"ha":711,"x_min":0,"x_max":0,"o":"m 611 874 l 168 -278 l 154 -278 l 597 874 m 351 606 b 203 333 351 456 285 333 b 53 606 121 333 53 456 b 203 878 53 756 121 878 b 351 606 285 878 351 756 m 113 606 b 203 339 113 458 153 339 b 293 606 253 339 293 458 b 203 872 293 753 253 872 b 113 606 153 872 113 753 m 563 263 b 711 -10 644 263 711 140 b 563 -282 711 -160 644 -282 b 413 -10 479 -282 413 -160 b 563 263 413 140 479 263 m 563 -276 b 651 -10 611 -276 651 -157 b 563 257 651 138 611 257 b 472 -10 513 257 472 138 b 563 -276 472 -157 513 -276 "},"&":{"ha":897,"x_min":0,"x_max":0,"o":"m 817 533 b 890 444 869 522 890 485 b 889 424 890 438 890 431 b 793 304 878 360 839 326 b 496 263 714 267 561 263 l 465 263 b 336 242 408 258 360 254 b 299 182 310 231 299 206 b 306 151 299 172 301 161 b 369 113 319 122 343 113 b 421 122 386 113 404 117 l 422 122 b 561 157 431 126 503 156 b 604 150 576 157 592 156 b 686 32 656 129 686 81 l 686 25 b 374 -285 682 -56 633 -285 b 53 99 197 -285 53 -112 b 311 476 53 286 164 442 b 100 675 190 497 100 578 b 374 881 100 789 222 881 b 547 833 439 881 500 863 b 622 699 599 801 622 750 b 510 550 622 633 583 568 b 497 549 506 550 501 549 b 463 546 485 546 474 546 b 332 610 394 546 353 586 l 332 611 b 324 622 329 615 326 618 b 322 625 322 624 322 625 b 318 632 319 629 318 632 b 306 669 308 651 306 668 l 318 671 b 331 635 318 671 321 653 b 357 606 338 624 344 614 b 406 590 371 597 388 590 b 439 597 417 590 428 593 b 511 701 497 618 511 663 b 499 768 511 738 499 768 b 372 865 474 826 426 865 b 228 675 293 865 228 781 b 371 483 228 569 292 485 l 372 483 l 372 471 b 183 100 268 471 183 304 b 374 -271 183 -104 268 -271 b 563 17 464 -271 563 -157 b 561 54 563 29 563 42 b 528 117 561 81 553 101 b 490 126 518 124 506 126 b 438 115 475 126 457 124 l 438 114 b 410 106 428 111 418 108 b 356 99 410 106 385 99 b 268 138 325 99 289 106 b 254 179 258 151 254 165 b 368 264 254 222 303 257 b 469 275 394 269 431 272 b 761 371 581 283 719 294 b 778 426 774 393 778 411 b 744 482 778 458 757 475 b 703 494 732 490 717 494 b 667 479 688 494 674 489 l 656 486 b 767 539 656 486 683 539 b 817 533 782 539 799 538 "},"'":{"ha":185,"x_min":0,"x_max":0,"o":"m 179 807 b 89 676 179 792 175 717 b 115 747 89 676 113 708 b 53 810 81 747 53 775 b 115 874 53 846 81 874 b 179 810 150 874 179 846 "},"(":{"ha":560,"x_min":0,"x_max":0,"o":"m 179 299 b 560 -410 179 -93 350 -410 l 560 -422 b 53 297 281 -422 53 -100 b 560 1018 53 696 281 1018 l 560 1006 b 179 299 350 1006 179 689 "},")":{"ha":560,"x_min":0,"x_max":0,"o":"m 433 299 b 53 1006 433 689 264 1006 l 53 1018 b 560 297 333 1018 560 696 b 53 -422 560 -100 333 -422 l 53 -410 b 433 299 264 -410 433 -93 "},"*":{"ha":615,"x_min":0,"x_max":0,"o":"m 332 876 b 324 906 331 881 328 890 b 301 982 317 926 310 953 b 278 1065 292 1011 285 1039 b 268 1118 271 1092 268 1108 b 288 1164 268 1136 275 1151 b 333 1183 300 1176 315 1183 b 381 1164 351 1183 368 1176 b 399 1118 393 1151 399 1136 b 389 1065 399 1108 396 1092 b 367 982 382 1039 375 1011 b 343 906 357 953 350 926 l 343 904 b 335 876 339 890 335 881 b 333 874 333 875 333 875 l 333 875 m 331 874 b 301 882 326 875 317 878 b 224 900 279 886 253 893 b 142 921 194 907 167 914 b 89 939 115 928 99 935 b 60 979 74 949 64 961 b 57 997 58 985 57 992 b 65 1028 57 1007 60 1018 b 106 1058 75 1043 89 1054 b 122 1061 111 1060 117 1061 b 154 1051 133 1061 143 1057 b 196 1017 163 1047 176 1035 b 256 956 214 999 235 978 b 311 899 276 933 296 914 l 311 897 b 332 875 321 886 328 879 l 331 874 m 332 872 l 332 871 b 311 849 328 868 321 861 b 256 790 296 832 276 813 b 196 731 235 768 214 749 b 154 694 176 713 163 700 b 122 685 143 689 133 685 b 97 690 117 685 108 686 b 65 718 86 693 75 703 b 57 750 60 729 57 739 b 61 776 57 756 58 765 b 89 807 64 788 74 797 b 142 826 99 813 115 819 b 224 847 167 833 194 840 b 301 867 253 854 279 861 b 331 874 317 869 326 872 l 333 874 m 335 871 b 343 842 336 867 339 857 b 367 765 350 819 357 794 b 389 682 375 736 382 708 b 399 629 396 656 399 639 b 381 583 399 611 393 596 b 333 564 368 571 351 564 b 288 583 315 564 300 571 b 268 629 275 596 268 611 b 278 682 268 639 271 656 b 301 765 285 708 292 736 b 324 842 310 794 317 819 b 332 871 328 857 332 867 b 333 874 333 872 333 872 l 333 872 m 336 874 b 367 867 340 872 351 869 b 444 847 389 861 415 854 b 526 826 474 840 501 833 b 578 807 551 819 568 813 b 608 768 593 797 604 785 b 611 751 610 763 611 757 b 601 718 611 740 607 729 b 563 688 592 703 579 692 b 546 685 557 686 551 685 b 513 694 533 685 524 689 b 472 731 504 700 490 713 b 411 790 453 749 432 768 b 357 849 390 813 372 832 l 356 849 b 335 872 346 861 339 868 l 336 874 m 357 899 b 411 956 372 914 390 933 b 472 1017 432 978 453 999 b 513 1051 490 1035 504 1047 b 546 1061 524 1057 533 1061 b 571 1056 551 1061 560 1060 b 601 1028 582 1053 592 1043 b 611 996 607 1017 611 1007 b 606 971 611 990 610 982 b 578 939 603 958 593 949 b 526 921 568 935 551 928 b 444 900 501 914 474 907 b 367 882 415 893 389 886 l 367 881 b 336 874 351 878 340 875 l 333 874 "},"+":{"ha":443,"x_min":0,"x_max":0,"o":"m 254 290 l 254 101 l 242 101 l 242 290 l 53 290 l 53 303 l 242 303 l 242 492 l 254 492 l 254 303 l 443 303 l 443 290 "},",":{"ha":185,"x_min":0,"x_max":0,"o":"m 179 -218 b 89 -349 179 -233 175 -308 b 115 -278 89 -349 113 -317 b 53 -215 81 -278 53 -250 b 117 -151 53 -179 82 -151 b 179 -215 151 -151 179 -179 "},"-":{"ha":443,"x_min":0,"x_max":0,"o":"m 53 303 l 443 303 l 443 290 l 53 290 "},".":{"ha":178,"x_min":0,"x_max":0,"o":"m 115 -151 b 178 -215 150 -151 178 -179 b 115 -278 178 -250 150 -278 b 53 -215 81 -278 53 -250 b 115 -151 53 -179 81 -151 "},"/":{"ha":508,"x_min":0,"x_max":0,"o":"m 67 -278 l 53 -278 l 496 874 l 508 874 "},":":{"ha":178,"x_min":0,"x_max":0,"o":"m 115 -151 b 178 -215 150 -151 178 -179 b 115 -278 178 -250 150 -278 b 53 -215 81 -278 53 -250 b 115 -151 53 -179 81 -151 m 115 235 b 53 297 81 235 53 263 b 115 361 53 333 81 361 b 178 297 150 361 178 333 b 115 235 178 263 150 235 "},";":{"ha":185,"x_min":0,"x_max":0,"o":"m 115 235 b 53 297 81 235 53 263 b 115 361 53 333 81 361 b 179 297 150 361 179 333 b 115 235 179 263 150 235 m 179 -218 b 89 -349 179 -233 175 -308 b 115 -278 89 -349 113 -317 b 53 -215 81 -278 53 -250 b 115 -151 53 -179 81 -151 b 179 -215 150 -151 179 -179 "},"<":{"ha":206,"x_min":0,"x_max":0,"o":"m 53 297 l 196 439 l 206 431 l 72 297 l 206 164 l 196 154 "},"=":{"ha":443,"x_min":0,"x_max":0,"o":"m 53 258 l 443 258 l 443 244 l 53 244 m 443 351 l 443 339 l 53 339 l 53 351 "},">":{"ha":206,"x_min":0,"x_max":0,"o":"m 63 154 l 53 164 l 186 297 l 53 431 l 63 439 l 206 297 "},"?":{"ha":688,"x_min":0,"x_max":0,"o":"m 347 879 b 688 525 524 879 688 740 b 481 210 688 394 596 276 b 326 -11 363 142 326 56 b 353 -100 326 -50 338 -82 l 343 -111 b 297 10 317 -90 297 -46 b 393 213 297 72 322 147 b 549 521 529 340 546 475 b 550 556 550 533 550 544 b 347 865 550 740 447 865 b 179 708 271 865 218 832 b 168 629 174 692 168 663 b 244 472 168 575 183 510 b 394 308 364 397 394 347 b 374 247 394 285 383 265 l 361 254 b 379 308 374 276 379 293 b 357 360 379 325 372 340 b 283 407 339 382 313 396 b 56 614 207 436 65 469 l 56 621 b 122 786 56 676 88 744 b 347 879 181 854 260 879 m 353 -151 b 415 -215 388 -151 415 -181 b 353 -278 415 -250 388 -278 b 289 -215 318 -278 289 -250 b 353 -151 289 -181 318 -151 "},"@":{"ha":1176,"x_min":0,"x_max":0,"o":"m 622 857 b 1176 303 928 857 1176 608 b 1117 53 1176 200 1149 115 b 919 -68 1079 -21 1003 -68 l 781 -68 b 719 26 725 -68 719 -4 l 719 42 b 542 -68 719 42 693 -68 b 364 117 390 -68 364 47 b 499 328 364 188 399 279 b 589 372 529 342 560 357 b 613 410 606 381 613 396 b 575 453 613 431 599 450 b 544 457 565 454 556 456 b 433 501 489 463 451 478 b 425 515 429 506 426 511 b 421 538 422 522 421 531 l 421 543 b 439 597 422 554 425 575 b 443 603 440 599 442 600 b 608 668 471 638 522 664 l 631 668 b 813 533 803 668 813 558 l 813 11 b 882 -56 814 -26 844 -56 l 925 -56 b 1101 51 1000 -56 1067 -14 b 1164 300 1140 126 1164 210 b 1161 347 1164 315 1163 331 b 671 842 1140 607 932 819 b 621 844 654 843 638 844 b 79 301 322 844 79 600 b 82 253 79 285 81 269 b 583 -237 106 -10 319 -219 b 621 -239 596 -239 608 -239 b 965 -115 751 -239 871 -193 l 974 -125 b 625 -251 878 -204 757 -251 b 588 -250 613 -251 600 -251 b 68 281 306 -233 79 -3 l 68 303 b 622 857 68 608 315 857 m 721 517 b 707 576 721 528 719 553 b 700 588 704 581 703 585 b 678 611 694 597 686 606 b 676 613 676 611 676 611 b 590 633 656 626 628 633 l 574 633 b 431 532 501 629 433 594 b 433 519 431 528 432 524 b 546 465 444 492 482 472 b 640 449 590 461 621 457 l 642 449 b 660 422 654 444 660 433 b 647 397 660 413 656 404 b 588 360 629 385 607 369 b 461 181 496 314 461 249 b 482 86 461 149 468 117 b 614 -8 508 25 563 -8 b 721 71 658 -8 700 17 "},"A":{"ha":772,"x_min":0,"x_max":0,"o":"m 772 -278 l 528 -278 l 528 -265 b 572 -222 553 -265 572 -244 b 571 -210 572 -218 572 -214 l 531 -56 b 289 -281 494 -162 425 -281 b 100 -135 193 -281 114 -215 b 96 -71 97 -115 96 -94 l 96 -54 b 121 96 99 -12 106 38 l 121 97 l 282 700 b 293 786 289 728 293 757 b 282 874 293 815 289 844 l 413 874 l 703 -212 b 772 -265 711 -243 739 -265 m 472 -126 b 515 -21 501 -96 515 -58 b 511 17 515 -8 514 4 l 438 293 l 311 763 l 142 125 b 133 40 142 125 133 89 b 308 -190 133 -46 160 -171 b 332 -192 317 -192 325 -192 b 472 -126 394 -192 442 -158 "},"B":{"ha":732,"x_min":0,"x_max":0,"o":"m 393 281 b 732 22 454 281 732 271 b 329 -278 732 -247 443 -278 l 53 -278 l 53 -265 b 111 -207 85 -265 111 -239 l 111 803 b 53 861 111 835 85 861 l 53 874 l 238 874 l 238 603 b 483 874 263 711 328 874 b 722 614 715 874 722 660 b 383 356 722 560 699 356 l 382 356 b 332 324 376 356 336 354 l 332 319 b 382 281 332 293 358 281 m 492 -196 b 603 19 546 -153 603 -85 b 394 269 603 253 394 269 l 393 269 b 279 321 383 269 279 271 b 381 369 279 363 344 368 b 500 403 422 369 465 381 b 622 631 546 435 622 522 l 622 636 b 483 861 618 826 550 861 b 319 760 415 861 353 817 b 267 649 301 731 283 697 b 238 461 247 589 238 525 l 238 -265 l 283 -265 b 492 -196 358 -265 432 -242 "},"C":{"ha":926,"x_min":0,"x_max":0,"o":"m 668 371 b 661 329 663 356 661 342 b 717 219 661 263 717 219 l 707 207 b 635 344 674 229 635 276 b 753 560 635 403 664 475 b 838 713 815 618 838 669 b 818 781 838 739 829 761 b 688 865 792 829 742 858 b 642 868 672 867 657 868 b 178 297 386 868 178 613 b 640 -268 178 -17 385 -260 l 649 -268 b 885 -181 733 -268 821 -226 l 892 -192 b 642 -285 824 -243 731 -285 b 53 297 317 -285 53 -24 b 642 881 53 619 317 881 b 722 875 669 881 696 878 b 826 840 758 869 794 858 b 896 775 851 825 878 804 b 922 676 913 747 922 714 b 919 644 922 667 921 656 b 668 371 901 529 700 463 "},"D":{"ha":807,"x_min":0,"x_max":0,"o":"m 479 882 b 807 317 679 882 807 686 b 347 -278 807 186 765 -278 l 54 -278 l 54 -265 b 113 -207 86 -265 113 -239 l 113 803 b 53 861 113 835 86 861 l 53 874 l 239 874 l 239 603 b 479 882 264 711 339 882 m 321 -265 b 672 372 443 -265 672 -221 b 479 865 672 499 649 865 b 319 760 413 865 353 817 b 268 649 301 731 283 697 b 239 461 247 589 239 525 l 239 -265 "},"E":{"ha":683,"x_min":0,"x_max":0,"o":"m 661 -278 l 397 -278 b 111 8 239 -278 111 -150 l 111 803 b 94 843 111 818 104 833 b 53 861 83 854 68 861 l 53 874 l 657 874 l 679 651 l 667 650 b 435 861 656 769 554 861 l 238 861 l 238 350 b 338 415 239 351 269 415 b 436 378 365 415 397 406 b 526 343 472 353 503 343 b 606 383 579 343 606 383 l 615 376 b 485 300 615 376 568 300 b 394 328 458 300 428 307 b 292 374 394 328 326 374 b 240 326 264 374 247 351 b 238 313 239 322 238 318 l 238 -68 b 435 -265 238 -176 326 -265 l 438 -265 b 671 -54 558 -265 658 -174 l 683 -56 "},"F":{"ha":679,"x_min":0,"x_max":0,"o":"m 238 861 l 238 350 b 338 415 239 351 269 415 b 436 378 365 415 397 406 b 528 343 472 353 503 343 b 607 383 581 343 607 383 l 615 376 b 485 300 615 376 569 300 b 394 328 458 300 428 307 b 293 374 394 328 326 374 b 240 326 264 374 247 351 b 238 313 239 322 239 318 l 238 -208 b 254 -249 238 -224 244 -237 b 296 -265 265 -258 281 -265 l 296 -278 l 53 -278 l 53 -265 b 111 -207 85 -265 111 -239 l 111 803 b 94 843 111 818 106 833 b 53 861 83 854 69 861 l 53 874 l 658 874 l 679 651 l 667 650 b 435 861 656 769 554 861 "},"G":{"ha":1040,"x_min":0,"x_max":0,"o":"m 1040 354 l 1040 342 b 986 288 1010 342 986 317 l 986 -275 l 975 -279 b 858 -244 974 -279 924 -244 b 792 -257 838 -244 814 -247 b 643 -286 747 -276 699 -286 b 53 296 317 -286 53 -25 b 643 881 53 618 317 881 l 658 881 b 960 739 725 881 929 875 b 963 717 961 732 963 724 b 478 407 963 600 744 511 b 369 324 446 394 396 369 b 349 249 356 301 349 276 b 358 188 349 229 351 208 b 521 56 388 90 460 56 l 532 56 b 653 149 596 60 644 99 l 653 151 b 822 354 672 269 686 354 m 860 300 b 825 342 860 340 825 342 l 822 342 b 722 313 775 342 744 332 l 722 311 b 665 149 686 279 678 224 l 665 146 b 533 43 657 90 603 49 l 521 43 b 346 185 454 43 376 81 b 336 249 339 207 336 228 b 358 331 336 279 343 307 b 374 353 363 339 368 346 b 468 417 403 386 440 406 b 831 658 468 417 782 531 b 839 708 836 672 839 690 b 819 781 839 733 833 760 b 689 864 789 826 743 857 b 643 867 674 865 658 867 b 179 296 388 867 179 611 b 643 -274 179 -18 388 -265 l 651 -274 b 793 -242 704 -274 750 -260 b 860 -153 831 -226 860 -193 "},"H":{"ha":781,"x_min":0,"x_max":0,"o":"m 781 861 b 722 803 749 861 722 835 l 722 -207 b 781 -265 722 -239 749 -265 l 781 -278 l 538 -278 l 538 -265 b 596 -207 569 -265 596 -239 l 596 349 b 482 300 588 338 542 300 b 394 328 454 300 425 308 b 300 374 394 328 339 374 l 293 374 b 238 313 260 367 240 344 l 238 -207 b 254 -249 238 -222 244 -237 b 296 -265 265 -258 281 -265 l 296 -278 l 53 -278 l 53 -265 b 111 -207 85 -265 111 -239 l 111 803 b 53 861 111 835 85 861 l 53 874 l 296 874 l 296 861 b 238 803 264 861 238 835 l 238 349 b 338 414 239 350 269 414 b 436 378 365 414 397 404 b 538 335 481 346 514 335 b 596 376 572 335 589 357 l 596 803 b 538 861 596 835 569 861 l 538 874 l 781 874 "},"I":{"ha":296,"x_min":0,"x_max":0,"o":"m 296 861 b 238 803 264 861 238 835 l 238 -207 b 296 -265 238 -239 264 -265 l 296 -278 l 53 -278 l 53 -265 b 111 -207 85 -265 111 -239 l 111 803 b 53 861 111 835 85 861 l 53 874 l 296 874 "},"J":{"ha":297,"x_min":0,"x_max":0,"o":"m 297 874 l 297 861 b 238 803 264 861 238 835 l 238 -236 b 29 -446 238 -351 144 -446 l -36 -446 l -36 -432 l 14 -432 b 113 -335 68 -432 113 -389 l 113 803 b 94 843 113 818 106 833 b 53 861 83 854 69 861 l 53 874 "},"K":{"ha":771,"x_min":0,"x_max":0,"o":"m 771 -179 b 643 -281 744 -246 701 -281 b 551 -237 596 -281 561 -258 b 543 -196 544 -224 543 -210 b 563 -114 543 -162 554 -131 l 564 -114 b 596 19 578 -82 596 -28 b 396 268 596 268 396 268 b 318 281 396 268 351 269 b 317 282 317 281 317 281 b 239 389 283 293 242 322 l 239 -207 b 256 -249 239 -222 244 -237 b 297 -265 267 -258 281 -265 l 297 -278 l 53 -278 l 53 -265 b 113 -207 86 -265 113 -239 l 113 803 b 53 861 113 835 86 861 l 53 874 l 239 874 l 239 410 b 696 874 239 614 440 847 l 696 760 b 263 415 642 754 301 715 l 263 406 b 288 324 263 388 265 353 b 363 283 301 307 325 292 b 394 281 374 282 383 281 b 722 22 460 281 722 269 b 664 -157 722 -71 664 -156 b 643 -219 651 -175 643 -200 b 663 -257 643 -237 649 -251 b 676 -260 667 -258 672 -260 b 761 -175 722 -260 761 -175 l 771 -179 "},"L":{"ha":593,"x_min":0,"x_max":0,"o":"m 593 -56 l 571 -278 l 53 -278 l 53 -265 b 94 -249 68 -265 83 -258 b 111 -207 104 -237 111 -222 l 111 803 b 53 861 111 835 85 861 l 53 874 l 296 874 l 296 861 b 254 843 279 861 265 854 b 238 804 244 833 238 819 l 238 -265 l 347 -265 b 581 -54 468 -265 568 -174 "},"M":{"ha":1139,"x_min":0,"x_max":0,"o":"m 1139 -181 b 989 -278 1139 -181 1117 -278 b 879 -124 911 -278 879 -221 b 939 190 879 -44 901 64 b 988 526 969 296 988 415 b 828 864 988 710 939 864 b 658 775 765 864 701 836 b 581 590 618 718 596 667 b 568 442 574 551 568 501 b 585 240 568 385 574 317 b 638 82 593 185 611 131 l 639 79 l 558 -40 l 124 793 l 124 346 b 283 -265 124 -107 189 -247 l 283 -278 l 53 -278 l 53 -265 b 111 -44 100 -246 111 -92 l 111 803 b 94 844 111 819 104 833 b 53 861 83 854 69 861 l 53 874 l 224 874 l 581 190 b 557 449 568 256 557 353 b 583 658 557 525 564 600 b 825 881 638 818 733 881 b 1099 386 1003 881 1099 642 b 1090 257 1099 343 1096 300 b 1011 -164 1063 33 1011 -94 b 1032 -217 1011 -187 1017 -206 b 1065 -231 1044 -226 1056 -231 b 1128 -176 1104 -231 1128 -176 "},"N":{"ha":854,"x_min":0,"x_max":0,"o":"m 854 -168 b 681 -281 854 -168 788 -281 b 532 -172 621 -281 543 -272 b 531 -144 531 -162 531 -153 b 626 190 531 -53 578 31 b 679 515 663 310 679 421 b 476 864 679 726 599 864 b 311 769 413 864 356 825 b 238 540 260 704 238 622 l 238 -207 b 254 -249 238 -222 244 -237 b 296 -265 265 -258 279 -265 l 296 -278 l 53 -278 l 53 -265 b 111 -207 85 -265 111 -239 l 111 803 b 94 843 111 818 104 833 b 53 861 83 854 68 861 l 53 874 l 238 874 l 238 668 b 474 881 272 756 343 881 b 789 365 660 881 789 663 b 783 257 789 329 788 294 b 668 -147 763 58 668 -58 b 694 -215 668 -172 676 -194 b 739 -236 708 -231 724 -236 b 847 -162 793 -236 847 -162 "},"O":{"ha":1232,"x_min":0,"x_max":0,"o":"m 761 868 b 1232 297 1029 814 1232 579 b 643 -285 1232 -24 968 -285 b 53 297 317 -285 53 -24 b 643 881 53 619 317 881 b 711 876 665 881 689 879 m 635 -272 b 763 -214 635 -272 710 -272 b 817 -129 783 -193 804 -164 b 825 -103 819 -121 822 -112 b 835 -29 832 -76 835 -51 b 507 375 835 140 660 207 b 413 596 433 454 413 532 b 453 742 413 682 453 742 b 514 815 469 771 490 797 b 610 863 546 840 581 854 l 626 867 b 179 297 378 857 179 606 b 635 -272 179 -14 383 -268 m 718 -265 b 1106 297 939 -221 1106 14 b 757 850 1106 564 957 788 b 686 861 735 857 710 861 b 614 850 663 861 638 857 b 517 794 597 846 540 822 b 464 663 475 744 464 699 b 483 581 464 619 479 590 b 519 526 493 561 504 543 b 567 475 533 508 550 492 b 678 376 601 442 639 410 b 788 267 715 343 754 308 b 874 114 821 226 863 167 b 885 17 881 78 885 46 b 774 -225 885 -139 793 -207 b 718 -265 742 -254 725 -261 "},"P":{"ha":733,"x_min":0,"x_max":0,"o":"m 485 874 b 733 614 717 874 733 660 b 400 356 733 560 703 364 l 399 356 b 251 296 385 356 297 353 b 239 256 243 285 239 269 l 239 -207 b 256 -249 239 -222 244 -237 b 297 -265 267 -258 281 -265 l 297 -278 l 53 -278 l 53 -265 b 113 -207 86 -265 113 -239 l 113 803 b 53 861 113 835 86 861 l 53 874 l 239 874 l 239 603 b 485 874 264 711 328 874 m 500 403 b 614 629 550 429 614 518 b 483 861 614 815 551 861 b 319 760 417 861 353 817 b 268 649 301 731 283 697 b 239 461 247 589 239 525 l 239 299 b 383 369 272 353 353 364 b 500 403 419 375 469 388 "},"Q":{"ha":1232,"x_min":0,"x_max":0,"o":"m 919 -350 b 1090 -575 1058 -397 1090 -575 l 1078 -579 b 949 -461 1074 -569 1033 -497 b 861 -443 919 -449 890 -443 b 638 -518 781 -443 704 -485 b 546 -561 606 -536 574 -551 b 507 -567 533 -565 521 -567 b 422 -528 474 -567 439 -554 b 410 -486 414 -514 410 -501 b 415 -457 410 -476 413 -467 b 635 -285 440 -385 560 -319 b 53 297 313 -281 53 -22 b 642 881 53 619 317 881 b 711 876 665 881 689 879 b 760 868 728 874 744 871 b 1232 297 1029 814 1232 579 b 668 -285 1232 -15 982 -271 b 429 -457 601 -312 460 -381 b 424 -483 425 -465 424 -475 b 425 -501 424 -489 424 -496 b 469 -539 432 -531 449 -539 b 519 -526 486 -539 504 -533 b 590 -482 546 -515 569 -500 b 872 -343 638 -442 765 -343 b 919 -350 889 -343 904 -344 m 757 850 b 686 861 735 857 710 861 b 614 850 661 861 638 857 b 517 794 597 846 540 822 b 464 663 475 744 464 699 b 483 581 464 619 479 590 b 518 526 492 561 504 543 b 565 475 532 508 549 492 b 676 376 600 442 639 410 b 788 267 715 343 753 308 b 874 114 819 226 863 167 b 885 17 881 78 885 46 b 774 -225 885 -139 793 -207 b 711 -267 742 -254 717 -264 b 1106 297 936 -228 1106 14 b 757 850 1106 564 957 788 m 179 297 b 635 -272 179 -14 382 -268 b 763 -214 635 -272 708 -272 b 815 -129 783 -193 803 -164 b 825 -103 819 -121 822 -112 b 835 -29 832 -76 835 -51 b 507 375 835 140 660 207 b 413 596 433 454 413 532 b 453 742 413 682 453 742 b 514 815 469 771 490 797 b 610 863 546 840 579 854 l 626 867 b 179 297 378 857 179 606 "},"R":{"ha":772,"x_min":0,"x_max":0,"o":"m 772 -181 b 657 -281 750 -246 708 -278 l 644 -281 b 544 -192 565 -281 544 -236 b 563 -114 544 -158 557 -125 b 596 19 578 -82 596 -28 b 396 268 596 268 396 268 b 279 321 396 268 279 268 b 381 369 279 363 344 368 b 500 403 422 369 464 379 b 614 629 547 435 614 518 b 483 861 614 815 550 861 b 319 760 415 861 353 817 b 267 649 301 731 283 697 b 238 461 247 589 238 525 l 238 -207 b 256 -249 238 -222 244 -237 b 296 -265 265 -258 281 -265 l 296 -278 l 53 -278 l 53 -265 b 111 -207 85 -265 111 -239 l 111 803 b 53 861 111 835 85 861 l 53 874 l 238 874 l 238 603 b 483 874 263 711 328 874 b 733 614 715 874 733 660 b 383 356 733 560 697 356 l 382 356 b 332 324 376 356 333 354 b 382 281 332 294 357 281 l 393 281 b 722 22 453 281 722 271 b 663 -157 722 -71 664 -157 b 644 -219 651 -174 644 -199 b 665 -258 644 -239 650 -256 b 674 -260 668 -258 671 -260 b 761 -175 724 -260 761 -175 "},"S":{"ha":756,"x_min":0,"x_max":0,"o":"m 615 292 b 756 47 718 214 756 129 b 725 -90 756 0 743 -46 b 376 -292 681 -196 543 -292 b 51 -29 136 -292 51 -143 b 57 18 51 -12 54 3 b 238 175 85 135 190 157 b 272 208 263 185 272 196 b 232 260 272 233 232 260 l 246 275 b 303 190 269 260 303 232 b 300 171 303 185 301 178 b 171 -12 283 110 194 96 b 165 -60 168 -28 165 -44 b 389 -278 165 -167 242 -278 b 647 -17 547 -278 647 -144 b 567 150 647 46 622 108 b 528 178 554 160 542 169 l 199 432 b 57 653 99 507 57 583 b 347 872 57 771 179 864 b 368 874 354 874 361 874 l 642 874 l 667 651 l 653 650 b 383 861 639 769 518 861 l 365 861 b 174 707 244 860 174 789 b 243 569 174 661 196 613 b 615 292 249 564 615 292 "},"T":{"ha":725,"x_min":0,"x_max":0,"o":"m 717 874 b 724 822 717 874 724 853 b 681 714 724 792 715 750 b 608 689 663 696 638 689 b 463 732 563 689 508 707 b 210 861 399 767 322 861 b 143 850 189 861 167 857 b 67 782 143 850 67 829 b 174 711 67 742 113 711 b 197 713 182 711 189 711 b 325 732 229 715 278 729 l 344 732 b 451 643 403 732 451 714 l 451 -207 b 469 -249 451 -222 458 -237 b 511 -265 479 -258 494 -265 l 511 -278 l 267 -278 l 267 -265 b 325 -207 300 -265 325 -239 l 325 672 b 275 711 325 672 324 711 b 243 707 265 711 256 710 b 176 699 222 701 199 699 b 53 781 113 699 53 722 b 226 878 53 861 197 876 b 258 879 236 878 247 879 b 532 801 338 879 424 863 b 646 768 574 778 615 768 b 675 772 658 768 668 769 b 710 835 703 786 710 813 b 704 869 710 854 704 869 "},"U":{"ha":747,"x_min":0,"x_max":0,"o":"m 747 874 l 747 861 b 689 640 699 842 689 688 l 689 11 b 400 -278 689 -149 560 -278 b 111 11 240 -278 111 -149 l 111 803 b 53 861 111 835 85 861 l 53 874 l 296 874 l 296 861 b 238 803 264 861 238 835 l 238 18 b 439 -235 238 -89 283 -235 b 635 -135 576 -235 631 -140 b 676 11 661 -92 676 -42 l 676 250 b 538 861 676 703 647 831 l 538 874 "},"V":{"ha":771,"x_min":0,"x_max":0,"o":"m 567 874 l 771 874 l 771 861 b 669 674 704 836 669 674 l 494 -104 b 485 -190 489 -132 485 -161 b 494 -278 485 -219 489 -249 l 365 -278 l 119 807 b 96 846 115 824 107 836 b 53 861 83 856 68 861 l 53 874 l 296 874 l 296 861 b 249 814 269 861 249 840 b 250 803 249 810 249 807 l 294 604 l 297 594 l 468 -162 l 618 500 b 639 643 629 551 636 600 b 640 710 640 667 640 689 b 567 861 640 790 628 840 "},"W":{"ha":1079,"x_min":0,"x_max":0,"o":"m 1079 861 b 979 682 1021 839 988 715 l 978 672 l 803 -104 b 793 -190 796 -132 793 -161 b 803 -278 793 -219 796 -249 l 672 -278 l 564 200 l 496 -104 b 486 -190 490 -132 486 -161 b 496 -278 486 -219 490 -249 l 367 -278 l 121 807 b 96 846 117 822 108 836 b 53 861 85 856 69 861 l 53 874 l 297 874 l 297 861 b 250 814 271 861 250 839 b 251 803 250 810 250 807 l 296 603 l 299 594 l 469 -162 l 558 229 l 454 692 b 449 735 450 707 449 721 b 542 868 449 799 483 847 b 581 875 554 872 568 875 b 635 863 600 875 618 871 b 689 771 661 850 689 824 b 685 733 689 760 688 747 b 671 672 672 679 671 672 l 629 486 l 776 -162 l 917 464 l 925 500 b 944 619 935 540 939 568 b 950 707 947 651 950 681 b 874 861 950 788 932 844 l 874 874 l 1079 874 m 622 515 l 674 740 b 676 768 675 749 676 758 b 653 832 676 792 671 817 b 619 844 643 840 631 844 b 589 833 608 844 597 840 b 567 779 578 824 567 808 b 571 747 567 771 568 760 l 603 603 l 604 594 "},"X":{"ha":763,"x_min":0,"x_max":0,"o":"m 713 418 b 586 271 713 303 643 271 b 546 276 571 271 557 274 b 469 313 528 282 499 299 l 686 -214 b 763 -265 699 -244 729 -265 l 763 -278 l 519 -278 l 519 -265 b 554 -232 539 -265 554 -249 b 551 -218 554 -226 553 -222 l 321 343 b 271 388 311 365 293 382 l 269 388 b 244 390 261 390 253 390 b 183 357 217 390 194 378 b 164 221 171 332 164 283 b 226 -212 164 96 189 -81 b 296 -265 235 -244 264 -265 l 296 -278 l 53 -278 l 53 -265 b 103 -214 81 -265 103 -243 l 103 197 b 167 375 103 331 167 375 b 242 400 189 394 215 400 b 301 392 263 400 283 396 l 129 810 b 53 861 117 840 86 861 l 53 874 l 296 874 l 296 861 b 261 828 276 861 261 844 b 264 814 261 822 263 818 l 440 385 b 531 297 457 344 489 311 b 535 296 532 297 533 296 b 572 290 549 292 561 290 b 653 428 632 290 653 347 b 589 806 653 538 615 692 b 519 861 582 838 553 861 l 519 874 l 763 874 l 763 861 b 714 811 736 861 714 839 "},"Y":{"ha":763,"x_min":0,"x_max":0,"o":"m 763 874 l 763 861 b 717 832 749 860 733 849 b 649 729 688 803 665 767 l 515 414 b 471 199 486 346 471 272 l 471 -207 b 488 -249 471 -224 478 -237 b 529 -265 499 -258 514 -265 l 529 -278 l 286 -278 l 286 -265 b 344 -207 318 -265 344 -239 l 344 204 b 315 356 344 256 335 307 l 128 811 b 97 847 121 826 111 839 b 53 861 85 856 69 861 l 53 874 l 297 874 l 297 861 b 261 826 276 861 261 844 b 264 813 261 822 263 817 l 464 325 l 464 326 l 596 638 l 601 650 b 617 717 610 671 615 693 l 617 728 b 558 861 617 833 558 861 l 558 874 "},"Z":{"ha":663,"x_min":0,"x_max":0,"o":"m 417 -265 b 650 -54 538 -265 638 -174 l 663 -56 l 640 -278 l 53 -278 l 521 861 l 297 861 b 65 650 178 861 76 769 l 53 651 l 75 874 l 663 874 l 194 -265 "},"[":{"ha":349,"x_min":0,"x_max":0,"o":"m 179 1006 l 179 -410 l 349 -410 l 349 -422 l 53 -422 l 53 1018 l 349 1018 l 349 1006 "},"\\":{"ha":508,"x_min":0,"x_max":0,"o":"m 67 874 l 508 -278 l 496 -278 l 53 874 "},"]":{"ha":349,"x_min":0,"x_max":0,"o":"m 53 1018 l 349 1018 l 349 -422 l 53 -422 l 53 -410 l 222 -410 l 222 1006 l 53 1006 "},"^":{"ha":494,"x_min":0,"x_max":0,"o":"m 494 1026 l 486 1018 l 274 1206 l 63 1018 l 53 1026 l 274 1267 "},"_":{"ha":442,"x_min":0,"x_max":0,"o":"m 53 -265 l 442 -265 l 442 -278 l 53 -278 "},"`":{"ha":296,"x_min":0,"x_max":0,"o":"m 53 1271 l 96 1304 l 296 1014 l 285 1006 "},"a":{"ha":772,"x_min":0,"x_max":0,"o":"m 704 -212 b 729 -250 708 -228 717 -242 b 772 -265 740 -260 756 -265 l 772 -278 l 528 -278 l 528 -265 b 576 -217 556 -265 576 -243 b 575 -208 576 -214 575 -211 l 497 131 b 213 -40 361 113 267 26 b 144 -181 179 -81 156 -129 l 138 -210 b 136 -219 136 -214 136 -217 b 182 -265 136 -244 156 -265 l 182 -278 l 53 -278 l 53 -265 b 125 -208 88 -265 117 -242 l 146 -117 l 146 -114 l 329 700 b 339 786 336 728 339 757 b 329 874 339 815 336 844 l 458 874 m 167 -81 b 494 143 210 -15 319 119 l 356 757 "},"b":{"ha":733,"x_min":0,"x_max":0,"o":"m 394 281 b 733 22 456 281 733 271 b 329 -278 733 -249 443 -278 l 54 -278 l 54 -265 b 113 -207 86 -265 113 -239 l 113 801 b 53 861 113 835 86 861 l 53 874 l 239 874 l 239 603 b 485 874 264 711 328 874 b 722 614 717 874 722 660 b 383 356 722 560 699 356 l 382 356 b 333 324 376 356 338 354 l 333 318 b 383 281 333 293 358 281 m 492 -196 b 603 19 547 -153 603 -85 b 396 269 603 253 396 269 l 393 269 b 279 321 375 269 279 272 b 381 368 279 363 344 368 b 500 403 424 369 465 379 b 624 631 547 435 624 521 l 624 636 b 483 861 618 826 551 861 b 319 760 417 861 353 815 b 268 649 301 729 283 697 b 239 461 247 589 239 525 l 239 -265 l 285 -265 b 492 -196 360 -265 433 -242 "},"c":{"ha":922,"x_min":0,"x_max":0,"o":"m 828 839 b 896 774 851 824 878 803 b 922 679 913 746 922 715 b 919 643 922 667 921 656 b 668 371 903 528 701 461 b 661 328 663 356 661 342 b 717 218 661 261 717 218 l 708 206 b 635 342 675 228 635 275 b 754 558 635 401 665 474 b 838 713 817 617 838 669 b 819 781 838 739 831 761 b 688 864 793 828 742 857 b 643 867 674 865 658 867 b 179 296 386 867 179 611 b 642 -269 179 -18 386 -261 l 646 -269 b 885 -182 732 -269 821 -228 l 893 -193 b 643 -286 824 -244 731 -286 b 53 296 317 -286 53 -25 b 643 879 53 618 317 879 b 722 874 669 879 696 876 b 828 839 760 868 796 857 "},"d":{"ha":806,"x_min":0,"x_max":0,"o":"m 478 882 b 806 317 678 882 806 685 b 347 -278 806 186 764 -278 l 53 -278 l 53 -265 b 111 -207 85 -265 111 -239 l 111 801 b 53 861 111 835 85 861 l 53 874 l 238 874 l 238 603 b 478 882 263 711 339 882 m 321 -265 b 671 371 442 -265 671 -222 b 479 864 671 499 649 864 b 319 760 411 864 353 815 b 267 649 301 729 283 697 b 238 461 247 589 238 525 l 238 -265 "},"e":{"ha":683,"x_min":0,"x_max":0,"o":"m 439 -265 b 671 -54 558 -265 658 -174 l 683 -56 l 661 -278 l 53 -278 l 53 -265 b 111 -207 85 -265 111 -239 l 111 801 b 94 843 111 818 106 833 b 53 861 83 854 69 861 l 53 874 l 658 874 l 679 651 l 667 650 b 435 861 656 769 554 861 l 238 861 l 238 350 b 338 414 239 351 269 414 b 436 378 365 414 397 404 b 528 343 472 353 503 343 b 607 383 581 343 607 383 l 615 376 b 485 300 615 376 569 300 b 394 328 458 300 428 307 b 293 374 394 328 326 374 b 240 326 264 374 247 351 b 238 313 239 322 239 317 l 238 -265 "},"f":{"ha":679,"x_min":0,"x_max":0,"o":"m 657 874 l 679 651 l 667 650 b 435 861 656 769 554 861 l 238 861 l 238 350 b 338 414 239 351 269 414 b 436 378 365 414 397 404 b 528 343 472 353 503 343 b 606 383 579 343 606 383 l 615 376 b 485 300 615 376 569 300 b 394 328 458 300 428 307 b 293 374 394 328 326 374 b 240 326 264 374 247 351 b 238 313 239 322 238 317 l 238 -208 b 254 -249 238 -224 244 -237 b 296 -265 265 -258 281 -265 l 296 -278 l 53 -278 l 53 -265 b 111 -207 85 -265 111 -239 l 111 801 b 94 843 111 818 104 833 b 53 861 83 854 68 861 l 53 874 "},"g":{"ha":1063,"x_min":0,"x_max":0,"o":"m 775 356 l 1063 356 l 1063 343 b 1008 289 1032 343 1008 318 l 1008 -274 l 997 -278 b 969 -262 996 -278 986 -271 b 893 -247 946 -253 919 -247 b 846 -253 876 -247 861 -249 b 642 -286 794 -265 701 -286 b 53 296 317 -286 53 -25 b 539 865 53 583 263 818 b 636 874 571 869 603 874 l 915 874 l 936 651 l 924 650 b 651 861 913 769 817 861 l 636 861 b 179 296 383 857 179 608 b 642 -269 179 -18 385 -261 l 647 -269 b 836 -218 713 -269 781 -246 b 882 -144 864 -204 882 -175 l 882 239 b 779 343 882 296 836 343 l 775 343 "},"h":{"ha":781,"x_min":0,"x_max":0,"o":"m 538 874 l 781 874 l 781 861 b 722 801 749 861 722 835 l 722 -207 b 781 -265 722 -239 749 -265 l 781 -278 l 538 -278 l 538 -265 b 596 -207 569 -265 596 -239 l 596 349 b 482 300 588 336 542 300 b 394 328 456 300 425 307 b 300 374 394 328 339 374 l 293 374 b 238 313 260 367 242 344 l 238 -207 b 256 -249 238 -224 244 -237 b 296 -265 265 -258 281 -265 l 296 -278 l 53 -278 l 53 -265 b 111 -207 85 -265 111 -239 l 111 801 b 53 861 111 835 85 861 l 53 874 l 296 874 l 296 861 b 238 801 264 861 238 835 l 238 347 b 339 414 239 349 269 414 b 436 378 365 414 397 404 b 539 335 481 346 514 335 b 596 376 572 335 589 357 l 596 801 b 538 861 596 835 569 861 "},"i":{"ha":296,"x_min":0,"x_max":0,"o":"m 296 -278 l 53 -278 l 53 -265 b 111 -207 85 -265 111 -239 l 111 803 b 53 861 111 835 85 861 l 53 874 l 296 874 l 296 861 b 238 803 264 861 238 835 l 238 -207 b 296 -265 238 -239 264 -265 "},"j":{"ha":297,"x_min":0,"x_max":0,"o":"m 53 874 l 297 874 l 297 861 b 239 801 265 861 239 835 l 239 -236 b 29 -446 239 -351 144 -446 l -36 -446 l -36 -433 l 14 -433 b 113 -335 68 -433 113 -389 l 113 801 b 94 843 113 818 106 833 b 53 861 85 854 69 861 "},"k":{"ha":769,"x_min":0,"x_max":0,"o":"m 661 -258 b 675 -261 665 -260 671 -261 b 760 -175 721 -261 760 -175 l 769 -181 b 642 -281 744 -246 700 -281 b 550 -237 596 -281 561 -258 b 542 -196 543 -225 542 -210 b 563 -114 542 -164 554 -131 b 596 19 578 -82 596 -28 b 396 268 596 268 396 268 b 317 281 394 268 351 269 l 315 281 b 238 389 282 293 240 322 l 238 -207 b 254 -249 238 -224 244 -237 b 296 -265 265 -258 279 -265 l 296 -278 l 53 -278 l 53 -265 b 111 -207 85 -265 111 -239 l 111 801 b 53 861 111 835 85 861 l 53 874 l 238 874 l 238 408 b 696 874 238 614 439 846 l 696 758 b 261 415 640 754 301 714 l 261 406 b 288 324 261 389 264 351 b 361 283 301 307 324 292 b 394 281 372 282 383 281 b 722 22 458 281 722 269 b 663 -157 722 -71 663 -157 b 642 -219 650 -175 642 -200 b 661 -258 642 -237 647 -253 "},"l":{"ha":593,"x_min":0,"x_max":0,"o":"m 349 -265 b 581 -54 468 -265 569 -175 l 593 -56 l 571 -278 l 53 -278 l 53 -265 b 94 -249 69 -265 83 -258 b 111 -207 106 -237 111 -224 l 111 801 b 53 861 111 835 86 861 l 53 874 l 297 874 l 297 861 b 256 843 281 861 265 854 b 238 803 244 833 239 819 l 238 -265 "},"m":{"ha":972,"x_min":0,"x_max":0,"o":"m 793 874 l 972 874 l 972 861 b 914 801 939 861 914 835 l 914 -207 b 931 -249 914 -224 919 -237 b 972 -265 942 -258 956 -265 l 972 -278 l 728 -278 l 728 -265 b 788 -207 761 -265 788 -239 l 788 815 l 515 13 l 449 -183 l 442 -164 l 124 775 l 124 -207 b 182 -265 124 -239 149 -265 l 182 -278 l 53 -278 l 53 -265 b 111 -207 85 -265 111 -239 l 111 803 b 53 861 111 835 85 861 l 53 874 l 224 874 l 508 33 "},"n":{"ha":729,"x_min":0,"x_max":0,"o":"m 600 874 l 729 874 l 729 861 b 671 803 696 861 671 835 l 671 -207 b 675 -229 671 -215 672 -222 l 675 -231 b 729 -265 685 -251 704 -265 l 729 -278 l 558 -278 l 124 782 l 124 -207 b 182 -265 124 -239 150 -265 l 182 -278 l 53 -278 l 53 -265 b 111 -207 85 -265 111 -239 l 111 803 b 108 819 111 808 110 814 l 104 829 b 53 861 94 847 75 861 l 53 874 l 222 874 l 658 -187 l 658 803 b 600 861 658 835 632 861 "},"o":{"ha":1232,"x_min":0,"x_max":0,"o":"m 643 881 b 1232 297 968 881 1232 619 b 643 -285 1232 -24 968 -285 b 53 297 317 -285 53 -24 b 643 881 53 619 317 881 m 643 -272 b 1106 297 899 -272 1106 -17 b 643 868 1106 613 899 868 b 179 297 386 868 179 613 b 643 -272 179 -17 386 -272 "},"p":{"ha":733,"x_min":0,"x_max":0,"o":"m 485 874 b 733 614 717 874 733 660 b 400 356 733 560 703 363 b 251 296 392 356 299 354 b 239 256 243 283 239 269 l 239 -207 b 256 -249 239 -224 244 -237 b 297 -265 267 -258 281 -265 l 297 -278 l 53 -278 l 53 -265 b 113 -207 86 -265 113 -239 l 113 801 b 53 861 113 835 86 861 l 53 874 l 239 874 l 239 603 b 485 874 264 711 328 874 m 500 403 b 614 629 550 429 614 518 b 483 861 614 815 551 861 b 319 760 417 861 353 815 b 268 649 301 729 283 697 b 239 461 247 589 239 525 l 239 299 b 383 368 272 353 353 364 b 500 403 419 375 471 388 "},"q":{"ha":1232,"x_min":0,"x_max":0,"o":"m 919 -350 b 1090 -575 1058 -397 1090 -575 l 1078 -579 b 949 -461 1074 -569 1033 -497 b 861 -443 919 -449 890 -443 b 638 -518 781 -443 704 -485 b 546 -561 606 -536 574 -551 b 507 -567 533 -565 521 -567 b 422 -528 474 -567 439 -554 b 410 -486 414 -514 410 -501 b 415 -457 410 -476 413 -467 b 635 -285 440 -385 560 -319 b 53 297 313 -281 53 -22 b 642 881 53 619 317 881 b 711 876 665 881 689 879 b 760 868 728 874 744 871 b 1232 297 1029 814 1232 579 b 668 -285 1232 -15 982 -271 b 429 -457 601 -312 460 -381 b 424 -483 425 -465 424 -475 b 425 -501 424 -489 424 -496 b 469 -539 432 -531 449 -539 b 519 -526 486 -539 504 -533 b 590 -482 546 -515 569 -500 b 872 -343 638 -442 765 -343 b 919 -350 889 -343 904 -344 m 757 850 b 686 861 735 857 710 861 b 614 850 661 861 638 857 b 517 794 597 846 540 822 b 464 663 475 744 464 699 b 483 581 464 619 479 590 b 518 526 492 561 504 543 b 565 475 532 508 549 492 b 676 376 600 442 639 410 b 788 267 715 343 753 308 b 874 114 819 226 863 167 b 885 17 881 78 885 46 b 774 -225 885 -139 793 -207 b 711 -267 742 -254 717 -264 b 1106 297 936 -228 1106 14 b 757 850 1106 564 957 788 m 179 297 b 635 -272 179 -14 382 -268 b 763 -214 635 -272 708 -272 b 815 -129 783 -193 803 -164 b 825 -103 819 -121 822 -112 b 835 -29 832 -76 835 -51 b 507 375 835 140 660 207 b 413 596 433 454 413 532 b 453 742 413 682 453 742 b 514 815 469 771 490 797 b 610 863 546 840 579 854 l 626 867 b 179 297 378 857 179 606 "},"r":{"ha":772,"x_min":0,"x_max":0,"o":"m 665 -258 b 674 -260 668 -258 671 -260 b 761 -175 724 -260 761 -175 l 772 -181 b 657 -281 750 -246 708 -278 l 644 -281 b 544 -192 565 -281 544 -236 b 563 -114 544 -158 557 -125 b 596 19 578 -82 596 -28 b 396 268 596 268 396 268 b 279 321 396 268 279 268 b 381 368 279 363 344 368 b 500 403 422 369 464 379 b 614 629 547 435 614 518 b 483 861 614 815 550 861 b 319 760 415 861 353 815 b 267 649 301 729 283 697 b 238 461 247 589 238 525 l 238 -207 b 256 -249 238 -224 244 -237 b 296 -265 265 -258 281 -265 l 296 -278 l 53 -278 l 53 -265 b 111 -207 85 -265 111 -239 l 111 801 b 53 861 111 835 85 861 l 53 874 l 238 874 l 238 603 b 483 874 263 711 328 874 b 733 614 715 874 733 660 b 383 356 733 560 697 356 l 382 356 b 332 324 376 356 333 354 b 382 281 332 294 357 281 l 393 281 b 722 22 453 281 722 271 b 663 -157 722 -71 664 -157 b 644 -219 651 -174 644 -199 b 665 -258 644 -239 650 -256 "},"s":{"ha":757,"x_min":0,"x_max":0,"o":"m 617 290 b 757 47 719 213 757 129 b 726 -90 757 0 744 -46 b 376 -292 682 -197 544 -292 b 53 -29 136 -292 53 -143 b 58 18 53 -12 56 3 b 238 174 86 135 192 157 b 272 208 264 183 272 196 b 232 260 272 233 232 260 l 247 275 b 303 192 269 260 303 232 b 300 171 303 185 301 178 b 171 -14 285 110 196 94 b 165 -61 168 -29 165 -44 b 390 -279 165 -168 243 -279 b 649 -18 549 -279 649 -144 b 568 150 649 46 624 108 b 529 178 556 160 543 169 l 199 432 b 58 653 100 506 58 583 b 349 872 58 771 181 864 b 369 874 356 874 363 874 l 643 874 l 668 651 l 653 650 b 385 861 640 769 518 861 l 367 861 b 175 706 246 860 175 788 b 243 569 175 660 197 611 b 617 290 250 563 617 290 "},"t":{"ha":689,"x_min":0,"x_max":0,"o":"m 667 874 l 689 651 l 676 650 b 443 861 664 769 564 861 l 433 861 l 433 -207 b 451 -249 433 -224 440 -237 b 492 -265 461 -258 476 -265 l 492 -278 l 249 -278 l 249 -265 b 307 -207 281 -265 307 -239 l 307 861 l 297 861 b 65 650 178 861 76 769 l 53 651 l 75 874 "},"u":{"ha":747,"x_min":0,"x_max":0,"o":"m 538 874 l 747 874 l 747 861 b 690 639 699 842 690 688 l 690 11 b 401 -285 690 -149 574 -285 b 113 11 242 -285 113 -149 l 113 801 b 53 861 113 835 86 861 l 53 874 l 297 874 l 297 861 b 239 801 264 861 239 835 l 239 17 b 439 -235 239 -89 285 -235 b 636 -135 578 -235 632 -140 b 678 11 663 -92 678 -42 l 678 250 b 538 861 678 703 647 831 "},"v":{"ha":771,"x_min":0,"x_max":0,"o":"m 771 874 l 771 861 b 669 672 704 836 669 672 l 494 -104 b 485 -190 489 -132 485 -161 b 494 -278 485 -219 489 -249 l 365 -278 l 119 807 b 96 846 115 822 107 836 b 53 861 83 856 68 861 l 53 874 l 296 874 l 296 861 b 249 814 269 861 249 840 b 250 803 249 810 249 807 l 294 603 l 297 594 l 468 -162 l 618 500 b 639 643 629 551 636 600 b 640 710 640 667 640 689 b 567 861 640 790 628 840 l 567 874 "},"w":{"ha":1078,"x_min":0,"x_max":0,"o":"m 1078 860 b 978 681 1021 839 986 715 l 976 672 l 801 -104 b 792 -192 796 -133 792 -162 b 801 -279 792 -221 796 -250 l 672 -279 l 564 200 l 494 -104 b 485 -192 489 -133 485 -162 b 494 -279 485 -221 489 -250 l 365 -279 l 119 807 b 96 846 117 822 107 836 b 53 860 83 854 68 860 l 53 874 l 296 874 l 296 860 b 249 814 269 860 249 839 b 250 803 249 810 249 807 l 296 603 l 297 593 l 468 -162 l 557 229 l 453 692 b 447 735 449 707 447 721 b 540 867 447 799 482 847 b 581 874 553 871 567 874 b 633 863 599 874 618 869 b 689 772 660 850 689 824 b 683 732 689 760 686 747 b 669 672 672 679 669 672 l 628 486 l 775 -162 l 917 464 l 925 500 b 943 619 933 540 938 568 b 949 708 946 651 949 681 b 874 860 949 788 931 844 l 874 874 l 1078 874 m 622 515 l 672 739 b 675 768 675 749 675 758 b 653 831 675 792 669 817 b 617 844 643 839 629 844 b 588 833 607 844 596 840 b 567 778 576 824 567 807 b 569 746 567 769 567 758 l 601 603 l 604 593 "},"x":{"ha":761,"x_min":0,"x_max":0,"o":"m 557 874 l 761 874 l 761 861 b 621 700 717 857 636 732 l 449 368 l 447 364 l 683 -214 b 761 -265 697 -244 728 -265 l 761 -278 l 518 -278 l 518 -265 b 551 -232 538 -265 551 -249 b 549 -218 551 -226 550 -222 l 371 217 l 221 -72 b 199 -161 207 -100 199 -132 b 257 -265 199 -204 215 -244 l 257 -278 l 53 -278 l 53 -265 b 175 -133 86 -265 142 -194 l 364 232 l 126 811 b 53 861 114 842 85 861 l 53 874 l 296 874 l 296 861 b 260 825 275 861 260 843 b 263 813 260 821 261 817 l 440 379 l 589 667 b 606 749 600 688 606 718 b 557 861 606 797 590 847 "},"y":{"ha":761,"x_min":0,"x_max":0,"o":"m 557 874 l 761 874 l 761 861 b 715 832 749 860 732 849 b 649 729 686 803 664 767 l 514 414 b 471 199 485 346 471 272 l 471 -207 b 488 -249 471 -224 476 -237 b 529 -265 499 -258 513 -265 l 529 -278 l 285 -278 l 285 -265 b 344 -207 318 -265 344 -239 l 344 204 b 314 356 344 256 333 307 l 126 811 b 97 847 121 826 110 839 b 53 861 85 856 69 861 l 53 874 l 296 874 l 296 861 b 261 826 276 861 261 844 b 264 813 261 821 263 817 l 463 325 l 464 326 l 596 638 l 600 650 b 617 717 610 671 615 693 l 617 724 b 557 861 617 833 557 861 "},"z":{"ha":663,"x_min":0,"x_max":0,"o":"m 417 -265 b 650 -54 538 -265 638 -175 l 663 -56 l 640 -278 l 53 -278 l 521 861 l 297 861 b 65 650 178 861 76 769 l 53 651 l 75 874 l 663 874 l 194 -265 "},"{":{"ha":442,"x_min":0,"x_max":0,"o":"m 272 574 b 103 313 272 461 206 358 l 85 304 l 103 296 b 272 35 206 250 272 149 l 272 -235 b 442 -417 272 -329 346 -408 l 375 -417 b 146 -187 249 -417 146 -314 l 146 161 b 53 304 146 224 110 279 b 146 447 110 329 146 385 l 146 796 b 375 1025 146 922 249 1025 l 442 1025 b 272 843 346 1018 272 938 "},"|":{"ha":65,"x_min":0,"x_max":0,"o":"m 53 -278 l 53 874 l 65 874 l 65 -278 "},"}":{"ha":442,"x_min":0,"x_max":0,"o":"m 222 35 b 392 296 222 149 289 250 l 410 304 l 392 313 b 222 574 289 358 222 461 l 222 843 b 53 1025 222 938 149 1018 l 119 1025 b 349 796 246 1025 349 922 l 349 447 b 442 304 349 385 385 329 b 349 161 385 279 349 224 l 349 -187 b 119 -417 349 -314 246 -417 l 53 -417 b 222 -235 149 -408 222 -329 "},"~":{"ha":458,"x_min":0,"x_max":0,"o":"m 64 351 b 78 365 64 351 68 357 b 121 396 86 375 101 386 b 185 410 139 404 160 410 l 197 410 b 242 400 213 408 226 406 b 281 378 256 394 268 386 b 297 365 286 374 293 369 b 314 356 303 363 308 358 b 347 339 324 349 335 343 b 376 335 357 336 367 335 b 410 340 389 335 400 336 b 449 367 428 347 440 358 b 457 376 453 371 456 374 b 460 381 460 379 460 381 l 469 375 b 467 369 469 375 469 374 b 458 357 465 367 463 363 b 418 322 451 347 439 333 b 382 311 407 317 396 313 b 367 310 376 310 371 310 b 340 313 357 310 349 311 b 297 325 325 315 311 319 b 278 336 290 329 285 332 b 260 349 271 340 265 344 b 228 369 249 356 238 363 b 193 382 217 375 204 379 b 167 385 185 385 176 385 b 128 379 153 385 140 382 b 86 356 110 372 94 363 b 71 344 76 349 71 344 l 64 351 "},"¡":{"ha":179,"x_min":0,"x_max":0,"o":"m 115 -82 l 53 874 l 179 874 m 115 -151 b 179 -215 150 -151 179 -179 b 115 -278 179 -250 150 -278 b 53 -215 81 -278 53 -250 b 115 -151 53 -179 81 -151 "},"¢":{"ha":928,"x_min":0,"x_max":0,"o":"m 921 644 b 669 371 903 529 701 463 b 661 328 664 356 661 340 b 718 219 661 261 718 219 l 708 207 b 635 343 675 228 635 276 b 754 558 635 401 665 475 b 838 713 817 618 838 669 b 819 781 838 739 831 761 b 689 864 793 829 743 858 b 643 867 674 867 658 867 b 575 861 619 867 597 865 b 563 858 571 860 567 860 b 179 297 344 811 179 578 b 563 -258 179 15 344 -208 b 575 -261 567 -258 571 -260 b 642 -268 597 -265 619 -268 l 650 -268 b 885 -182 735 -268 822 -228 l 893 -192 b 643 -285 825 -243 732 -285 b 575 -282 619 -285 597 -285 l 575 -437 l 563 -437 l 563 -281 b 53 297 275 -240 53 3 b 563 874 53 592 275 835 l 563 1031 l 575 1031 l 575 875 b 643 879 597 878 619 879 b 724 874 671 879 697 878 b 828 839 760 869 796 858 b 896 774 853 825 879 803 b 924 676 914 746 924 714 b 921 644 924 667 922 656 "},"£":{"ha":703,"x_min":0,"x_max":0,"o":"m 703 -56 l 681 -278 l 72 -278 l 72 -265 b 131 -207 104 -265 131 -239 l 131 296 l 53 296 l 53 308 l 131 308 l 131 622 b 381 874 131 761 243 874 l 669 874 l 690 651 l 678 650 b 446 861 667 769 565 861 b 257 672 342 861 257 776 l 257 308 l 443 308 l 443 296 l 257 296 l 257 -265 l 458 -265 b 690 -54 578 -265 678 -174 "},"¤":{"ha":515,"x_min":0,"x_max":0,"o":"m 283 81 b 432 140 340 81 390 100 l 440 149 b 500 297 481 190 500 240 b 440 444 500 354 481 404 b 432 454 438 449 435 451 b 283 513 390 493 340 513 b 136 454 226 513 176 493 b 126 444 132 451 129 449 b 68 297 88 404 68 354 b 126 149 68 240 88 190 b 136 140 129 146 132 143 b 283 81 176 100 226 81 m 515 75 l 506 65 l 440 131 b 283 68 397 89 344 68 b 126 131 224 68 171 89 l 61 65 l 53 75 l 118 140 b 56 297 76 183 56 236 b 118 454 56 357 76 410 l 53 519 l 61 528 l 126 463 b 283 525 171 504 224 525 b 440 463 344 525 397 504 l 506 528 l 515 519 l 450 454 b 513 297 492 410 513 357 b 450 140 513 236 492 183 "},"¥":{"ha":761,"x_min":0,"x_max":0,"o":"m 761 881 l 761 868 b 715 839 749 868 732 856 b 649 736 686 810 664 775 l 514 422 b 474 268 493 372 481 321 l 601 268 l 601 256 l 472 256 b 471 206 471 239 471 222 l 471 175 l 601 175 l 601 161 l 471 161 l 471 -200 b 488 -240 471 -215 476 -231 b 529 -258 497 -251 513 -258 l 529 -271 l 285 -271 l 285 -258 b 344 -200 318 -258 344 -232 l 344 161 l 213 161 l 213 175 l 344 175 l 344 211 b 342 256 344 226 343 240 l 213 256 l 213 268 l 340 268 b 314 363 335 300 326 332 l 126 819 b 97 856 121 833 110 846 b 53 868 85 864 69 868 l 53 881 l 296 881 l 296 868 b 260 832 275 868 260 851 b 263 819 260 828 261 824 l 463 333 l 464 333 l 596 646 l 600 657 b 615 724 610 678 615 701 l 615 735 b 557 868 615 840 557 868 l 557 881 "},"¦":{"ha":65,"x_min":0,"x_max":0,"o":"m 65 874 l 65 375 l 53 375 l 53 874 m 53 221 l 65 221 l 65 -278 l 53 -278 "},"§":{"ha":874,"x_min":0,"x_max":0,"o":"m 822 128 b 806 101 818 118 813 110 b 851 -15 839 64 851 24 b 822 -122 851 -51 840 -87 b 472 -279 778 -206 640 -279 b 149 -75 232 -279 149 -164 b 154 -37 149 -61 151 -49 b 217 42 165 0 189 25 b 286 72 239 56 264 65 b 333 85 304 78 321 81 b 368 111 360 92 368 101 b 328 151 368 132 328 151 l 342 164 b 399 99 364 151 399 131 b 396 82 399 93 397 88 b 333 22 388 57 361 43 b 301 -4 322 15 311 6 b 267 -62 286 -19 274 -37 b 261 -99 264 -75 261 -86 b 485 -265 261 -181 339 -265 b 744 -64 644 -265 744 -162 b 711 26 744 -32 733 -1 b 682 53 703 36 693 44 b 664 65 676 57 671 61 b 625 88 651 74 639 81 l 326 267 l 294 286 b 256 311 281 294 268 303 b 153 460 185 361 153 413 b 235 576 153 506 183 546 b 154 708 178 621 154 667 b 444 881 154 801 276 874 l 739 881 l 763 707 l 749 707 b 481 867 736 800 614 867 l 463 867 b 271 749 342 865 271 811 b 339 643 271 714 293 676 b 372 624 340 643 353 635 b 389 614 378 621 383 617 b 713 425 492 554 713 425 b 853 235 815 365 853 299 b 822 128 853 199 840 163 m 713 176 b 742 157 722 169 732 164 b 744 183 743 165 744 175 b 664 315 744 233 719 282 b 625 338 651 322 639 331 l 294 536 b 282 543 290 539 286 540 b 271 500 275 529 271 515 b 329 401 271 468 289 433 b 332 400 329 401 331 400 l 332 399 b 339 393 335 397 336 396 b 349 388 340 393 343 392 b 397 360 360 382 376 372 b 713 176 501 299 713 176 "},"¨":{"ha":378,"x_min":0,"x_max":0,"o":"m 115 1240 b 178 1176 150 1240 178 1213 b 115 1114 178 1142 150 1114 b 53 1176 81 1114 53 1142 b 115 1240 53 1213 81 1240 m 317 1240 b 379 1176 351 1240 379 1213 b 317 1114 379 1142 351 1114 b 254 1176 282 1114 254 1142 b 317 1240 254 1213 282 1240 "},"©":{"ha":1161,"x_min":0,"x_max":0,"o":"m 607 861 b 1161 306 913 861 1161 613 b 607 -249 1161 0 913 -249 b 53 306 301 -249 53 0 b 607 861 53 613 301 861 m 607 -236 b 1149 306 906 -236 1149 7 b 607 849 1149 606 906 849 b 65 306 308 849 65 606 b 607 -236 65 7 308 -236 m 792 651 b 836 611 807 643 825 629 b 853 549 847 593 853 572 b 851 528 853 542 853 535 b 690 353 840 454 711 413 b 685 326 688 343 685 335 b 722 257 685 283 722 257 l 715 249 b 669 336 694 263 669 292 b 744 474 669 372 688 419 b 797 571 785 511 797 544 b 786 615 797 588 793 603 b 703 668 769 646 738 664 b 674 669 693 669 683 669 b 378 306 511 669 378 507 b 674 -54 378 106 510 -50 l 678 -54 b 829 1 732 -54 789 -28 l 833 -6 b 674 -65 790 -39 731 -65 b 297 306 467 -65 297 101 b 674 678 297 511 467 678 b 725 675 692 678 708 676 b 792 651 749 671 771 664 "},"ª":{"ha":328,"x_min":0,"x_max":0,"o":"m 292 524 b 326 486 292 489 319 486 l 328 486 l 328 481 l 275 481 b 243 529 246 481 243 513 l 243 539 b 149 481 243 539 228 481 b 53 579 68 481 53 543 b 125 692 53 617 71 667 b 174 715 142 700 158 707 b 186 736 182 719 186 728 b 165 758 186 746 178 757 b 150 760 161 758 156 760 b 90 785 119 764 100 772 b 86 792 89 786 88 789 b 83 803 85 796 83 800 l 83 807 b 93 835 83 813 86 824 b 96 838 94 836 94 838 b 183 874 110 857 138 871 l 194 874 b 292 801 286 874 292 814 m 243 792 b 236 825 243 799 243 811 b 232 831 235 826 233 829 b 219 843 229 835 225 839 b 174 854 208 850 193 854 l 165 854 b 89 800 126 853 90 833 b 90 793 89 799 89 796 b 150 765 96 779 117 768 b 200 757 174 763 190 760 l 201 757 b 211 742 207 754 211 747 b 204 729 211 738 208 732 b 172 708 194 722 182 714 b 106 614 124 685 106 650 b 117 564 106 597 110 581 b 186 513 131 531 158 513 b 243 556 210 513 232 526 "},"«":{"ha":325,"x_min":0,"x_max":0,"o":"m 53 297 l 196 439 l 206 431 l 72 297 l 206 164 l 196 154 m 172 297 l 315 439 l 325 431 l 192 297 l 325 164 l 315 154 "},"¬":{"ha":575,"x_min":0,"x_max":0,"o":"m 575 221 l 563 221 l 563 360 l 53 360 l 53 372 l 575 372 "},"®":{"ha":1161,"x_min":0,"x_max":0,"o":"m 607 854 b 1161 300 913 854 1161 606 b 607 -254 1161 -6 913 -254 b 53 300 301 -254 53 -6 b 607 854 53 606 301 854 m 607 -242 b 1149 300 906 -242 1149 1 b 607 842 1149 599 906 842 b 65 300 308 842 65 599 b 607 -242 65 1 308 -242 m 772 -54 b 829 0 806 -54 829 0 l 836 -4 b 763 -68 822 -46 796 -65 l 754 -68 b 692 -12 704 -68 692 -40 b 703 39 692 10 699 32 b 724 124 713 60 724 93 b 596 282 724 282 596 282 b 521 315 596 282 521 282 b 586 347 521 343 563 346 b 663 368 614 347 640 354 b 735 513 693 389 735 442 b 651 660 735 631 694 660 b 547 596 608 660 568 632 b 514 525 536 576 524 557 b 496 406 501 486 496 446 l 496 -21 b 507 -47 496 -31 500 -40 b 533 -58 513 -54 522 -58 l 533 -65 l 378 -65 l 378 -58 b 415 -21 399 -58 415 -42 l 415 624 b 378 660 415 643 399 660 l 378 668 l 496 668 l 496 496 b 653 668 511 565 553 668 b 811 503 800 668 811 532 b 588 338 811 468 789 338 l 586 338 b 556 318 581 338 556 336 b 588 290 556 299 571 290 l 594 290 b 804 125 632 290 804 285 b 767 11 804 67 767 11 b 754 -29 758 0 754 -15 b 768 -54 754 -42 758 -53 "},"¯":{"ha":404,"x_min":0,"x_max":0,"o":"m 53 1131 l 404 1131 l 404 1117 l 53 1117 "},"°":{"ha":383,"x_min":0,"x_max":0,"o":"m 218 1353 b 121 1307 175 1353 143 1338 b 88 1197 99 1276 88 1240 b 121 1089 88 1156 99 1118 b 218 1043 143 1058 175 1043 b 315 1089 261 1043 293 1058 b 349 1197 338 1118 349 1156 b 315 1307 349 1240 338 1276 b 218 1353 293 1338 261 1353 m 218 1033 b 101 1081 172 1033 133 1049 b 53 1197 69 1113 53 1151 b 101 1315 53 1243 69 1283 b 218 1364 133 1347 172 1364 b 335 1315 264 1364 303 1347 b 383 1197 368 1283 383 1243 b 335 1081 383 1151 368 1113 b 218 1033 303 1049 264 1033 "},"±":{"ha":443,"x_min":0,"x_max":0,"o":"m 254 290 l 254 101 l 242 101 l 242 290 l 53 290 l 53 303 l 242 303 l 242 492 l 254 492 l 254 303 l 443 303 l 443 290 m 53 78 l 443 78 l 443 65 l 53 65 "},"²":{"ha":290,"x_min":0,"x_max":0,"o":"m 214 632 b 74 500 86 572 74 500 l 236 500 b 276 533 256 500 272 514 l 281 532 l 274 500 l 264 454 l 56 454 b 157 613 56 463 58 544 b 239 742 236 667 239 728 l 239 744 b 167 871 239 819 204 871 b 106 814 139 871 119 858 b 101 785 103 807 101 796 b 129 728 101 764 107 742 b 183 668 172 700 183 682 b 176 646 183 658 179 653 l 171 649 b 178 668 175 657 178 663 b 169 686 178 675 175 679 b 143 704 164 694 153 700 b 60 779 115 714 64 726 l 60 782 b 85 842 60 803 72 828 b 167 875 106 867 135 875 b 290 747 231 875 290 825 b 214 632 290 699 258 653 "},"³":{"ha":281,"x_min":0,"x_max":0,"o":"m 186 731 b 281 594 240 718 281 663 b 160 454 281 517 224 454 b 78 489 128 454 99 464 b 54 547 65 503 54 528 l 54 551 b 136 626 57 604 108 617 b 163 644 147 631 156 636 b 178 674 172 653 178 664 b 172 692 178 679 176 686 l 176 694 b 182 674 181 688 182 681 b 175 651 182 665 179 658 b 122 603 167 636 154 625 b 94 544 100 588 94 564 b 99 517 94 533 97 522 b 160 460 113 472 132 460 b 233 594 197 460 233 519 b 164 729 233 669 201 729 b 94 663 131 729 107 706 l 72 688 l 72 689 l 243 829 l 110 829 b 69 797 90 829 74 815 l 65 797 l 72 829 l 81 875 l 261 875 l 253 832 l 125 726 l 142 731 b 165 733 149 733 157 733 b 186 731 172 733 179 733 "},"´":{"ha":296,"x_min":0,"x_max":0,"o":"m 53 1014 l 251 1304 l 296 1271 l 63 1006 "},"µ":{"ha":747,"x_min":0,"x_max":0,"o":"m 239 17 b 257 -94 239 -18 244 -56 b 318 -193 268 -133 289 -167 b 439 -235 347 -221 388 -235 b 549 -211 483 -235 519 -226 b 611 -165 576 -196 597 -181 b 635 -135 625 -150 633 -139 l 636 -135 b 678 11 664 -92 678 -43 l 678 250 b 649 718 678 476 668 632 b 538 861 628 803 592 851 l 538 874 l 747 874 l 747 861 b 711 806 732 853 719 835 b 694 714 703 776 697 746 b 690 639 692 681 690 656 l 690 11 b 611 -196 690 -68 664 -137 b 401 -285 557 -256 488 -285 b 238 -233 339 -285 285 -268 l 238 -346 b 256 -386 238 -361 243 -375 b 296 -404 267 -399 281 -404 l 296 -417 l 53 -417 l 53 -404 b 94 -386 68 -404 82 -399 b 111 -346 106 -375 111 -361 l 113 801 b 96 844 113 818 107 832 b 53 861 83 856 69 861 l 53 874 l 297 874 l 297 861 b 256 844 281 861 267 856 b 239 801 244 832 239 818 l 239 17 "},"¶":{"ha":592,"x_min":0,"x_max":0,"o":"m 592 874 l 592 -278 l 465 -278 l 465 874 m 442 874 l 442 -278 l 429 -278 l 429 356 l 311 356 b 53 614 168 356 53 471 b 311 874 53 757 168 874 "},"·":{"ha":178,"x_min":0,"x_max":0,"o":"m 115 235 b 53 297 81 235 53 263 b 115 361 53 333 81 361 b 178 297 150 361 178 333 b 115 235 178 263 150 235 "},"¸":{"ha":531,"x_min":0,"x_max":0,"o":"m 297 -264 b 531 -437 426 -267 531 -344 b 290 -612 531 -533 424 -612 b 53 -460 168 -612 67 -544 l 93 -440 b 290 -599 106 -522 172 -599 b 483 -437 417 -599 483 -526 b 297 -278 483 -351 419 -279 b 290 -276 294 -276 293 -276 b 285 -278 289 -276 286 -276 l 285 51 l 297 51 "},"¹":{"ha":142,"x_min":0,"x_max":0,"o":"m 121 483 b 126 468 121 476 122 472 b 142 461 131 464 136 461 l 142 457 l 53 457 l 53 461 b 75 483 65 461 75 471 l 75 843 l 53 843 l 53 849 b 115 875 81 849 115 875 l 121 875 "},"º":{"ha":285,"x_min":0,"x_max":0,"o":"m 169 876 b 285 665 233 876 285 782 b 169 454 285 549 233 454 b 53 665 106 454 53 549 b 169 876 53 782 106 876 m 169 460 b 239 665 207 460 239 551 b 169 872 239 781 207 872 b 100 665 131 872 100 781 b 169 460 100 551 131 460 "},"»":{"ha":325,"x_min":0,"x_max":0,"o":"m 182 154 l 172 164 l 306 297 l 172 431 l 182 439 l 325 297 m 63 154 l 53 164 l 186 297 l 53 431 l 63 439 l 206 297 "},"¼":{"ha":618,"x_min":0,"x_max":0,"o":"m 510 874 l 67 -278 l 53 -278 l 496 874 m 100 835 l 71 835 l 71 840 b 153 876 107 840 153 876 l 158 876 l 158 369 b 167 350 158 363 161 356 b 186 343 172 346 179 343 l 186 336 l 72 336 l 72 343 b 100 369 88 343 100 354 m 592 -146 l 592 -244 b 599 -264 592 -253 594 -260 b 618 -272 604 -269 611 -272 l 618 -278 l 504 -278 l 504 -272 b 532 -244 519 -272 532 -260 l 532 -146 l 306 -146 l 311 -140 b 411 261 332 -114 410 1 l 475 261 b 317 -140 475 261 475 56 l 532 -140 l 532 138 l 592 138 l 592 -140 l 618 -140 l 618 -146 "},"½":{"ha":639,"x_min":0,"x_max":0,"o":"m 508 874 l 65 -278 l 53 -278 l 494 874 m 99 835 l 69 835 l 69 840 b 151 876 106 840 151 876 l 157 876 l 157 369 b 165 350 157 363 161 356 b 185 343 171 346 178 343 l 185 336 l 71 336 l 71 343 b 99 369 86 343 99 354 m 568 -219 b 621 -176 593 -219 615 -201 l 626 -178 l 618 -219 l 606 -278 l 336 -278 l 336 -276 b 467 -75 336 -265 340 -162 b 574 93 569 -3 574 78 l 574 96 b 479 258 574 192 529 258 b 400 185 443 258 418 243 b 394 147 397 176 394 163 b 431 74 394 122 403 92 b 501 -4 488 38 501 14 b 492 -32 501 -15 496 -24 l 486 -29 b 494 -3 492 -18 494 -11 b 483 21 494 4 490 13 b 449 43 475 31 463 38 b 343 140 414 57 347 72 l 343 146 b 374 221 343 172 358 201 b 479 265 401 253 438 265 b 639 99 563 265 639 200 b 542 -50 639 38 599 -24 b 358 -219 376 -126 358 -219 "},"¾":{"ha":754,"x_min":0,"x_max":0,"o":"m 347 514 b 192 333 347 414 275 333 b 86 378 150 333 113 344 b 56 453 71 396 56 426 l 56 458 b 161 556 60 526 126 542 b 196 578 175 560 186 568 b 214 617 208 590 214 603 b 208 640 214 624 213 632 l 214 643 b 221 617 218 633 221 625 b 211 588 221 606 217 596 b 143 524 201 567 183 553 b 108 447 115 504 108 472 b 113 414 108 433 110 421 b 192 340 131 356 156 340 b 286 514 242 340 286 418 b 197 688 286 610 246 688 b 108 601 154 688 124 657 l 79 635 l 299 817 l 128 817 b 75 775 103 817 81 800 l 69 776 l 78 817 l 90 876 l 322 876 l 311 819 l 147 683 b 168 690 154 686 161 689 b 199 693 178 692 188 693 b 226 690 208 693 217 692 b 347 514 296 674 347 601 m 639 874 l 196 -278 l 183 -278 l 625 874 m 726 -146 l 726 -244 b 735 -264 726 -253 729 -260 b 754 -272 740 -269 747 -272 l 754 -278 l 640 -278 l 640 -272 b 668 -244 656 -272 668 -260 l 668 -146 l 442 -146 b 446 -140 442 -146 443 -144 b 547 261 467 -114 546 1 l 610 261 b 453 -140 610 261 610 56 l 668 -140 l 668 138 l 726 138 l 726 -140 l 754 -140 l 754 -146 "},"¿":{"ha":688,"x_min":0,"x_max":0,"o":"m 347 879 b 688 525 524 879 688 740 b 481 210 688 394 596 276 b 326 -11 363 142 326 56 b 353 -100 326 -50 338 -82 l 343 -111 b 297 10 317 -90 297 -46 b 393 213 297 72 322 147 b 549 521 529 340 546 475 b 550 556 550 533 550 544 b 347 865 550 740 447 865 b 179 708 271 865 218 832 b 168 629 174 692 168 663 b 244 472 168 575 183 510 b 394 308 364 397 394 347 b 374 247 394 285 383 265 l 361 254 b 379 308 374 276 379 293 b 357 360 379 325 372 340 b 283 407 339 382 313 396 b 56 614 207 436 65 469 l 56 621 b 122 786 56 676 88 744 b 347 879 181 854 260 879 m 353 -151 b 415 -215 388 -151 415 -181 b 353 -278 415 -250 388 -278 b 289 -215 318 -278 289 -250 b 353 -151 289 -181 318 -151 "},"À":{"ha":772,"x_min":0,"x_max":0,"o":"m 772 -278 l 528 -278 l 528 -265 b 572 -222 553 -265 572 -244 b 571 -210 572 -218 572 -214 l 531 -56 b 289 -281 494 -162 425 -281 b 100 -135 193 -281 114 -215 b 96 -71 97 -115 96 -94 l 96 -54 b 121 96 99 -12 106 38 l 121 97 l 282 700 b 293 786 289 728 293 757 b 282 874 293 815 289 844 l 413 874 l 703 -212 b 772 -265 711 -243 739 -265 m 472 -126 b 515 -21 501 -96 515 -58 b 511 17 515 -8 514 4 l 438 293 l 311 763 l 142 125 b 133 40 142 125 133 89 b 308 -190 133 -46 160 -171 b 332 -192 317 -192 325 -192 b 472 -126 394 -192 442 -158 m 222 1278 l 257 1304 l 414 1074 l 407 1068 "},"Á":{"ha":772,"x_min":0,"x_max":0,"o":"m 772 -278 l 528 -278 l 528 -265 b 572 -222 553 -265 572 -244 b 571 -210 572 -218 572 -214 l 531 -56 b 289 -281 494 -162 425 -281 b 100 -135 193 -281 114 -215 b 96 -71 97 -115 96 -94 l 96 -54 b 121 96 99 -12 106 38 l 121 97 l 282 700 b 293 786 289 728 293 757 b 282 874 293 815 289 844 l 413 874 l 703 -212 b 772 -265 711 -243 739 -265 m 472 -126 b 515 -21 501 -96 515 -58 b 511 17 515 -8 514 4 l 438 293 l 311 763 l 142 125 b 133 40 142 125 133 89 b 308 -190 133 -46 160 -171 b 332 -192 317 -192 325 -192 b 472 -126 394 -192 442 -158 m 286 1074 l 443 1304 l 479 1278 l 293 1068 "},"Â":{"ha":772,"x_min":0,"x_max":0,"o":"m 772 -278 l 528 -278 l 528 -265 b 572 -222 553 -265 572 -244 b 571 -210 572 -218 572 -214 l 531 -56 b 289 -281 494 -162 425 -281 b 100 -135 193 -281 114 -215 b 96 -71 97 -115 96 -94 l 96 -54 b 121 96 99 -12 106 38 l 121 97 l 282 700 b 293 786 289 728 293 757 b 282 874 293 815 289 844 l 413 874 l 703 -212 b 772 -265 711 -243 739 -265 m 472 -126 b 515 -21 501 -96 515 -58 b 511 17 515 -8 514 4 l 438 293 l 311 763 l 142 125 b 133 40 142 125 133 89 b 308 -190 133 -46 160 -171 b 332 -192 317 -192 325 -192 b 472 -126 394 -192 442 -158 m 560 1076 l 551 1068 l 350 1246 l 149 1068 l 139 1076 l 350 1304 "},"Ã":{"ha":772,"x_min":0,"x_max":0,"o":"m 772 -278 l 528 -278 l 528 -265 b 572 -222 553 -265 572 -244 b 571 -210 572 -218 572 -214 l 531 -56 b 289 -281 494 -162 425 -281 b 100 -135 193 -281 114 -215 b 96 -71 97 -115 96 -94 l 96 -54 b 121 96 99 -12 106 38 l 121 97 l 282 700 b 293 786 289 728 293 757 b 282 874 293 815 289 844 l 413 874 l 703 -212 b 772 -265 711 -243 739 -265 m 472 -126 b 515 -21 501 -96 515 -58 b 511 17 515 -8 514 4 l 438 293 l 311 763 l 142 125 b 133 40 142 125 133 89 b 308 -190 133 -46 160 -171 b 332 -192 317 -192 325 -192 b 472 -126 394 -192 442 -158 m 147 1178 b 161 1192 147 1178 151 1183 b 204 1222 169 1201 185 1213 b 268 1236 222 1231 243 1236 l 281 1236 b 325 1226 296 1235 310 1232 b 364 1204 339 1221 351 1213 b 381 1192 369 1200 376 1196 b 397 1182 386 1189 392 1185 b 431 1165 407 1175 418 1169 b 460 1161 440 1163 450 1161 b 493 1167 472 1161 483 1163 b 532 1193 511 1174 524 1185 b 540 1203 536 1197 539 1200 b 543 1207 543 1206 543 1207 l 553 1201 b 550 1196 553 1201 553 1200 b 542 1183 549 1193 546 1189 b 501 1149 535 1174 522 1160 b 465 1138 490 1143 479 1139 b 450 1136 460 1136 454 1136 b 424 1139 440 1136 432 1138 b 381 1151 408 1142 394 1146 b 361 1163 374 1156 368 1158 b 343 1175 354 1167 349 1171 b 311 1196 332 1182 321 1189 b 276 1208 300 1201 288 1206 b 250 1211 268 1211 260 1211 b 211 1206 236 1211 224 1208 b 169 1182 193 1199 178 1189 b 154 1171 160 1175 154 1171 l 147 1178 "},"Ä":{"ha":772,"x_min":0,"x_max":0,"o":"m 772 -278 l 528 -278 l 528 -265 b 572 -222 553 -265 572 -244 b 571 -210 572 -218 572 -214 l 531 -56 b 289 -281 494 -162 425 -281 b 100 -135 193 -281 114 -215 b 96 -71 97 -115 96 -94 l 96 -54 b 121 96 99 -12 106 38 l 121 97 l 282 700 b 293 786 289 728 293 757 b 282 874 293 815 289 844 l 413 874 l 703 -212 b 772 -265 711 -243 739 -265 m 472 -126 b 515 -21 501 -96 515 -58 b 511 17 515 -8 514 4 l 438 293 l 311 763 l 142 125 b 133 40 142 125 133 89 b 308 -190 133 -46 160 -171 b 332 -192 317 -192 325 -192 b 472 -126 394 -192 442 -158 m 249 1250 b 311 1186 283 1250 311 1222 b 249 1124 311 1151 283 1124 b 186 1186 214 1124 186 1151 b 249 1250 186 1222 214 1250 m 450 1250 b 513 1186 485 1250 513 1222 b 450 1124 513 1151 485 1124 b 388 1186 415 1124 388 1151 b 450 1250 388 1222 415 1250 "},"Å":{"ha":772,"x_min":0,"x_max":0,"o":"m 772 -278 l 528 -278 l 528 -265 b 572 -222 553 -265 572 -244 b 571 -210 572 -218 572 -214 l 531 -56 b 289 -281 494 -162 425 -281 b 100 -135 193 -281 114 -215 b 96 -71 97 -115 96 -94 l 96 -54 b 121 96 99 -12 106 38 l 121 97 l 282 700 b 293 786 289 728 293 757 b 282 874 293 815 289 844 l 413 874 l 703 -212 b 772 -265 711 -243 739 -265 m 472 -126 b 515 -21 501 -96 515 -58 b 511 17 515 -8 514 4 l 438 293 l 311 763 l 142 125 b 133 40 142 125 133 89 b 308 -190 133 -46 160 -171 b 332 -192 317 -192 325 -192 b 472 -126 394 -192 442 -158 m 350 1296 b 281 1264 319 1296 296 1286 b 257 1185 264 1242 257 1215 b 281 1107 257 1154 264 1128 b 350 1075 296 1085 319 1075 b 419 1107 381 1075 404 1085 b 444 1185 436 1128 444 1154 b 419 1264 444 1215 436 1242 b 350 1296 404 1286 381 1296 m 350 1067 b 267 1101 318 1067 290 1078 b 232 1185 243 1124 232 1153 b 267 1269 232 1218 243 1246 b 350 1304 290 1293 318 1304 b 435 1269 383 1304 411 1293 b 469 1185 458 1246 469 1218 b 435 1101 469 1153 458 1124 b 350 1067 411 1078 383 1067 "},"Æ":{"ha":1088,"x_min":0,"x_max":0,"o":"m 472 -126 b 515 -21 501 -94 515 -58 b 511 17 515 -8 514 4 l 438 293 l 311 763 l 142 125 l 142 122 b 138 101 140 118 139 111 b 133 40 135 85 133 64 b 147 -53 133 11 138 -19 b 197 -140 156 -86 172 -115 b 308 -190 222 -167 260 -183 b 332 -192 317 -192 325 -192 b 414 -171 364 -192 390 -185 b 472 -126 438 -158 457 -143 m 701 -208 b 839 -265 740 -246 786 -265 l 842 -265 b 999 -206 901 -265 954 -246 b 1075 -54 1042 -165 1068 -115 l 1088 -56 l 1065 -278 l 801 -278 b 772 -276 792 -278 782 -278 l 772 -278 l 528 -278 l 528 -265 b 560 -251 540 -265 550 -261 b 572 -222 568 -243 572 -233 b 571 -210 572 -218 572 -214 l 550 -129 b 525 -69 539 -110 531 -90 b 482 -161 514 -101 500 -132 b 404 -246 461 -196 436 -224 b 289 -281 372 -269 335 -281 b 165 -239 240 -281 200 -267 b 100 -135 131 -211 108 -176 b 96 -71 97 -115 96 -94 l 96 -54 b 121 96 97 -12 106 38 l 121 97 l 282 700 b 293 786 289 729 293 757 b 282 874 293 815 289 844 l 413 874 l 515 489 l 515 803 b 499 843 515 818 510 832 b 457 861 486 856 472 861 l 457 874 l 1061 874 l 1083 651 l 1071 650 b 994 801 1064 711 1038 761 b 839 861 951 842 899 861 l 642 861 l 642 350 l 643 351 b 657 372 644 356 649 363 b 690 401 664 382 675 392 b 742 415 704 411 721 415 b 840 378 768 415 801 403 b 931 343 876 354 907 343 b 965 350 943 343 956 346 b 990 364 975 354 983 358 b 1006 378 997 368 1001 374 l 1008 381 b 1010 382 1008 382 1008 382 l 1010 383 l 1019 376 l 1018 375 b 1017 372 1018 374 1017 374 b 1011 365 1015 369 1014 368 b 986 339 1006 357 997 349 b 944 313 974 329 960 319 b 889 300 928 304 910 300 b 799 328 863 300 832 310 b 797 329 797 328 797 329 b 794 331 796 329 796 329 b 788 335 793 332 790 333 b 761 351 781 339 771 344 b 726 367 750 357 739 363 b 696 374 714 371 704 374 b 663 360 682 374 671 369 b 644 326 654 350 649 339 b 642 313 643 322 642 318 l 642 17 "},"Ç":{"ha":926,"x_min":0,"x_max":0,"o":"m 621 -285 b 346 -206 521 -281 429 -256 b 133 6 257 -154 186 -83 b 53 297 79 93 53 190 b 133 592 53 404 79 503 b 346 803 186 679 257 750 b 642 881 435 854 533 881 b 722 875 669 881 696 879 b 826 840 760 869 794 858 b 896 775 853 825 876 804 b 922 676 914 747 922 714 b 919 644 922 667 921 656 b 871 560 913 613 897 585 b 782 486 844 533 814 510 b 711 431 756 468 732 449 b 668 371 690 411 675 392 b 661 329 664 356 661 342 b 669 285 661 313 664 297 b 689 250 675 271 682 260 b 708 228 696 240 703 232 b 714 222 711 225 713 224 l 717 219 l 707 207 b 658 258 689 218 674 235 b 635 344 643 282 635 310 b 661 442 635 374 643 406 b 753 560 679 478 710 517 b 819 643 785 589 807 617 b 838 713 832 668 838 692 b 818 781 838 739 831 761 b 688 865 789 829 744 858 b 642 868 672 867 657 868 b 408 792 557 868 479 843 b 240 585 338 740 282 671 b 178 297 199 499 178 403 b 240 14 178 193 199 99 b 407 -187 282 -71 338 -137 b 640 -268 476 -237 554 -264 l 649 -268 b 775 -242 692 -268 733 -260 b 885 -181 815 -225 853 -204 l 892 -192 b 775 -257 857 -218 818 -239 b 642 -285 731 -275 686 -285 l 633 -285 l 633 -590 b 800 -644 700 -593 756 -611 b 867 -764 844 -678 867 -718 b 797 -887 867 -812 843 -853 b 626 -939 750 -922 693 -939 b 468 -894 565 -939 513 -924 b 389 -786 424 -865 397 -829 l 429 -767 b 489 -878 436 -810 456 -846 b 626 -925 522 -910 568 -925 b 771 -878 689 -925 738 -910 b 819 -764 803 -846 819 -808 b 772 -653 819 -721 804 -683 b 633 -604 740 -622 694 -606 b 626 -603 632 -603 629 -603 b 621 -604 625 -603 622 -603 l 621 -285 "},"È":{"ha":683,"x_min":0,"x_max":0,"o":"m 661 -278 l 397 -278 b 111 8 239 -278 111 -150 l 111 803 b 94 843 111 818 104 833 b 53 861 83 854 68 861 l 53 874 l 657 874 l 679 651 l 667 650 b 435 861 656 769 554 861 l 238 861 l 238 350 b 338 415 239 351 269 415 b 436 378 365 415 397 406 b 526 343 472 353 503 343 b 606 383 579 343 606 383 l 615 376 b 485 300 615 376 568 300 b 394 328 458 300 428 307 b 292 374 394 328 326 374 b 240 326 264 374 247 351 b 238 313 239 322 238 318 l 238 -68 b 435 -265 238 -176 326 -265 l 438 -265 b 671 -54 558 -265 658 -174 l 683 -56 m 240 1278 l 275 1304 l 432 1074 l 425 1068 "},"É":{"ha":683,"x_min":0,"x_max":0,"o":"m 661 -278 l 397 -278 b 111 8 239 -278 111 -150 l 111 803 b 94 843 111 818 104 833 b 53 861 83 854 68 861 l 53 874 l 657 874 l 679 651 l 667 650 b 435 861 656 769 554 861 l 238 861 l 238 350 b 338 415 239 351 269 415 b 436 378 365 415 397 406 b 526 343 472 353 503 343 b 606 383 579 343 606 383 l 615 376 b 485 300 615 376 568 300 b 394 328 458 300 428 307 b 292 374 394 328 326 374 b 240 326 264 374 247 351 b 238 313 239 322 238 318 l 238 -68 b 435 -265 238 -176 326 -265 l 438 -265 b 671 -54 558 -265 658 -174 l 683 -56 m 304 1074 l 461 1304 l 497 1278 l 311 1068 "},"Ê":{"ha":683,"x_min":0,"x_max":0,"o":"m 661 -278 l 397 -278 b 111 8 239 -278 111 -150 l 111 803 b 94 843 111 818 104 833 b 53 861 83 854 68 861 l 53 874 l 657 874 l 679 651 l 667 650 b 435 861 656 769 554 861 l 238 861 l 238 350 b 338 415 239 351 269 415 b 436 378 365 415 397 406 b 526 343 472 353 503 343 b 606 383 579 343 606 383 l 615 376 b 485 300 615 376 568 300 b 394 328 458 300 428 307 b 292 374 394 328 326 374 b 240 326 264 374 247 351 b 238 313 239 322 238 318 l 238 -68 b 435 -265 238 -176 326 -265 l 438 -265 b 671 -54 558 -265 658 -174 l 683 -56 m 578 1076 l 569 1068 l 368 1246 l 167 1068 l 157 1076 l 368 1304 "},"Ë":{"ha":683,"x_min":0,"x_max":0,"o":"m 661 -278 l 397 -278 b 111 8 239 -278 111 -150 l 111 803 b 94 843 111 818 104 833 b 53 861 83 854 68 861 l 53 874 l 657 874 l 679 651 l 667 650 b 435 861 656 769 554 861 l 238 861 l 238 350 b 338 415 239 351 269 415 b 436 378 365 415 397 406 b 526 343 472 353 503 343 b 606 383 579 343 606 383 l 615 376 b 485 300 615 376 568 300 b 394 328 458 300 428 307 b 292 374 394 328 326 374 b 240 326 264 374 247 351 b 238 313 239 322 238 318 l 238 -68 b 435 -265 238 -176 326 -265 l 438 -265 b 671 -54 558 -265 658 -174 l 683 -56 m 267 1250 b 329 1186 301 1250 329 1222 b 267 1124 329 1151 301 1124 b 204 1186 232 1124 204 1151 b 267 1250 204 1222 232 1250 m 468 1250 b 531 1186 503 1250 531 1222 b 468 1124 531 1151 503 1124 b 406 1186 433 1124 406 1151 b 468 1250 406 1222 433 1250 "},"Ì":{"ha":296,"x_min":0,"x_max":0,"o":"m 296 861 b 238 803 264 861 238 835 l 238 -207 b 296 -265 238 -239 264 -265 l 296 -278 l 53 -278 l 53 -265 b 111 -207 85 -265 111 -239 l 111 803 b 53 861 111 835 85 861 l 53 874 l 296 874 m 46 1278 l 81 1304 l 238 1074 l 231 1068 "},"Í":{"ha":296,"x_min":0,"x_max":0,"o":"m 296 861 b 238 803 264 861 238 835 l 238 -207 b 296 -265 238 -239 264 -265 l 296 -278 l 53 -278 l 53 -265 b 111 -207 85 -265 111 -239 l 111 803 b 53 861 111 835 85 861 l 53 874 l 296 874 m 110 1074 l 267 1304 l 303 1278 l 117 1068 "},"Î":{"ha":296,"x_min":0,"x_max":0,"o":"m 296 861 b 238 803 264 861 238 835 l 238 -207 b 296 -265 238 -239 264 -265 l 296 -278 l 53 -278 l 53 -265 b 111 -207 85 -265 111 -239 l 111 803 b 53 861 111 835 85 861 l 53 874 l 296 874 m 383 1076 l 375 1068 l 174 1246 l -28 1068 l -37 1076 l 174 1304 "},"Ï":{"ha":296,"x_min":0,"x_max":0,"o":"m 296 861 b 238 803 264 861 238 835 l 238 -207 b 296 -265 238 -239 264 -265 l 296 -278 l 53 -278 l 53 -265 b 111 -207 85 -265 111 -239 l 111 803 b 53 861 111 835 85 861 l 53 874 l 296 874 m 72 1250 b 135 1186 107 1250 135 1222 b 72 1124 135 1151 107 1124 b 10 1186 38 1124 10 1151 b 72 1250 10 1222 38 1250 m 274 1250 b 336 1186 308 1250 336 1222 b 274 1124 336 1151 308 1124 b 211 1186 239 1124 211 1151 b 274 1250 211 1222 239 1250 "},"Ð":{"ha":807,"x_min":0,"x_max":0,"o":"m 239 -265 l 321 -265 b 426 -247 351 -265 386 -260 b 542 -168 467 -236 504 -210 b 635 21 579 -128 610 -64 b 672 372 660 106 672 224 b 665 501 672 404 669 447 b 639 667 661 556 651 611 b 582 807 626 721 607 768 b 479 865 556 846 522 865 b 388 835 446 865 415 856 b 319 760 360 814 338 789 b 268 649 301 732 283 694 b 239 461 249 588 239 525 l 239 308 l 318 308 l 318 296 l 239 296 m 113 803 b 96 844 113 818 107 832 b 53 861 83 856 69 861 l 53 874 l 239 874 l 239 603 b 282 724 247 640 261 681 b 361 835 301 767 328 803 b 479 882 393 867 433 882 b 718 738 579 882 658 833 b 807 317 778 642 807 501 b 799 206 807 290 804 254 b 765 51 793 157 782 106 b 690 -106 749 -4 724 -57 b 556 -229 656 -156 611 -197 b 347 -278 500 -261 431 -278 l 54 -278 l 54 -265 b 96 -247 69 -265 83 -260 b 113 -207 107 -236 113 -222 l 113 296 l -71 296 l -71 308 l 113 308 "},"Ñ":{"ha":854,"x_min":0,"x_max":0,"o":"m 854 -168 b 681 -281 854 -168 788 -281 b 532 -172 621 -281 543 -272 b 531 -144 531 -162 531 -153 b 626 190 531 -53 578 31 b 679 515 663 310 679 421 b 476 864 679 726 599 864 b 311 769 413 864 356 825 b 238 540 260 704 238 622 l 238 -207 b 254 -249 238 -222 244 -237 b 296 -265 265 -258 279 -265 l 296 -278 l 53 -278 l 53 -265 b 111 -207 85 -265 111 -239 l 111 803 b 94 843 111 818 104 833 b 53 861 83 854 68 861 l 53 874 l 238 874 l 238 668 b 474 881 272 756 343 881 b 789 365 660 881 789 663 b 783 257 789 329 788 294 b 668 -147 763 58 668 -58 b 694 -215 668 -172 676 -194 b 739 -236 708 -231 724 -236 b 847 -162 793 -236 847 -162 m 251 1178 b 265 1192 251 1178 256 1183 b 308 1222 274 1201 289 1213 b 372 1236 326 1231 347 1236 l 385 1236 b 429 1226 400 1235 414 1232 b 468 1204 443 1221 456 1213 b 485 1192 474 1200 481 1196 b 501 1182 490 1189 496 1185 b 535 1165 511 1175 522 1169 b 564 1161 544 1163 554 1161 b 597 1167 576 1161 588 1163 b 636 1193 615 1174 628 1185 b 644 1203 640 1197 643 1200 b 647 1207 647 1206 647 1207 l 657 1201 b 654 1196 657 1201 657 1200 b 646 1183 653 1193 650 1189 b 606 1149 639 1174 626 1160 b 569 1138 594 1143 583 1139 b 554 1136 564 1136 558 1136 b 528 1139 544 1136 536 1138 b 485 1151 513 1142 499 1146 b 465 1163 478 1156 472 1158 b 447 1175 458 1167 453 1171 b 415 1196 436 1182 425 1189 b 381 1208 404 1201 392 1206 b 354 1211 372 1211 364 1211 b 315 1206 340 1211 328 1208 b 274 1182 297 1199 282 1189 b 258 1171 264 1175 258 1171 l 251 1178 "},"Ò":{"ha":1232,"x_min":0,"x_max":0,"o":"m 761 868 b 1232 297 1029 814 1232 579 b 643 -285 1232 -24 968 -285 b 53 297 317 -285 53 -24 b 643 881 53 619 317 881 b 711 876 665 881 689 879 m 635 -272 b 763 -214 635 -272 710 -272 b 817 -129 783 -193 804 -164 b 825 -103 819 -121 822 -112 b 835 -29 832 -76 835 -51 b 507 375 835 140 660 207 b 413 596 433 454 413 532 b 453 742 413 682 453 742 b 514 815 469 771 490 797 b 610 863 546 840 581 854 l 626 867 b 179 297 378 857 179 606 b 635 -272 179 -14 383 -268 m 718 -265 b 1106 297 939 -221 1106 14 b 757 850 1106 564 957 788 b 686 861 735 857 710 861 b 614 850 663 861 638 857 b 517 794 597 846 540 822 b 464 663 475 744 464 699 b 483 581 464 619 479 590 b 519 526 493 561 504 543 b 567 475 533 508 550 492 b 678 376 601 442 639 410 b 788 267 715 343 754 308 b 874 114 821 226 863 167 b 885 17 881 78 885 46 b 774 -225 885 -139 793 -207 b 718 -265 742 -254 725 -261 m 514 1278 l 549 1304 l 706 1074 l 699 1068 "},"Ó":{"ha":1232,"x_min":0,"x_max":0,"o":"m 761 868 b 1232 297 1029 814 1232 579 b 643 -285 1232 -24 968 -285 b 53 297 317 -285 53 -24 b 643 881 53 619 317 881 b 711 876 665 881 689 879 m 635 -272 b 763 -214 635 -272 710 -272 b 817 -129 783 -193 804 -164 b 825 -103 819 -121 822 -112 b 835 -29 832 -76 835 -51 b 507 375 835 140 660 207 b 413 596 433 454 413 532 b 453 742 413 682 453 742 b 514 815 469 771 490 797 b 610 863 546 840 581 854 l 626 867 b 179 297 378 857 179 606 b 635 -272 179 -14 383 -268 m 718 -265 b 1106 297 939 -221 1106 14 b 757 850 1106 564 957 788 b 686 861 735 857 710 861 b 614 850 663 861 638 857 b 517 794 597 846 540 822 b 464 663 475 744 464 699 b 483 581 464 619 479 590 b 519 526 493 561 504 543 b 567 475 533 508 550 492 b 678 376 601 442 639 410 b 788 267 715 343 754 308 b 874 114 821 226 863 167 b 885 17 881 78 885 46 b 774 -225 885 -139 793 -207 b 718 -265 742 -254 725 -261 m 578 1074 l 735 1304 l 771 1278 l 585 1068 "},"Ô":{"ha":1232,"x_min":0,"x_max":0,"o":"m 761 868 b 1232 297 1029 814 1232 579 b 643 -285 1232 -24 968 -285 b 53 297 317 -285 53 -24 b 643 881 53 619 317 881 b 711 876 665 881 689 879 m 635 -272 b 763 -214 635 -272 710 -272 b 817 -129 783 -193 804 -164 b 825 -103 819 -121 822 -112 b 835 -29 832 -76 835 -51 b 507 375 835 140 660 207 b 413 596 433 454 413 532 b 453 742 413 682 453 742 b 514 815 469 771 490 797 b 610 863 546 840 581 854 l 626 867 b 179 297 378 857 179 606 b 635 -272 179 -14 383 -268 m 718 -265 b 1106 297 939 -221 1106 14 b 757 850 1106 564 957 788 b 686 861 735 857 710 861 b 614 850 663 861 638 857 b 517 794 597 846 540 822 b 464 663 475 744 464 699 b 483 581 464 619 479 590 b 519 526 493 561 504 543 b 567 475 533 508 550 492 b 678 376 601 442 639 410 b 788 267 715 343 754 308 b 874 114 821 226 863 167 b 885 17 881 78 885 46 b 774 -225 885 -139 793 -207 b 718 -265 742 -254 725 -261 m 851 1076 l 843 1068 l 642 1246 l 440 1068 l 431 1076 l 642 1304 "},"Õ":{"ha":1232,"x_min":0,"x_max":0,"o":"m 761 868 b 1232 297 1029 814 1232 579 b 643 -285 1232 -24 968 -285 b 53 297 317 -285 53 -24 b 643 881 53 619 317 881 b 711 876 665 881 689 879 m 635 -272 b 763 -214 635 -272 710 -272 b 817 -129 783 -193 804 -164 b 825 -103 819 -121 822 -112 b 835 -29 832 -76 835 -51 b 507 375 835 140 660 207 b 413 596 433 454 413 532 b 453 742 413 682 453 742 b 514 815 469 771 490 797 b 610 863 546 840 581 854 l 626 867 b 179 297 378 857 179 606 b 635 -272 179 -14 383 -268 m 718 -265 b 1106 297 939 -221 1106 14 b 757 850 1106 564 957 788 b 686 861 735 857 710 861 b 614 850 663 861 638 857 b 517 794 597 846 540 822 b 464 663 475 744 464 699 b 483 581 464 619 479 590 b 519 526 493 561 504 543 b 567 475 533 508 550 492 b 678 376 601 442 639 410 b 788 267 715 343 754 308 b 874 114 821 226 863 167 b 885 17 881 78 885 46 b 774 -225 885 -139 793 -207 b 718 -265 742 -254 725 -261 m 439 1178 b 453 1192 439 1178 443 1183 b 496 1222 461 1201 476 1213 b 560 1236 514 1231 535 1236 l 572 1236 b 617 1226 588 1235 601 1232 b 656 1204 631 1221 643 1213 b 672 1192 661 1200 668 1196 b 689 1182 678 1189 683 1185 b 722 1165 699 1175 710 1169 b 751 1161 732 1163 742 1161 b 785 1167 764 1161 775 1163 b 824 1193 803 1174 815 1185 b 832 1203 828 1197 831 1200 b 835 1207 835 1206 835 1207 l 844 1201 b 842 1196 844 1201 844 1200 b 833 1183 840 1193 838 1189 b 793 1149 826 1174 814 1160 b 757 1138 782 1143 771 1139 b 742 1136 751 1136 746 1136 b 715 1139 732 1136 724 1138 b 672 1151 700 1142 686 1146 b 653 1163 665 1156 660 1158 b 635 1175 646 1167 640 1171 b 603 1196 624 1182 613 1189 b 568 1208 592 1201 579 1206 b 542 1211 560 1211 551 1211 b 503 1206 528 1211 515 1208 b 461 1182 485 1199 469 1189 b 446 1171 451 1175 446 1171 l 439 1178 "},"Ö":{"ha":1232,"x_min":0,"x_max":0,"o":"m 761 868 b 1232 297 1029 814 1232 579 b 643 -285 1232 -24 968 -285 b 53 297 317 -285 53 -24 b 643 881 53 619 317 881 b 711 876 665 881 689 879 m 635 -272 b 763 -214 635 -272 710 -272 b 817 -129 783 -193 804 -164 b 825 -103 819 -121 822 -112 b 835 -29 832 -76 835 -51 b 507 375 835 140 660 207 b 413 596 433 454 413 532 b 453 742 413 682 453 742 b 514 815 469 771 490 797 b 610 863 546 840 581 854 l 626 867 b 179 297 378 857 179 606 b 635 -272 179 -14 383 -268 m 718 -265 b 1106 297 939 -221 1106 14 b 757 850 1106 564 957 788 b 686 861 735 857 710 861 b 614 850 663 861 638 857 b 517 794 597 846 540 822 b 464 663 475 744 464 699 b 483 581 464 619 479 590 b 519 526 493 561 504 543 b 567 475 533 508 550 492 b 678 376 601 442 639 410 b 788 267 715 343 754 308 b 874 114 821 226 863 167 b 885 17 881 78 885 46 b 774 -225 885 -139 793 -207 b 718 -265 742 -254 725 -261 m 540 1250 b 603 1186 575 1250 603 1222 b 540 1124 603 1151 575 1124 b 478 1186 506 1124 478 1151 b 540 1250 478 1222 506 1250 m 742 1250 b 804 1186 776 1250 804 1222 b 742 1124 804 1151 776 1124 b 679 1186 707 1124 679 1151 b 742 1250 679 1222 707 1250 "},"×":{"ha":338,"x_min":0,"x_max":0,"o":"m 194 288 l 61 154 l 53 164 l 186 297 l 53 431 l 61 439 l 194 306 l 328 439 l 338 431 l 204 297 l 338 164 l 328 154 "},"Ø":{"ha":1232,"x_min":0,"x_max":0,"o":"m 649 -279 b 876 -201 732 -278 807 -253 b 1043 4 946 -150 1001 -82 b 1106 290 1085 90 1106 186 b 1043 578 1106 396 1085 492 b 876 785 1001 664 946 733 b 649 861 807 835 732 860 l 649 -279 m 636 861 b 410 785 554 860 478 833 b 242 578 339 733 283 664 b 179 290 200 492 179 396 b 242 4 179 186 200 90 b 410 -201 283 -82 339 -150 b 636 -279 478 -251 554 -278 m 649 -437 l 636 -437 l 636 -292 b 346 -212 529 -290 433 -264 b 133 -1 257 -161 186 -90 b 53 290 79 86 53 183 b 133 585 53 397 79 496 b 346 796 186 672 257 743 b 636 874 433 846 529 872 l 636 1031 l 649 1031 l 649 874 b 940 796 754 872 851 847 b 1153 585 1029 743 1100 672 b 1232 290 1206 496 1232 397 b 1153 -1 1232 183 1206 86 b 940 -212 1100 -90 1029 -161 b 649 -292 851 -265 754 -290 "},"Ù":{"ha":747,"x_min":0,"x_max":0,"o":"m 747 874 l 747 861 b 689 640 699 842 689 688 l 689 11 b 400 -278 689 -149 560 -278 b 111 11 240 -278 111 -149 l 111 803 b 53 861 111 835 85 861 l 53 874 l 296 874 l 296 861 b 238 803 264 861 238 835 l 238 18 b 439 -235 238 -89 283 -235 b 635 -135 576 -235 631 -140 b 676 11 661 -92 676 -42 l 676 250 b 538 861 676 703 647 831 l 538 874 m 272 1278 l 307 1304 l 464 1074 l 457 1068 "},"Ú":{"ha":747,"x_min":0,"x_max":0,"o":"m 747 874 l 747 861 b 689 640 699 842 689 688 l 689 11 b 400 -278 689 -149 560 -278 b 111 11 240 -278 111 -149 l 111 803 b 53 861 111 835 85 861 l 53 874 l 296 874 l 296 861 b 238 803 264 861 238 835 l 238 18 b 439 -235 238 -89 283 -235 b 635 -135 576 -235 631 -140 b 676 11 661 -92 676 -42 l 676 250 b 538 861 676 703 647 831 l 538 874 m 336 1074 l 493 1304 l 529 1278 l 343 1068 "},"Û":{"ha":747,"x_min":0,"x_max":0,"o":"m 747 874 l 747 861 b 689 640 699 842 689 688 l 689 11 b 400 -278 689 -149 560 -278 b 111 11 240 -278 111 -149 l 111 803 b 53 861 111 835 85 861 l 53 874 l 296 874 l 296 861 b 238 803 264 861 238 835 l 238 18 b 439 -235 238 -89 283 -235 b 635 -135 576 -235 631 -140 b 676 11 661 -92 676 -42 l 676 250 b 538 861 676 703 647 831 l 538 874 m 610 1076 l 601 1068 l 400 1246 l 199 1068 l 189 1076 l 400 1304 "},"Ü":{"ha":747,"x_min":0,"x_max":0,"o":"m 747 874 l 747 861 b 689 640 699 842 689 688 l 689 11 b 400 -278 689 -149 560 -278 b 111 11 240 -278 111 -149 l 111 803 b 53 861 111 835 85 861 l 53 874 l 296 874 l 296 861 b 238 803 264 861 238 835 l 238 18 b 439 -235 238 -89 283 -235 b 635 -135 576 -235 631 -140 b 676 11 661 -92 676 -42 l 676 250 b 538 861 676 703 647 831 l 538 874 m 299 1250 b 361 1186 333 1250 361 1222 b 299 1124 361 1151 333 1124 b 236 1186 264 1124 236 1151 b 299 1250 236 1222 264 1250 m 500 1250 b 563 1186 535 1250 563 1222 b 500 1124 563 1151 535 1124 b 438 1186 465 1124 438 1151 b 500 1250 438 1222 465 1250 "},"Ý":{"ha":763,"x_min":0,"x_max":0,"o":"m 763 874 l 763 861 b 717 832 749 860 733 849 b 649 729 688 803 665 767 l 515 414 b 471 199 486 346 471 272 l 471 -207 b 488 -249 471 -224 478 -237 b 529 -265 499 -258 514 -265 l 529 -278 l 286 -278 l 286 -265 b 344 -207 318 -265 344 -239 l 344 204 b 315 356 344 256 335 307 l 128 811 b 97 847 121 826 111 839 b 53 861 85 856 69 861 l 53 874 l 297 874 l 297 861 b 261 826 276 861 261 844 b 264 813 261 822 263 817 l 464 325 l 464 326 l 596 638 l 601 650 b 617 717 610 671 615 693 l 617 728 b 558 861 617 833 558 861 l 558 874 m 344 1074 l 501 1304 l 538 1278 l 351 1068 "},"Þ":{"ha":733,"x_min":0,"x_max":0,"o":"m 500 403 b 578 485 526 417 553 444 b 614 629 601 525 614 574 b 596 772 614 692 608 739 b 547 842 583 806 567 829 b 483 861 526 854 506 861 b 390 832 450 861 419 851 b 319 760 361 813 338 789 b 268 649 301 732 283 694 b 239 461 249 588 239 525 l 239 299 b 308 351 257 324 279 342 b 378 368 336 361 360 367 b 383 369 379 368 382 368 b 444 383 401 372 422 376 b 500 403 465 389 485 396 m 239 874 l 239 603 b 279 721 247 640 261 679 b 357 829 297 763 324 799 b 485 874 390 858 433 874 b 622 840 543 874 589 863 b 696 761 656 818 681 792 b 726 674 711 731 722 701 b 733 614 731 644 733 625 b 724 553 733 600 731 579 b 681 468 717 525 703 497 b 581 392 658 439 625 413 b 400 356 535 371 475 358 l 399 356 b 365 353 394 356 383 354 b 307 338 347 351 328 346 b 251 296 286 328 267 314 b 239 256 243 283 239 269 l 239 -207 b 256 -249 239 -222 244 -236 b 297 -265 267 -260 281 -265 l 297 -278 l 53 -278 l 53 -265 b 96 -247 69 -265 83 -260 b 113 -207 107 -236 113 -222 l 111 983 b 94 1025 111 999 106 1013 b 53 1042 82 1036 68 1042 l 53 1054 l 296 1054 l 296 1042 b 256 1025 281 1042 267 1036 b 238 983 243 1013 238 999 l 238 874 "},"ß":{"ha":732,"x_min":0,"x_max":0,"o":"m 393 281 b 732 22 454 281 732 271 b 328 -278 732 -249 442 -278 l 53 -278 l 53 -265 b 111 -207 85 -265 111 -239 l 111 719 l 126 726 b 210 696 126 726 165 696 b 292 747 238 696 268 707 b 483 874 332 815 390 874 b 722 614 715 874 722 660 b 382 356 722 560 697 356 l 381 356 b 332 324 375 356 336 354 l 332 319 b 382 281 332 293 358 281 m 490 -196 b 603 19 546 -153 603 -85 b 394 269 603 253 394 269 l 393 269 b 278 321 383 269 278 271 b 381 368 278 363 343 368 b 500 403 422 369 464 379 b 622 631 546 435 622 522 l 622 636 b 482 861 617 826 550 861 b 318 760 415 861 353 815 b 267 649 300 729 282 697 b 238 461 246 589 238 525 l 238 -265 l 283 -265 b 490 -196 358 -265 432 -242 "},"à":{"ha":772,"x_min":0,"x_max":0,"o":"m 704 -212 b 729 -250 708 -228 717 -242 b 772 -265 740 -260 756 -265 l 772 -278 l 528 -278 l 528 -265 b 576 -217 556 -265 576 -243 b 575 -208 576 -214 575 -211 l 497 131 b 213 -40 361 113 267 26 b 144 -181 179 -81 156 -129 l 138 -210 b 136 -219 136 -214 136 -217 b 182 -265 136 -244 156 -265 l 182 -278 l 53 -278 l 53 -265 b 125 -208 88 -265 117 -242 l 146 -117 l 146 -114 l 329 700 b 339 786 336 728 339 757 b 329 874 339 815 336 844 l 458 874 m 167 -81 b 494 143 210 -15 319 119 l 356 757 m 268 1278 l 303 1304 l 460 1074 l 453 1068 "},"á":{"ha":772,"x_min":0,"x_max":0,"o":"m 704 -212 b 729 -250 708 -228 717 -242 b 772 -265 740 -260 756 -265 l 772 -278 l 528 -278 l 528 -265 b 576 -217 556 -265 576 -243 b 575 -208 576 -214 575 -211 l 497 131 b 213 -40 361 113 267 26 b 144 -181 179 -81 156 -129 l 138 -210 b 136 -219 136 -214 136 -217 b 182 -265 136 -244 156 -265 l 182 -278 l 53 -278 l 53 -265 b 125 -208 88 -265 117 -242 l 146 -117 l 146 -114 l 329 700 b 339 786 336 728 339 757 b 329 874 339 815 336 844 l 458 874 m 167 -81 b 494 143 210 -15 319 119 l 356 757 m 332 1074 l 489 1304 l 525 1278 l 339 1068 "},"â":{"ha":772,"x_min":0,"x_max":0,"o":"m 704 -212 b 729 -250 708 -228 717 -242 b 772 -265 740 -260 756 -265 l 772 -278 l 528 -278 l 528 -265 b 576 -217 556 -265 576 -243 b 575 -208 576 -214 575 -211 l 497 131 b 213 -40 361 113 267 26 b 144 -181 179 -81 156 -129 l 138 -210 b 136 -219 136 -214 136 -217 b 182 -265 136 -244 156 -265 l 182 -278 l 53 -278 l 53 -265 b 125 -208 88 -265 117 -242 l 146 -117 l 146 -114 l 329 700 b 339 786 336 728 339 757 b 329 874 339 815 336 844 l 458 874 m 167 -81 b 494 143 210 -15 319 119 l 356 757 m 606 1076 l 597 1068 l 396 1246 l 194 1068 l 185 1076 l 396 1304 "},"ã":{"ha":772,"x_min":0,"x_max":0,"o":"m 704 -212 b 729 -250 708 -228 717 -242 b 772 -265 740 -260 756 -265 l 772 -278 l 528 -278 l 528 -265 b 576 -217 556 -265 576 -243 b 575 -208 576 -214 575 -211 l 497 131 b 213 -40 361 113 267 26 b 144 -181 179 -81 156 -129 l 138 -210 b 136 -219 136 -214 136 -217 b 182 -265 136 -244 156 -265 l 182 -278 l 53 -278 l 53 -265 b 125 -208 88 -265 117 -242 l 146 -117 l 146 -114 l 329 700 b 339 786 336 728 339 757 b 329 874 339 815 336 844 l 458 874 m 167 -81 b 494 143 210 -15 319 119 l 356 757 m 193 1178 b 207 1192 193 1178 197 1183 b 250 1222 215 1201 231 1213 b 314 1236 268 1231 289 1236 l 326 1236 b 371 1226 342 1235 356 1232 b 410 1204 385 1221 397 1213 b 426 1192 415 1200 422 1196 b 443 1182 432 1189 438 1185 b 476 1165 453 1175 464 1169 b 506 1161 486 1163 496 1161 b 539 1167 518 1161 529 1163 b 578 1193 557 1174 569 1185 b 586 1203 582 1197 585 1200 b 589 1207 589 1206 589 1207 l 599 1201 b 596 1196 599 1201 599 1200 b 588 1183 594 1193 592 1189 b 547 1149 581 1174 568 1160 b 511 1138 536 1143 525 1139 b 496 1136 506 1136 500 1136 b 469 1139 486 1136 478 1138 b 426 1151 454 1142 440 1146 b 407 1163 419 1156 414 1158 b 389 1175 400 1167 394 1171 b 357 1196 378 1182 367 1189 b 322 1208 346 1201 333 1206 b 296 1211 314 1211 306 1211 b 257 1206 282 1211 269 1208 b 215 1182 239 1199 224 1189 b 200 1171 206 1175 200 1171 l 193 1178 "},"ä":{"ha":772,"x_min":0,"x_max":0,"o":"m 704 -212 b 729 -250 708 -228 717 -242 b 772 -265 740 -260 756 -265 l 772 -278 l 528 -278 l 528 -265 b 576 -217 556 -265 576 -243 b 575 -208 576 -214 575 -211 l 497 131 b 213 -40 361 113 267 26 b 144 -181 179 -81 156 -129 l 138 -210 b 136 -219 136 -214 136 -217 b 182 -265 136 -244 156 -265 l 182 -278 l 53 -278 l 53 -265 b 125 -208 88 -265 117 -242 l 146 -117 l 146 -114 l 329 700 b 339 786 336 728 339 757 b 329 874 339 815 336 844 l 458 874 m 167 -81 b 494 143 210 -15 319 119 l 356 757 m 294 1250 b 357 1186 329 1250 357 1222 b 294 1124 357 1151 329 1124 b 232 1186 260 1124 232 1151 b 294 1250 232 1222 260 1250 m 496 1250 b 558 1186 531 1250 558 1222 b 496 1124 558 1151 531 1124 b 433 1186 461 1124 433 1151 b 496 1250 433 1222 461 1250 "},"å":{"ha":772,"x_min":0,"x_max":0,"o":"m 704 -212 b 729 -250 708 -228 717 -242 b 772 -265 740 -260 756 -265 l 772 -278 l 528 -278 l 528 -265 b 576 -217 556 -265 576 -243 b 575 -208 576 -214 575 -211 l 497 131 b 213 -40 361 113 267 26 b 144 -181 179 -81 156 -129 l 138 -210 b 136 -219 136 -214 136 -217 b 182 -265 136 -244 156 -265 l 182 -278 l 53 -278 l 53 -265 b 125 -208 88 -265 117 -242 l 146 -117 l 146 -114 l 329 700 b 339 786 336 728 339 757 b 329 874 339 815 336 844 l 458 874 m 167 -81 b 494 143 210 -15 319 119 l 356 757 m 396 1296 b 326 1264 365 1296 342 1286 b 303 1185 310 1242 303 1215 b 326 1107 303 1154 310 1128 b 396 1075 342 1085 365 1075 b 465 1107 426 1075 450 1085 b 490 1185 482 1128 490 1154 b 465 1264 490 1215 482 1242 b 396 1296 450 1286 426 1296 m 396 1067 b 313 1101 364 1067 336 1078 b 278 1185 289 1124 278 1153 b 313 1269 278 1218 289 1246 b 396 1304 336 1293 364 1304 b 481 1269 429 1304 457 1293 b 515 1185 504 1246 515 1218 b 481 1101 515 1153 504 1124 b 396 1067 457 1078 429 1067 "},"æ":{"ha":1182,"x_min":0,"x_max":0,"o":"m 167 -81 b 282 47 188 -44 226 -1 b 494 143 336 96 407 128 l 356 757 m 528 -265 b 563 -250 542 -265 553 -260 b 576 -217 572 -240 576 -229 b 575 -208 576 -214 576 -211 l 497 131 b 325 64 429 119 372 97 b 213 -40 276 29 239 -6 b 144 -181 179 -81 157 -128 l 138 -210 b 136 -219 136 -214 136 -217 b 150 -251 136 -232 140 -242 b 182 -265 158 -261 169 -265 l 182 -278 l 53 -278 l 53 -265 b 125 -208 88 -265 113 -246 l 146 -117 l 146 -114 l 329 700 b 339 786 336 729 339 757 b 329 874 339 815 336 844 l 458 874 l 610 204 l 610 801 b 593 843 610 818 604 832 b 551 861 582 856 568 861 l 551 874 l 1157 874 l 1178 651 l 1165 650 b 1089 801 1158 711 1132 761 b 933 861 1046 842 993 861 l 736 861 l 736 350 l 738 351 b 751 372 739 356 743 363 b 785 400 758 382 769 390 b 838 414 799 410 817 414 b 935 378 864 414 896 401 b 1026 343 971 354 1001 343 b 1061 350 1039 343 1051 346 b 1086 364 1071 354 1079 358 b 1101 378 1093 368 1097 374 l 1104 381 b 1106 382 1104 382 1104 382 l 1106 383 l 1114 376 l 1113 375 b 1111 372 1113 374 1111 374 b 1106 365 1110 369 1108 368 b 1081 339 1100 357 1092 349 b 1040 313 1069 329 1056 319 b 983 300 1024 304 1004 300 b 893 328 957 300 928 310 b 892 329 892 328 892 329 b 889 331 890 329 890 329 b 882 335 888 332 885 333 b 856 351 875 339 865 344 b 822 367 844 357 833 363 b 792 374 810 371 800 374 b 757 360 776 374 765 369 b 739 326 749 350 743 339 b 738 319 738 325 738 322 b 736 313 738 317 738 314 l 736 -256 b 772 -265 747 -262 758 -265 l 938 -265 b 1093 -206 997 -265 1050 -246 b 1169 -54 1136 -165 1163 -115 l 1182 -56 l 1160 -278 l 528 -278 "},"ç":{"ha":922,"x_min":0,"x_max":0,"o":"m 621 -286 b 347 -207 521 -282 429 -257 b 133 4 257 -156 186 -85 b 53 296 79 92 53 189 b 133 590 53 403 79 501 b 347 801 186 678 257 749 b 643 879 436 853 535 879 b 722 874 669 879 696 878 b 828 839 760 868 796 857 b 896 774 854 824 876 803 b 922 679 914 747 922 715 b 919 643 922 667 921 656 b 871 557 914 611 897 583 b 781 483 844 531 814 507 b 668 371 726 447 689 410 b 661 328 664 356 661 342 b 669 283 661 311 664 296 b 689 249 675 269 682 258 b 708 226 696 239 703 231 b 714 221 711 224 713 222 l 717 218 l 708 206 b 658 257 690 217 674 233 b 635 342 643 281 635 308 b 661 440 635 371 643 404 b 754 558 679 476 710 515 b 819 642 785 588 807 615 b 838 713 832 668 838 692 b 819 781 838 739 832 761 b 688 864 790 829 746 857 b 643 867 674 865 658 867 b 410 790 558 867 481 842 b 242 583 339 739 283 669 b 179 296 200 497 179 401 b 242 13 179 192 200 97 b 408 -189 283 -72 339 -139 b 642 -269 478 -239 556 -265 l 646 -269 b 774 -243 689 -269 732 -261 b 885 -182 815 -226 853 -206 l 893 -193 b 775 -258 858 -219 818 -240 b 643 -286 731 -276 686 -286 l 633 -286 l 633 -592 b 800 -646 700 -594 756 -612 b 867 -765 844 -679 867 -719 b 797 -889 867 -814 843 -854 b 626 -940 750 -924 693 -940 b 468 -896 565 -940 513 -925 b 389 -787 424 -867 397 -831 l 429 -768 b 489 -879 436 -811 456 -847 b 626 -926 522 -911 568 -926 b 771 -879 689 -926 738 -911 b 819 -765 803 -847 819 -810 b 772 -654 819 -722 804 -685 b 633 -606 740 -624 694 -607 b 626 -604 632 -604 629 -604 b 621 -606 625 -604 622 -604 l 621 -286 "},"è":{"ha":683,"x_min":0,"x_max":0,"o":"m 439 -265 b 671 -54 558 -265 658 -174 l 683 -56 l 661 -278 l 53 -278 l 53 -265 b 111 -207 85 -265 111 -239 l 111 801 b 94 843 111 818 106 833 b 53 861 83 854 69 861 l 53 874 l 658 874 l 679 651 l 667 650 b 435 861 656 769 554 861 l 238 861 l 238 350 b 338 414 239 351 269 414 b 436 378 365 414 397 404 b 528 343 472 353 503 343 b 607 383 581 343 607 383 l 615 376 b 485 300 615 376 569 300 b 394 328 458 300 428 307 b 293 374 394 328 326 374 b 240 326 264 374 247 351 b 238 313 239 322 239 317 l 238 -265 m 228 1278 l 263 1304 l 419 1074 l 413 1068 "},"é":{"ha":683,"x_min":0,"x_max":0,"o":"m 439 -265 b 671 -54 558 -265 658 -174 l 683 -56 l 661 -278 l 53 -278 l 53 -265 b 111 -207 85 -265 111 -239 l 111 801 b 94 843 111 818 106 833 b 53 861 83 854 69 861 l 53 874 l 658 874 l 679 651 l 667 650 b 435 861 656 769 554 861 l 238 861 l 238 350 b 338 414 239 351 269 414 b 436 378 365 414 397 404 b 528 343 472 353 503 343 b 607 383 581 343 607 383 l 615 376 b 485 300 615 376 569 300 b 394 328 458 300 428 307 b 293 374 394 328 326 374 b 240 326 264 374 247 351 b 238 313 239 322 239 317 l 238 -265 m 292 1074 l 449 1304 l 485 1278 l 299 1068 "},"ê":{"ha":683,"x_min":0,"x_max":0,"o":"m 439 -265 b 671 -54 558 -265 658 -174 l 683 -56 l 661 -278 l 53 -278 l 53 -265 b 111 -207 85 -265 111 -239 l 111 801 b 94 843 111 818 106 833 b 53 861 83 854 69 861 l 53 874 l 658 874 l 679 651 l 667 650 b 435 861 656 769 554 861 l 238 861 l 238 350 b 338 414 239 351 269 414 b 436 378 365 414 397 404 b 528 343 472 353 503 343 b 607 383 581 343 607 383 l 615 376 b 485 300 615 376 569 300 b 394 328 458 300 428 307 b 293 374 394 328 326 374 b 240 326 264 374 247 351 b 238 313 239 322 239 317 l 238 -265 m 565 1076 l 557 1068 l 356 1246 l 154 1068 l 144 1076 l 356 1304 "},"ë":{"ha":683,"x_min":0,"x_max":0,"o":"m 439 -265 b 671 -54 558 -265 658 -174 l 683 -56 l 661 -278 l 53 -278 l 53 -265 b 111 -207 85 -265 111 -239 l 111 801 b 94 843 111 818 106 833 b 53 861 83 854 69 861 l 53 874 l 658 874 l 679 651 l 667 650 b 435 861 656 769 554 861 l 238 861 l 238 350 b 338 414 239 351 269 414 b 436 378 365 414 397 404 b 528 343 472 353 503 343 b 607 383 581 343 607 383 l 615 376 b 485 300 615 376 569 300 b 394 328 458 300 428 307 b 293 374 394 328 326 374 b 240 326 264 374 247 351 b 238 313 239 322 239 317 l 238 -265 m 254 1250 b 317 1186 289 1250 317 1222 b 254 1124 317 1151 289 1124 b 192 1186 219 1124 192 1151 b 254 1250 192 1222 219 1250 m 456 1250 b 518 1186 490 1250 518 1222 b 456 1124 518 1151 490 1124 b 393 1186 421 1124 393 1151 b 456 1250 393 1222 421 1250 "},"ì":{"ha":296,"x_min":0,"x_max":0,"o":"m 296 -278 l 53 -278 l 53 -265 b 111 -207 85 -265 111 -239 l 111 803 b 53 861 111 835 85 861 l 53 874 l 296 874 l 296 861 b 238 803 264 861 238 835 l 238 -207 b 296 -265 238 -239 264 -265 m 47 1278 l 82 1304 l 239 1074 l 232 1068 "},"í":{"ha":296,"x_min":0,"x_max":0,"o":"m 296 -278 l 53 -278 l 53 -265 b 111 -207 85 -265 111 -239 l 111 803 b 53 861 111 835 85 861 l 53 874 l 296 874 l 296 861 b 238 803 264 861 238 835 l 238 -207 b 296 -265 238 -239 264 -265 m 111 1074 l 268 1304 l 304 1278 l 118 1068 "},"î":{"ha":296,"x_min":0,"x_max":0,"o":"m 296 -278 l 53 -278 l 53 -265 b 111 -207 85 -265 111 -239 l 111 803 b 53 861 111 835 85 861 l 53 874 l 296 874 l 296 861 b 238 803 264 861 238 835 l 238 -207 b 296 -265 238 -239 264 -265 m 385 1076 l 376 1068 l 175 1246 l -26 1068 l -36 1076 l 175 1304 "},"ï":{"ha":296,"x_min":0,"x_max":0,"o":"m 296 -278 l 53 -278 l 53 -265 b 111 -207 85 -265 111 -239 l 111 803 b 53 861 111 835 85 861 l 53 874 l 296 874 l 296 861 b 238 803 264 861 238 835 l 238 -207 b 296 -265 238 -239 264 -265 m 74 1250 b 136 1186 108 1250 136 1222 b 74 1124 136 1151 108 1124 b 11 1186 39 1124 11 1151 b 74 1250 11 1222 39 1250 m 275 1250 b 338 1186 310 1250 338 1222 b 275 1124 338 1151 310 1124 b 213 1186 240 1124 213 1151 b 275 1250 213 1222 240 1250 "},"ð":{"ha":807,"x_min":0,"x_max":0,"o":"m 239 -265 l 321 -265 b 426 -247 351 -265 386 -260 b 542 -168 467 -236 504 -210 b 635 21 579 -128 610 -64 b 672 372 660 106 672 224 b 665 501 672 404 669 447 b 639 667 661 556 651 611 b 582 807 626 721 607 768 b 479 865 556 846 522 865 b 388 835 446 865 415 856 b 319 760 360 814 338 789 b 268 649 301 732 283 694 b 239 461 249 588 239 525 l 239 308 l 318 308 l 318 296 l 239 296 m 113 803 b 96 844 113 818 107 832 b 53 861 83 856 69 861 l 53 874 l 239 874 l 239 603 b 282 724 247 640 261 681 b 361 835 301 767 328 803 b 479 882 393 867 433 882 b 718 738 579 882 658 833 b 807 317 778 642 807 501 b 799 206 807 290 804 254 b 765 51 793 157 782 106 b 690 -106 749 -4 724 -57 b 556 -229 656 -156 611 -197 b 347 -278 500 -261 431 -278 l 54 -278 l 54 -265 b 96 -247 69 -265 83 -260 b 113 -207 107 -236 113 -222 l 113 296 l -71 296 l -71 308 l 113 308 "},"ñ":{"ha":729,"x_min":0,"x_max":0,"o":"m 600 874 l 729 874 l 729 861 b 671 803 696 861 671 835 l 671 -207 b 675 -229 671 -215 672 -222 l 675 -231 b 729 -265 685 -251 704 -265 l 729 -278 l 558 -278 l 124 782 l 124 -207 b 182 -265 124 -239 150 -265 l 182 -278 l 53 -278 l 53 -265 b 111 -207 85 -265 111 -239 l 111 803 b 108 819 111 808 110 814 l 104 829 b 53 861 94 847 75 861 l 53 874 l 222 874 l 658 -187 l 658 803 b 600 861 658 835 632 861 m 188 1178 b 201 1192 188 1178 192 1183 b 244 1222 210 1201 225 1213 b 308 1236 263 1231 283 1236 l 321 1236 b 365 1226 336 1235 350 1232 b 404 1204 379 1221 392 1213 b 421 1192 410 1200 417 1196 b 438 1182 426 1189 432 1185 b 471 1165 447 1175 458 1169 b 500 1161 481 1163 490 1161 b 533 1167 513 1161 524 1163 b 572 1193 551 1174 564 1185 b 581 1203 576 1197 579 1200 b 583 1207 583 1206 583 1207 l 593 1201 b 590 1196 593 1201 593 1200 b 582 1183 589 1193 586 1189 b 542 1149 575 1174 563 1160 b 506 1138 531 1143 519 1139 b 490 1136 500 1136 494 1136 b 464 1139 481 1136 472 1138 b 421 1151 449 1142 435 1146 b 401 1163 414 1156 408 1158 b 383 1175 394 1167 389 1171 b 351 1196 372 1182 361 1189 b 317 1208 340 1201 328 1206 b 290 1211 308 1211 300 1211 b 251 1206 276 1211 264 1208 b 210 1182 233 1199 218 1189 b 194 1171 200 1175 194 1171 l 188 1178 "},"ò":{"ha":1232,"x_min":0,"x_max":0,"o":"m 643 881 b 1232 297 968 881 1232 619 b 643 -285 1232 -24 968 -285 b 53 297 317 -285 53 -24 b 643 881 53 619 317 881 m 643 -272 b 1106 297 899 -272 1106 -17 b 643 868 1106 613 899 868 b 179 297 386 868 179 613 b 643 -272 179 -17 386 -272 m 515 1278 l 550 1304 l 707 1074 l 700 1068 "},"ó":{"ha":1232,"x_min":0,"x_max":0,"o":"m 643 881 b 1232 297 968 881 1232 619 b 643 -285 1232 -24 968 -285 b 53 297 317 -285 53 -24 b 643 881 53 619 317 881 m 643 -272 b 1106 297 899 -272 1106 -17 b 643 868 1106 613 899 868 b 179 297 386 868 179 613 b 643 -272 179 -17 386 -272 m 579 1074 l 736 1304 l 772 1278 l 586 1068 "},"ô":{"ha":1232,"x_min":0,"x_max":0,"o":"m 643 881 b 1232 297 968 881 1232 619 b 643 -285 1232 -24 968 -285 b 53 297 317 -285 53 -24 b 643 881 53 619 317 881 m 643 -272 b 1106 297 899 -272 1106 -17 b 643 868 1106 613 899 868 b 179 297 386 868 179 613 b 643 -272 179 -17 386 -272 m 853 1076 l 844 1068 l 643 1246 l 442 1068 l 432 1076 l 643 1304 "},"õ":{"ha":1232,"x_min":0,"x_max":0,"o":"m 643 881 b 1232 297 968 881 1232 619 b 643 -285 1232 -24 968 -285 b 53 297 317 -285 53 -24 b 643 881 53 619 317 881 m 643 -272 b 1106 297 899 -272 1106 -17 b 643 868 1106 613 899 868 b 179 297 386 868 179 613 b 643 -272 179 -17 386 -272 m 440 1178 b 454 1192 440 1178 444 1183 b 497 1222 463 1201 478 1213 b 561 1236 515 1231 536 1236 l 574 1236 b 618 1226 589 1235 603 1232 b 657 1204 632 1221 644 1213 b 674 1192 663 1200 669 1196 b 690 1182 679 1189 685 1185 b 724 1165 700 1175 711 1169 b 753 1161 733 1163 743 1161 b 786 1167 765 1161 776 1163 b 825 1193 804 1174 817 1185 b 833 1203 829 1197 832 1200 b 836 1207 836 1206 836 1207 l 846 1201 b 843 1196 846 1201 846 1200 b 835 1183 842 1193 839 1189 b 794 1149 828 1174 815 1160 b 758 1138 783 1143 772 1139 b 743 1136 753 1136 747 1136 b 717 1139 733 1136 725 1138 b 674 1151 701 1142 688 1146 b 654 1163 667 1156 661 1158 b 636 1175 647 1167 642 1171 b 604 1196 625 1182 614 1189 b 569 1208 593 1201 581 1206 b 543 1211 561 1211 553 1211 b 504 1206 529 1211 517 1208 b 463 1182 486 1199 471 1189 b 447 1171 453 1175 447 1171 l 440 1178 "},"ö":{"ha":1232,"x_min":0,"x_max":0,"o":"m 643 881 b 1232 297 968 881 1232 619 b 643 -285 1232 -24 968 -285 b 53 297 317 -285 53 -24 b 643 881 53 619 317 881 m 643 -272 b 1106 297 899 -272 1106 -17 b 643 868 1106 613 899 868 b 179 297 386 868 179 613 b 643 -272 179 -17 386 -272 m 542 1250 b 604 1186 576 1250 604 1222 b 542 1124 604 1151 576 1124 b 479 1186 507 1124 479 1151 b 542 1250 479 1222 507 1250 m 743 1250 b 806 1186 778 1250 806 1222 b 743 1124 806 1151 778 1124 b 681 1186 708 1124 681 1151 b 743 1250 681 1222 708 1250 "},"÷":{"ha":443,"x_min":0,"x_max":0,"o":"m 53 303 l 443 303 l 443 290 l 53 290 m 249 103 b 311 40 283 103 311 75 b 249 -22 311 6 283 -22 b 185 40 213 -22 185 6 b 249 103 185 75 213 103 m 249 490 b 185 553 213 490 185 518 b 249 615 185 588 213 615 b 311 553 283 615 311 588 b 249 490 311 518 283 490 "},"ø":{"ha":1232,"x_min":0,"x_max":0,"o":"m 649 -279 b 876 -201 732 -278 807 -253 b 1043 4 946 -150 1001 -82 b 1106 290 1085 90 1106 186 b 1043 578 1106 396 1085 492 b 876 785 1001 664 946 733 b 649 861 807 835 732 860 l 649 -279 m 636 861 b 410 785 554 860 478 833 b 242 578 339 733 283 664 b 179 290 200 492 179 396 b 242 4 179 186 200 90 b 410 -201 283 -82 339 -150 b 636 -279 478 -251 554 -278 m 649 -437 l 636 -437 l 636 -292 b 346 -212 529 -290 433 -264 b 133 -1 257 -161 186 -90 b 53 290 79 86 53 183 b 133 585 53 397 79 496 b 346 796 186 672 257 743 b 636 874 433 846 529 872 l 636 1031 l 649 1031 l 649 874 b 940 796 754 872 851 847 b 1153 585 1029 743 1100 672 b 1232 290 1206 496 1232 397 b 1153 -1 1232 183 1206 86 b 940 -212 1100 -90 1029 -161 b 649 -292 851 -265 754 -290 "},"ù":{"ha":747,"x_min":0,"x_max":0,"o":"m 538 874 l 747 874 l 747 861 b 690 639 699 842 690 688 l 690 11 b 401 -285 690 -149 574 -285 b 113 11 242 -285 113 -149 l 113 801 b 53 861 113 835 86 861 l 53 874 l 297 874 l 297 861 b 239 801 264 861 239 835 l 239 17 b 439 -235 239 -89 285 -235 b 636 -135 578 -235 632 -140 b 678 11 663 -92 678 -42 l 678 250 b 538 861 678 703 647 831 m 272 1278 l 307 1304 l 464 1074 l 457 1068 "},"ú":{"ha":747,"x_min":0,"x_max":0,"o":"m 538 874 l 747 874 l 747 861 b 690 639 699 842 690 688 l 690 11 b 401 -285 690 -149 574 -285 b 113 11 242 -285 113 -149 l 113 801 b 53 861 113 835 86 861 l 53 874 l 297 874 l 297 861 b 239 801 264 861 239 835 l 239 17 b 439 -235 239 -89 285 -235 b 636 -135 578 -235 632 -140 b 678 11 663 -92 678 -42 l 678 250 b 538 861 678 703 647 831 m 336 1074 l 493 1304 l 529 1278 l 343 1068 "},"û":{"ha":747,"x_min":0,"x_max":0,"o":"m 538 874 l 747 874 l 747 861 b 690 639 699 842 690 688 l 690 11 b 401 -285 690 -149 574 -285 b 113 11 242 -285 113 -149 l 113 801 b 53 861 113 835 86 861 l 53 874 l 297 874 l 297 861 b 239 801 264 861 239 835 l 239 17 b 439 -235 239 -89 285 -235 b 636 -135 578 -235 632 -140 b 678 11 663 -92 678 -42 l 678 250 b 538 861 678 703 647 831 m 610 1076 l 601 1068 l 400 1246 l 199 1068 l 189 1076 l 400 1304 "},"ü":{"ha":747,"x_min":0,"x_max":0,"o":"m 538 874 l 747 874 l 747 861 b 690 639 699 842 690 688 l 690 11 b 401 -285 690 -149 574 -285 b 113 11 242 -285 113 -149 l 113 801 b 53 861 113 835 86 861 l 53 874 l 297 874 l 297 861 b 239 801 264 861 239 835 l 239 17 b 439 -235 239 -89 285 -235 b 636 -135 578 -235 632 -140 b 678 11 663 -92 678 -42 l 678 250 b 538 861 678 703 647 831 m 299 1250 b 361 1186 333 1250 361 1222 b 299 1124 361 1151 333 1124 b 236 1186 264 1124 236 1151 b 299 1250 236 1222 264 1250 m 500 1250 b 563 1186 535 1250 563 1222 b 500 1124 563 1151 535 1124 b 438 1186 465 1124 438 1151 b 500 1250 438 1222 465 1250 "},"ý":{"ha":761,"x_min":0,"x_max":0,"o":"m 557 874 l 761 874 l 761 861 b 715 832 749 860 732 849 b 649 729 686 803 664 767 l 514 414 b 471 199 485 346 471 272 l 471 -207 b 488 -249 471 -224 476 -237 b 529 -265 499 -258 513 -265 l 529 -278 l 285 -278 l 285 -265 b 344 -207 318 -265 344 -239 l 344 204 b 314 356 344 256 333 307 l 126 811 b 97 847 121 826 110 839 b 53 861 85 856 69 861 l 53 874 l 296 874 l 296 861 b 261 826 276 861 261 844 b 264 813 261 821 263 817 l 463 325 l 464 326 l 596 638 l 600 650 b 617 717 610 671 615 693 l 617 724 b 557 861 617 833 557 861 m 343 1074 l 500 1304 l 536 1278 l 350 1068 "},"þ":{"ha":733,"x_min":0,"x_max":0,"o":"m 500 403 b 578 485 526 417 553 444 b 614 629 601 525 614 574 b 596 772 614 692 608 739 b 547 842 583 806 567 829 b 483 861 526 854 506 861 b 390 832 450 861 419 851 b 319 760 361 813 338 789 b 268 649 301 732 283 694 b 239 461 249 588 239 525 l 239 299 b 308 351 257 324 279 342 b 378 368 336 361 360 367 b 383 369 379 368 382 368 b 444 383 401 372 422 376 b 500 403 465 389 485 396 m 239 874 l 239 603 b 279 721 247 640 261 679 b 357 829 297 763 324 799 b 485 874 390 858 433 874 b 622 840 543 874 589 863 b 696 761 656 818 681 792 b 726 674 711 731 722 701 b 733 614 731 644 733 625 b 724 553 733 600 731 579 b 681 468 717 525 703 497 b 581 392 658 439 625 413 b 400 356 535 371 475 358 l 399 356 b 365 353 394 356 383 354 b 307 338 347 351 328 346 b 251 296 286 328 267 314 b 239 256 243 283 239 269 l 239 -207 b 256 -249 239 -222 244 -236 b 297 -265 267 -260 281 -265 l 297 -278 l 53 -278 l 53 -265 b 96 -247 69 -265 83 -260 b 113 -207 107 -236 113 -222 l 111 983 b 94 1025 111 999 106 1013 b 53 1042 82 1036 68 1042 l 53 1054 l 296 1054 l 296 1042 b 256 1025 281 1042 267 1036 b 238 983 243 1013 238 999 l 238 874 "},"ÿ":{"ha":761,"x_min":0,"x_max":0,"o":"m 557 874 l 761 874 l 761 861 b 715 832 749 860 732 849 b 649 729 686 803 664 767 l 514 414 b 471 199 485 346 471 272 l 471 -207 b 488 -249 471 -224 476 -237 b 529 -265 499 -258 513 -265 l 529 -278 l 285 -278 l 285 -265 b 344 -207 318 -265 344 -239 l 344 204 b 314 356 344 256 333 307 l 126 811 b 97 847 121 826 110 839 b 53 861 85 856 69 861 l 53 874 l 296 874 l 296 861 b 261 826 276 861 261 844 b 264 813 261 821 263 817 l 463 325 l 464 326 l 596 638 l 600 650 b 617 717 610 671 615 693 l 617 724 b 557 861 617 833 557 861 m 306 1250 b 368 1186 340 1250 368 1222 b 306 1124 368 1151 340 1124 b 243 1186 271 1124 243 1151 b 306 1250 243 1222 271 1250 m 507 1250 b 569 1186 542 1250 569 1222 b 507 1124 569 1151 542 1124 b 444 1186 472 1124 444 1151 b 507 1250 444 1222 472 1250 "},"ı":{"ha":296,"x_min":0,"x_max":0,"o":"m 296 -278 l 53 -278 l 53 -265 b 111 -207 85 -265 111 -239 l 111 803 b 53 861 111 835 85 861 l 53 874 l 296 874 l 296 861 b 238 803 264 861 238 835 l 238 -207 b 296 -265 238 -239 264 -265 "},"̀":{"ha":296,"x_min":0,"x_max":0,"o":"m 53 1278 l 88 1304 l 244 1074 l 238 1068 "},"́":{"ha":296,"x_min":0,"x_max":0,"o":"m 53 1074 l 210 1304 l 246 1278 l 60 1068 "},"̂":{"ha":494,"x_min":0,"x_max":0,"o":"m 474 1076 l 465 1068 l 264 1246 l 63 1068 l 53 1076 l 264 1304 "},"̃":{"ha":458,"x_min":0,"x_max":0,"o":"m 53 1178 b 67 1192 53 1178 57 1183 b 110 1222 75 1201 90 1213 b 174 1236 128 1231 149 1236 l 186 1236 b 231 1226 201 1235 215 1232 b 269 1204 244 1221 257 1213 b 286 1192 275 1200 282 1196 b 303 1182 292 1189 297 1185 b 336 1165 313 1175 324 1169 b 365 1161 346 1163 356 1161 b 399 1167 378 1161 389 1163 b 438 1193 417 1174 429 1185 b 446 1203 442 1197 444 1200 b 449 1207 449 1206 449 1207 l 458 1201 b 456 1196 458 1201 458 1200 b 447 1183 454 1193 451 1189 b 407 1149 440 1174 428 1160 b 371 1138 396 1143 385 1139 b 356 1136 365 1136 360 1136 b 329 1139 346 1136 338 1138 b 286 1151 314 1142 300 1146 b 267 1163 279 1156 274 1158 b 249 1175 260 1167 254 1171 b 217 1196 238 1182 226 1189 b 182 1208 206 1201 193 1206 b 156 1211 174 1211 165 1211 b 117 1206 142 1211 129 1208 b 75 1182 99 1199 83 1189 b 60 1171 65 1175 60 1171 l 53 1178 "},"̄":{"ha":404,"x_min":0,"x_max":0,"o":"m 53 1193 l 404 1193 l 404 1179 l 53 1179 "},"̇":{"ha":178,"x_min":0,"x_max":0,"o":"m 115 1250 b 178 1186 150 1250 178 1222 b 115 1124 178 1151 150 1124 b 53 1186 81 1124 53 1151 b 115 1250 53 1222 81 1250 "},"̈":{"ha":379,"x_min":0,"x_max":0,"o":"m 115 1250 b 178 1186 150 1250 178 1222 b 115 1124 178 1151 150 1124 b 53 1186 81 1124 53 1151 b 115 1250 53 1222 81 1250 m 317 1250 b 379 1186 351 1250 379 1222 b 317 1124 379 1151 351 1124 b 254 1186 282 1124 254 1151 b 317 1250 254 1222 282 1250 "},"̊":{"ha":290,"x_min":0,"x_max":0,"o":"m 171 1296 b 101 1264 140 1296 117 1286 b 78 1185 85 1242 78 1215 b 101 1107 78 1154 85 1128 b 171 1075 117 1085 140 1075 b 240 1107 201 1075 225 1085 b 265 1185 257 1128 265 1154 b 240 1264 265 1215 257 1242 b 171 1296 225 1286 201 1296 m 171 1067 b 88 1101 139 1067 111 1078 b 53 1185 64 1124 53 1153 b 88 1269 53 1218 64 1246 b 171 1304 111 1293 139 1304 b 256 1269 204 1304 232 1293 b 290 1185 279 1246 290 1218 b 256 1101 290 1153 279 1124 b 171 1067 232 1078 204 1067 "},"̌":{"ha":494,"x_min":0,"x_max":0,"o":"m 53 1296 l 63 1304 l 263 1125 l 464 1304 l 472 1296 l 263 1068 "},"̧":{"ha":531,"x_min":0,"x_max":0,"o":"m 297 -264 b 531 -437 426 -267 531 -344 b 290 -612 531 -533 424 -612 b 53 -460 168 -612 67 -544 l 93 -440 b 290 -599 106 -522 172 -599 b 483 -437 417 -599 483 -526 b 297 -278 483 -351 419 -279 b 290 -276 294 -276 293 -276 b 285 -278 289 -276 286 -276 l 285 51 l 297 51 "},"–":{"ha":443,"x_min":0,"x_max":0,"o":"m 53 303 l 443 303 l 443 290 l 53 290 "},"—":{"ha":668,"x_min":0,"x_max":0,"o":"m 53 303 l 668 303 l 668 290 l 53 290 "},"‘":{"ha":185,"x_min":0,"x_max":0,"o":"m 58 743 b 149 874 58 758 63 833 b 122 803 149 874 125 842 b 185 740 157 803 185 775 b 121 676 185 706 156 676 b 58 740 86 676 58 706 "},"’":{"ha":185,"x_min":0,"x_max":0,"o":"m 179 807 b 89 676 179 792 175 717 b 115 747 89 676 113 708 b 53 810 81 747 53 775 b 115 874 53 846 81 874 b 179 810 150 874 179 846 "},"‚":{"ha":185,"x_min":0,"x_max":0,"o":"m 179 -218 b 89 -349 179 -233 175 -308 b 115 -278 89 -349 113 -317 b 53 -215 81 -278 53 -250 b 117 -151 53 -179 82 -151 b 179 -215 151 -151 179 -179 "},"“":{"ha":326,"x_min":0,"x_max":0,"o":"m 58 743 b 149 874 58 758 63 833 b 122 803 149 874 125 842 b 185 740 157 803 185 775 b 121 676 185 706 156 676 b 58 740 86 676 58 706 m 200 743 b 290 874 200 758 204 833 b 264 803 290 874 267 842 b 326 740 299 803 326 775 b 264 676 326 706 299 676 b 200 740 229 676 200 706 "},"”":{"ha":326,"x_min":0,"x_max":0,"o":"m 321 807 b 231 676 321 792 317 717 b 257 747 231 676 254 708 b 194 810 222 747 194 775 b 258 874 194 846 224 874 b 321 810 293 874 321 846 m 179 807 b 89 676 179 792 175 717 b 115 747 89 676 113 708 b 53 810 81 747 53 775 b 115 874 53 846 81 874 b 179 810 150 874 179 846 "},"„":{"ha":326,"x_min":0,"x_max":0,"o":"m 179 -218 b 89 -349 179 -233 175 -308 b 115 -278 89 -349 113 -317 b 53 -215 81 -278 53 -250 b 115 -151 53 -179 81 -151 b 179 -215 150 -151 179 -179 m 321 -218 b 231 -349 321 -233 317 -308 b 257 -278 231 -349 254 -317 b 194 -215 222 -278 194 -250 b 258 -151 194 -179 224 -151 b 321 -215 293 -151 321 -179 "},"†":{"ha":671,"x_min":0,"x_max":0,"o":"m 363 760 b 428 694 399 760 428 731 b 363 450 428 658 363 450 b 297 694 363 450 297 658 b 363 760 297 731 326 760 m 53 450 b 118 515 53 486 82 515 b 363 450 154 515 363 450 b 118 385 363 450 154 385 b 53 450 82 385 53 414 m 297 -74 b 363 444 297 -39 363 444 b 428 -74 363 444 428 -39 b 363 -139 428 -110 399 -139 b 297 -74 326 -139 297 -110 m 606 515 b 671 450 642 515 671 486 b 606 385 671 414 642 385 b 363 450 569 385 363 450 b 606 515 363 450 569 515 "},"‡":{"ha":672,"x_min":0,"x_max":0,"o":"m 393 190 b 469 213 414 197 440 204 b 553 235 499 221 526 228 b 606 244 579 242 596 244 b 651 226 624 244 639 239 b 671 179 664 214 671 197 b 651 133 671 161 664 146 b 606 114 639 121 624 114 b 553 125 596 114 579 118 b 469 147 526 132 499 139 b 393 169 440 156 414 163 b 389 171 392 169 390 171 b 371 176 381 174 375 175 l 374 165 b 397 90 381 144 388 119 b 419 7 406 61 413 33 b 429 -46 426 -19 429 -37 b 410 -92 429 -64 422 -79 b 364 -111 397 -104 382 -111 b 318 -92 346 -111 331 -104 b 299 -46 306 -79 299 -64 b 308 7 299 -37 301 -19 b 332 90 315 33 322 61 b 350 153 340 119 346 140 b 358 178 354 167 357 175 l 333 169 b 257 147 311 163 286 156 b 174 125 228 139 200 132 b 121 114 147 118 131 114 b 75 133 103 114 88 121 b 56 179 63 146 56 161 b 75 226 56 197 63 214 b 121 244 88 239 103 244 b 174 235 131 244 147 242 b 257 213 200 228 228 221 b 332 190 286 204 311 197 b 356 183 342 188 350 185 l 354 185 b 332 221 347 194 340 206 b 308 267 322 235 315 250 b 299 311 301 282 299 297 b 308 357 299 325 301 340 b 332 401 315 372 322 388 b 356 436 340 415 349 426 b 332 429 350 435 342 432 b 257 407 311 422 286 415 b 174 385 228 399 200 392 b 121 375 147 378 131 375 b 75 394 103 375 88 382 b 56 440 63 407 56 422 b 75 486 56 458 63 474 b 121 506 88 499 103 506 b 174 496 131 506 147 503 b 257 472 200 489 228 481 b 332 450 286 464 311 457 b 360 442 344 446 354 443 b 354 460 358 446 357 453 b 332 536 347 481 340 507 b 308 619 322 565 315 593 b 299 672 301 646 299 663 b 318 718 299 690 306 706 b 364 738 331 731 346 738 b 410 718 382 738 397 731 b 429 672 422 706 429 690 b 419 619 429 663 426 646 b 397 536 413 593 406 565 b 374 460 388 507 381 481 l 374 458 b 368 443 371 451 369 447 b 392 450 374 444 382 447 b 468 474 413 457 439 464 b 551 496 497 482 525 489 b 604 506 578 503 594 506 b 650 486 622 506 638 499 b 669 440 663 474 669 458 b 650 394 669 422 663 407 b 604 375 638 382 622 375 b 551 385 594 375 578 378 b 468 408 525 392 497 399 b 392 431 439 417 413 424 l 390 431 b 374 436 383 433 378 435 b 397 401 381 426 388 415 b 419 356 406 386 413 371 b 429 308 426 339 429 324 b 419 265 429 296 426 281 b 397 219 413 249 406 233 b 374 185 388 204 381 193 l 372 183 "},"•":{"ha":456,"x_min":0,"x_max":0,"o":"m 254 286 b 111 344 197 286 150 306 b 53 488 72 383 53 432 b 113 629 53 543 74 590 b 254 688 151 668 199 688 b 396 628 310 688 357 668 b 456 488 435 589 456 542 b 396 344 456 432 435 385 b 254 286 356 306 308 286 "},"…":{"ha":1103,"x_min":0,"x_max":0,"o":"m 115 -151 b 178 -215 150 -151 178 -179 b 115 -278 178 -250 150 -278 b 53 -215 81 -278 53 -250 b 115 -151 53 -179 81 -151 m 578 -151 b 640 -215 613 -151 640 -179 b 578 -278 640 -250 613 -278 b 515 -215 543 -278 515 -250 b 578 -151 515 -179 543 -151 m 1040 -151 b 1103 -215 1075 -151 1103 -179 b 1040 -278 1103 -250 1075 -278 b 978 -215 1006 -278 978 -250 b 1040 -151 978 -179 1006 -151 "},"‹":{"ha":206,"x_min":0,"x_max":0,"o":"m 53 297 l 196 439 l 206 431 l 72 297 l 206 164 l 196 154 "},"›":{"ha":206,"x_min":0,"x_max":0,"o":"m 63 154 l 53 164 l 186 297 l 53 431 l 63 439 l 206 297 "},"⁄":{"ha":508,"x_min":0,"x_max":0,"o":"m 67 -278 l 53 -278 l 496 874 l 508 874 "},"₣":{"ha":703,"x_min":0,"x_max":0,"o":"m 690 650 b 458 861 678 769 578 861 l 257 861 l 257 300 l 443 300 l 443 288 l 257 288 l 257 -76 b 446 -265 257 -181 342 -265 b 678 -54 565 -265 667 -174 l 690 -56 l 669 -278 l 381 -278 b 131 -28 243 -278 131 -165 l 131 288 l 53 288 l 53 300 l 131 300 l 131 803 b 72 861 131 835 104 861 l 72 874 l 681 874 l 703 651 l 690 650 "},"₤":{"ha":701,"x_min":0,"x_max":0,"o":"m 701 -56 l 681 -278 l 71 -278 l 71 -265 b 131 -207 104 -265 131 -239 l 131 201 l 53 201 l 53 214 l 131 214 l 131 296 l 53 296 l 53 308 l 131 308 l 131 622 b 381 874 131 761 242 874 l 668 874 l 690 651 l 678 650 b 444 861 665 769 565 861 b 257 672 340 861 257 776 l 257 308 l 443 308 l 443 296 l 257 296 l 257 214 l 443 214 l 443 201 l 257 201 l 257 -265 l 457 -265 b 689 -54 576 -265 678 -174 "},"₧":{"ha":2007,"x_min":0,"x_max":0,"o":"m 442 874 b 665 614 650 874 665 660 b 365 356 665 560 638 364 l 364 356 b 232 296 351 356 274 353 b 221 256 225 285 221 269 l 221 -207 b 236 -249 221 -222 225 -237 b 274 -265 246 -258 258 -265 l 274 -278 l 53 -278 l 53 -265 b 107 -207 83 -265 107 -239 l 107 803 b 53 861 107 835 83 861 l 53 874 l 221 874 l 221 603 b 442 874 243 711 300 874 m 456 403 b 558 629 501 429 558 518 b 440 861 558 815 501 861 b 293 760 381 861 324 817 b 246 649 276 731 261 697 b 219 461 228 589 219 525 l 219 299 b 350 369 250 353 324 364 b 456 403 383 375 429 388 m 1278 874 l 1300 651 l 1288 650 b 1054 861 1275 769 1175 861 l 1044 861 l 1044 -207 b 1061 -249 1044 -224 1051 -237 b 1103 -265 1072 -258 1088 -265 l 1103 -278 l 860 -278 l 860 -265 b 918 -207 892 -265 918 -239 l 918 861 l 908 861 b 676 650 789 861 688 769 l 664 651 l 686 874 m 1864 290 b 2004 47 1967 213 2004 129 b 1974 -90 2004 0 1992 -46 b 1624 -292 1929 -197 1792 -292 b 1300 -29 1383 -292 1300 -143 b 1306 18 1300 -12 1301 3 b 1485 174 1333 135 1439 157 b 1519 208 1510 183 1519 196 b 1479 260 1519 233 1479 260 l 1494 275 b 1550 192 1515 260 1550 232 b 1547 171 1550 185 1549 178 b 1418 -14 1532 110 1443 94 b 1413 -61 1414 -29 1413 -44 b 1638 -279 1413 -168 1489 -279 b 1894 -18 1796 -279 1894 -144 b 1815 150 1894 46 1869 108 b 1776 178 1803 160 1790 169 l 1446 432 b 1304 653 1346 506 1304 583 b 1596 872 1304 771 1428 864 b 1617 874 1603 874 1610 874 l 1890 874 l 1915 651 l 1900 650 b 1632 861 1888 769 1765 861 l 1614 861 b 1422 706 1493 860 1422 788 b 1490 569 1422 660 1443 611 b 1864 290 1497 563 1864 290 "},"€":{"ha":1031,"x_min":0,"x_max":0,"o":"m 1022 646 b 771 372 1006 531 804 464 b 764 329 765 357 764 343 b 819 221 764 263 819 221 l 811 208 b 738 344 778 231 738 278 b 857 561 738 404 768 476 b 940 715 919 619 940 672 b 922 782 940 740 933 763 b 790 865 894 831 844 860 b 744 868 776 868 761 868 b 283 344 501 868 303 638 l 442 344 l 442 332 l 282 332 l 282 299 b 283 250 282 282 282 267 l 442 250 l 442 238 l 285 238 b 744 -267 310 -47 506 -260 l 753 -267 b 988 -181 838 -267 924 -226 l 996 -190 b 744 -283 926 -242 833 -283 b 158 238 440 -283 189 -56 l 53 238 l 53 250 l 157 250 b 156 299 157 267 156 282 b 157 332 156 310 156 321 l 53 332 l 53 344 l 157 344 b 744 881 181 644 435 881 b 825 876 772 881 799 879 b 931 840 863 871 899 860 b 999 775 954 826 981 806 b 1025 682 1015 749 1025 718 b 1022 646 1025 669 1024 658 "},"№":{"ha":1835,"x_min":0,"x_max":0,"o":"m 600 874 l 729 874 l 729 861 b 671 803 696 861 671 835 l 671 -207 b 675 -229 671 -215 672 -222 l 675 -231 b 729 -265 685 -251 704 -265 l 729 -278 l 558 -278 l 124 782 l 124 -207 b 182 -265 124 -239 150 -265 l 182 -278 l 53 -278 l 53 -265 b 111 -207 85 -265 111 -239 l 111 803 b 108 819 111 808 110 814 l 104 829 b 53 861 94 847 75 861 l 53 874 l 222 874 l 658 -187 l 658 803 b 600 861 658 835 632 861 m 1299 -172 b 1511 -101 1376 -172 1447 -149 b 1664 86 1575 -56 1626 8 b 1721 347 1703 165 1721 253 b 1664 610 1721 444 1703 532 b 1511 799 1626 689 1575 751 b 1299 869 1447 846 1376 869 b 1086 799 1221 869 1150 846 b 932 610 1021 751 971 689 b 875 347 894 532 875 444 b 932 86 875 253 894 165 b 1086 -101 971 8 1021 -56 b 1299 -172 1150 -149 1221 -172 m 1299 881 b 1569 808 1397 881 1488 857 b 1764 617 1651 761 1717 697 b 1836 347 1813 535 1836 446 b 1764 81 1836 250 1813 161 b 1569 -112 1717 0 1651 -64 b 1299 -183 1488 -160 1397 -183 b 1028 -112 1199 -183 1108 -160 b 833 81 946 -64 882 0 b 760 347 785 161 760 250 b 833 617 760 446 785 535 b 1028 808 882 697 946 761 b 1299 881 1108 857 1199 881 m 969 -267 l 1626 -267 l 1626 -278 l 969 -278 "},"™":{"ha":618,"x_min":0,"x_max":0,"o":"m 618 540 b 572 510 618 540 613 510 b 538 560 547 510 538 528 b 556 657 538 585 544 618 b 571 763 565 690 571 728 b 521 868 571 819 556 868 b 468 840 501 868 482 860 b 443 782 456 822 449 807 b 440 738 442 771 440 756 b 444 672 440 719 442 697 b 461 624 447 656 453 639 l 461 622 l 438 585 l 300 846 l 300 706 b 353 514 300 564 329 518 l 353 510 l 278 510 l 278 514 b 297 583 293 521 297 568 l 297 849 b 292 863 297 854 294 858 b 278 867 288 865 283 867 l 278 871 l 332 871 l 443 657 b 436 736 439 676 436 707 b 444 804 436 761 438 785 b 521 874 461 854 492 874 b 606 721 576 874 606 800 b 603 678 606 707 604 692 b 578 546 594 608 578 568 b 585 529 578 539 581 533 b 596 525 589 526 592 525 b 615 542 607 525 615 542 m 261 871 b 264 856 261 871 264 864 b 250 821 264 846 261 832 b 228 813 244 815 236 813 b 182 826 214 813 196 818 b 103 868 163 838 139 868 b 81 864 96 868 89 867 b 57 843 81 864 57 857 b 90 821 57 829 71 821 l 99 821 b 139 826 108 822 124 826 l 146 826 b 178 799 164 826 178 821 l 178 533 b 183 519 178 528 181 524 b 196 514 188 517 192 514 l 196 510 l 121 510 l 121 514 b 139 533 131 514 139 522 l 139 808 b 122 821 139 808 138 821 b 113 819 119 821 117 821 b 90 817 106 818 97 817 b 53 842 71 817 53 824 b 107 872 53 867 99 872 l 118 872 b 203 849 143 872 171 868 b 239 839 215 842 229 839 b 249 840 243 839 246 839 b 260 857 257 844 260 851 b 257 869 260 864 257 869 "},"−":{"ha":443,"x_min":0,"x_max":0,"o":"m 53 303 l 443 303 l 443 290 l 53 290 "},"≈":{"ha":458,"x_min":0,"x_max":0,"o":"m 64 304 b 78 318 64 304 68 310 b 121 349 86 328 101 339 b 185 363 139 357 160 363 l 197 363 b 242 353 213 361 226 358 b 281 331 256 347 268 339 b 297 318 286 326 293 322 b 314 308 303 315 308 311 b 347 292 324 301 335 296 b 376 288 357 289 367 288 b 410 293 389 288 400 289 b 449 319 428 300 440 311 b 457 329 453 324 456 326 b 460 333 460 332 460 333 l 469 328 b 467 322 469 328 469 326 b 458 310 465 319 463 315 b 418 275 451 300 439 286 b 382 264 407 269 396 265 b 367 263 376 263 371 263 b 340 265 357 263 349 264 b 297 278 325 268 311 272 b 278 289 290 282 285 285 b 260 301 271 293 265 297 b 228 322 249 308 238 315 b 193 335 217 328 204 332 b 167 338 185 338 176 338 b 128 332 153 338 140 335 b 86 308 110 325 94 315 b 71 297 76 301 71 297 l 64 304 m 64 396 b 78 410 64 396 68 401 b 121 440 86 419 101 431 b 185 454 139 449 160 454 l 197 454 b 242 444 213 453 226 450 b 281 422 256 439 268 431 b 297 410 286 418 293 414 b 314 400 303 407 308 403 b 347 383 324 393 335 388 b 376 379 357 381 367 379 b 410 385 389 379 400 381 b 449 411 428 392 440 403 b 457 421 453 415 456 418 b 460 425 460 424 460 425 l 469 419 b 467 414 469 419 469 418 b 458 401 465 411 463 407 b 418 367 451 392 439 378 b 382 356 407 361 396 357 b 367 354 376 354 371 354 b 340 357 357 354 349 356 b 297 369 325 360 311 364 b 278 381 290 374 285 376 b 260 393 271 385 265 389 b 228 414 249 400 238 407 b 193 426 217 419 204 424 b 167 429 185 429 176 429 b 128 424 153 429 140 426 b 86 400 110 417 94 407 b 71 389 76 393 71 389 l 64 396 "},"≤":{"ha":206,"x_min":0,"x_max":0,"o":"m 53 297 l 197 439 l 207 431 l 74 297 l 207 164 l 197 154 l 64 288 m 57 96 l 203 96 l 203 83 l 57 83 "},"≥":{"ha":206,"x_min":0,"x_max":0,"o":"m 63 154 l 53 164 l 186 297 l 53 431 l 63 439 l 207 297 l 196 288 m 57 83 l 57 96 l 203 96 l 203 83 "},"ﬁ":{"ha":975,"x_min":0,"x_max":0,"o":"m 657 874 l 679 651 l 667 650 b 435 861 656 769 554 861 l 238 861 l 238 350 b 338 414 239 351 269 414 b 436 378 365 414 397 404 b 528 343 472 353 503 343 b 606 383 579 343 606 383 l 615 376 b 485 300 615 376 569 300 b 394 328 458 300 428 307 b 293 374 394 328 326 374 b 240 326 264 374 247 351 b 238 313 239 322 238 317 l 238 -208 b 254 -249 238 -224 244 -237 b 296 -265 265 -258 281 -265 l 296 -278 l 53 -278 l 53 -265 b 111 -207 85 -265 111 -239 l 111 801 b 94 843 111 818 104 833 b 53 861 83 854 68 861 l 53 874 m 975 -278 l 732 -278 l 732 -265 b 790 -207 764 -265 790 -239 l 790 803 b 732 861 790 835 764 861 l 732 874 l 975 874 l 975 861 b 917 803 943 861 917 835 l 917 -207 b 975 -265 917 -239 943 -265 "},"ﬂ":{"ha":1272,"x_min":0,"x_max":0,"o":"m 657 874 l 679 651 l 667 650 b 435 861 656 769 554 861 l 238 861 l 238 350 b 338 414 239 351 269 414 b 436 378 365 414 397 404 b 528 343 472 353 503 343 b 606 383 579 343 606 383 l 615 376 b 485 300 615 376 569 300 b 394 328 458 300 428 307 b 293 374 394 328 326 374 b 240 326 264 374 247 351 b 238 313 239 322 238 317 l 238 -208 b 254 -249 238 -224 244 -237 b 296 -265 265 -258 281 -265 l 296 -278 l 53 -278 l 53 -265 b 111 -207 85 -265 111 -239 l 111 801 b 94 843 111 818 104 833 b 53 861 83 854 68 861 l 53 874 m 1028 -265 b 1260 -54 1147 -265 1249 -175 l 1272 -56 l 1250 -278 l 732 -278 l 732 -265 b 774 -249 749 -265 763 -258 b 790 -207 785 -237 790 -224 l 790 801 b 732 861 790 835 765 861 l 732 874 l 976 874 l 976 861 b 935 843 960 861 944 854 b 917 803 924 833 918 819 l 917 -265 "},"Œ":{"ha":1571,"x_min":0,"x_max":0,"o":"m 638 -272 b 640 -271 638 -272 639 -272 b 656 -269 644 -271 649 -271 b 706 -254 669 -268 686 -262 b 763 -214 725 -247 744 -233 b 817 -129 785 -193 803 -164 b 825 -103 819 -121 822 -112 b 835 -29 832 -76 835 -51 b 811 74 835 10 826 44 b 746 157 794 103 772 131 b 656 238 719 183 689 210 b 507 375 607 276 558 322 b 433 492 471 415 446 454 b 413 596 419 529 413 564 b 424 672 413 625 417 650 b 443 724 431 693 436 711 b 450 736 446 729 449 733 b 451 740 451 738 451 739 l 453 740 l 453 742 b 514 815 469 772 490 797 b 610 863 547 839 579 856 l 626 867 b 307 692 499 858 392 800 b 179 297 222 583 179 451 b 311 -99 179 142 224 10 b 635 -272 399 -208 506 -265 m 1003 656 b 757 850 939 753 857 818 b 686 861 733 857 710 861 b 614 850 663 861 638 857 b 568 831 604 847 589 840 b 517 794 547 821 529 808 b 475 724 496 769 482 746 b 464 663 468 700 464 681 b 471 611 464 642 467 625 b 482 582 475 597 479 588 b 483 581 483 582 483 582 b 519 526 493 561 504 543 b 567 475 535 508 550 492 b 672 382 600 443 635 413 l 678 376 b 788 267 717 344 753 307 b 839 196 806 246 822 222 b 874 114 856 168 867 140 b 885 17 881 79 885 46 b 864 -106 885 -32 878 -74 b 817 -182 849 -137 833 -164 b 778 -222 800 -201 788 -215 b 774 -225 776 -224 775 -224 b 722 -262 747 -249 729 -261 b 718 -265 721 -264 719 -264 b 997 -71 831 -240 924 -175 b 1008 -53 1001 -65 1006 -60 b 1003 8 1004 -33 1003 -12 l 1003 656 m 1040 -133 b 940 -206 1010 -161 976 -185 b 643 -285 850 -258 751 -285 b 346 -206 533 -285 435 -258 b 133 4 257 -154 186 -83 b 53 297 79 92 53 190 b 133 590 53 404 79 503 b 346 801 186 678 257 749 b 643 881 435 854 533 881 b 711 876 667 881 689 879 l 761 868 b 1003 758 853 849 933 811 l 1003 803 b 986 843 1003 818 997 832 b 944 861 974 856 960 861 l 944 874 l 1549 874 l 1571 651 l 1558 650 b 1483 801 1551 711 1526 761 b 1326 861 1439 842 1386 861 l 1129 861 l 1129 628 b 1221 415 1175 563 1206 492 l 1229 415 b 1328 378 1256 415 1289 403 b 1418 343 1364 354 1394 343 b 1454 350 1432 343 1444 346 b 1478 364 1464 354 1471 358 b 1493 378 1485 368 1489 374 l 1496 381 b 1497 382 1496 382 1496 382 l 1497 383 l 1507 376 l 1506 375 b 1504 372 1506 374 1504 374 b 1499 365 1503 369 1501 368 b 1474 339 1493 357 1485 349 b 1433 313 1463 329 1449 319 b 1376 300 1417 304 1397 300 b 1286 328 1350 300 1319 310 b 1285 329 1285 328 1285 329 b 1282 331 1283 329 1283 329 b 1275 335 1281 332 1278 333 b 1249 351 1268 339 1258 344 b 1229 361 1242 354 1235 357 b 1232 297 1231 340 1232 318 b 1153 4 1232 190 1206 92 b 1129 -32 1146 -8 1138 -21 l 1129 -68 b 1188 -207 1129 -122 1149 -168 b 1326 -265 1226 -246 1272 -265 l 1329 -265 b 1486 -206 1389 -265 1442 -246 b 1563 -54 1529 -165 1556 -115 l 1575 -56 l 1553 -278 l 1289 -278 b 1088 -193 1210 -278 1143 -250 b 1040 -133 1068 -175 1053 -154 "},"œ":{"ha":1744,"x_min":0,"x_max":0,"o":"m 643 -272 b 876 -194 728 -272 806 -246 b 1043 11 946 -143 1001 -75 b 1106 297 1085 97 1106 193 b 1043 585 1106 403 1085 499 b 876 792 1001 671 946 740 b 643 868 806 843 728 868 b 410 792 558 868 481 843 b 242 585 339 740 283 671 b 179 297 200 499 179 403 b 242 11 179 193 200 97 b 410 -194 283 -75 339 -143 b 643 -272 481 -246 558 -272 m 1172 40 b 1153 6 1167 28 1160 17 b 940 -206 1100 -83 1029 -154 b 643 -285 850 -258 751 -285 b 346 -206 533 -285 435 -258 b 133 6 257 -154 186 -83 b 53 297 79 93 53 190 b 133 592 53 404 79 503 b 346 803 186 679 257 750 b 643 881 435 854 533 881 b 940 803 751 881 850 854 b 1153 592 1029 750 1100 679 l 1172 556 l 1172 801 b 1156 843 1172 818 1167 832 b 1114 861 1144 856 1131 861 l 1114 874 l 1719 874 l 1740 651 l 1728 650 b 1653 801 1721 711 1696 761 b 1496 861 1608 842 1556 861 l 1299 861 l 1299 350 l 1300 351 b 1314 372 1301 356 1307 363 b 1347 400 1321 382 1332 390 b 1400 414 1361 410 1379 414 b 1497 378 1426 414 1460 401 b 1589 343 1533 354 1564 343 b 1624 350 1601 343 1614 346 b 1649 364 1633 354 1642 358 b 1664 378 1656 368 1660 374 l 1667 381 b 1668 382 1667 382 1667 382 l 1668 383 l 1676 376 l 1675 375 b 1674 372 1675 374 1674 374 b 1668 365 1672 369 1671 368 b 1643 339 1663 357 1654 349 b 1603 313 1632 329 1618 319 b 1547 300 1586 304 1568 300 b 1456 328 1521 300 1490 310 l 1454 328 l 1454 329 b 1451 331 1453 329 1453 329 b 1444 335 1450 332 1447 333 b 1418 351 1438 339 1428 344 b 1385 367 1407 357 1396 363 b 1354 374 1372 371 1363 374 b 1321 360 1340 374 1329 369 b 1301 326 1311 350 1306 339 b 1300 319 1301 325 1301 322 b 1299 313 1300 317 1300 314 l 1299 -265 l 1500 -265 b 1656 -206 1560 -265 1613 -246 b 1732 -54 1699 -165 1725 -115 l 1744 -56 l 1722 -278 l 1114 -278 l 1114 -265 b 1156 -247 1131 -265 1144 -260 b 1172 -207 1167 -236 1172 -222 l 1172 40 "},"Š":{"ha":756,"x_min":0,"x_max":0,"o":"m 615 292 b 756 47 718 214 756 129 b 725 -90 756 0 743 -46 b 376 -292 681 -196 543 -292 b 51 -29 136 -292 51 -143 b 57 18 51 -12 54 3 b 238 175 85 135 190 157 b 272 208 263 185 272 196 b 232 260 272 233 232 260 l 246 275 b 303 190 269 260 303 232 b 300 171 303 185 301 178 b 171 -12 283 110 194 96 b 165 -60 168 -28 165 -44 b 389 -278 165 -167 242 -278 b 647 -17 547 -278 647 -144 b 567 150 647 46 622 108 b 528 178 554 160 542 169 l 199 432 b 57 653 99 507 57 583 b 347 872 57 771 179 864 b 368 874 354 874 361 874 l 642 874 l 667 651 l 653 650 b 383 861 639 769 518 861 l 365 861 b 174 707 244 860 174 789 b 243 569 174 661 196 613 b 615 292 249 564 615 292 m 194 1296 l 204 1304 l 404 1125 l 606 1304 l 614 1296 l 404 1068 "},"š":{"ha":757,"x_min":0,"x_max":0,"o":"m 617 290 b 757 47 719 213 757 129 b 726 -90 757 0 744 -46 b 376 -292 682 -197 544 -292 b 53 -29 136 -292 53 -143 b 58 18 53 -12 56 3 b 238 174 86 135 192 157 b 272 208 264 183 272 196 b 232 260 272 233 232 260 l 247 275 b 303 192 269 260 303 232 b 300 171 303 185 301 178 b 171 -14 285 110 196 94 b 165 -61 168 -29 165 -44 b 390 -279 165 -168 243 -279 b 649 -18 549 -279 649 -144 b 568 150 649 46 624 108 b 529 178 556 160 543 169 l 199 432 b 58 653 100 506 58 583 b 349 872 58 771 181 864 b 369 874 356 874 363 874 l 643 874 l 668 651 l 653 650 b 385 861 640 769 518 861 l 367 861 b 175 706 246 860 175 788 b 243 569 175 660 197 611 b 617 290 250 563 617 290 m 196 1296 l 206 1304 l 406 1125 l 607 1304 l 615 1296 l 406 1068 "},"Ÿ":{"ha":763,"x_min":0,"x_max":0,"o":"m 763 874 l 763 861 b 717 832 749 860 733 849 b 649 729 688 803 665 767 l 515 414 b 471 199 486 346 471 272 l 471 -207 b 488 -249 471 -224 478 -237 b 529 -265 499 -258 514 -265 l 529 -278 l 286 -278 l 286 -265 b 344 -207 318 -265 344 -239 l 344 204 b 315 356 344 256 335 307 l 128 811 b 97 847 121 826 111 839 b 53 861 85 856 69 861 l 53 874 l 297 874 l 297 861 b 261 826 276 861 261 844 b 264 813 261 822 263 817 l 464 325 l 464 326 l 596 638 l 601 650 b 617 717 610 671 615 693 l 617 728 b 558 861 617 833 558 861 l 558 874 m 307 1250 b 369 1186 342 1250 369 1222 b 307 1124 369 1151 342 1124 b 244 1186 272 1124 244 1151 b 307 1250 244 1222 272 1250 m 508 1250 b 571 1186 543 1250 571 1222 b 508 1124 571 1151 543 1124 b 446 1186 474 1124 446 1151 b 508 1250 446 1222 474 1250 "},"ž":{"ha":663,"x_min":0,"x_max":0,"o":"m 417 -265 b 650 -54 538 -265 638 -175 l 663 -56 l 640 -278 l 53 -278 l 521 861 l 297 861 b 65 650 178 861 76 769 l 53 651 l 75 874 l 663 874 l 194 -265 m 147 1296 l 157 1304 l 357 1125 l 558 1304 l 567 1296 l 357 1068 "},"‰":{"ha":1050,"x_min":0,"x_max":0,"o":"m 611 874 l 168 -278 l 154 -278 l 597 874 m 351 606 b 203 333 351 456 285 333 b 53 606 121 333 53 456 b 203 878 53 756 121 878 b 351 606 285 878 351 756 m 113 606 b 203 339 113 458 153 339 b 293 606 253 339 293 458 b 203 872 293 753 253 872 b 113 606 153 872 113 753 m 563 263 b 711 -10 644 263 711 140 b 563 -282 711 -160 644 -282 b 413 -10 479 -282 413 -160 b 563 263 413 140 479 263 m 563 -276 b 651 -10 611 -276 651 -157 b 563 257 651 138 611 257 b 472 -10 513 257 472 138 b 563 -276 472 -157 513 -276 m 901 263 b 1050 -10 983 263 1050 140 b 901 -282 1050 -160 983 -282 b 751 -10 818 -282 751 -160 b 901 263 751 140 818 263 m 901 -276 b 990 -10 950 -276 990 -157 b 901 257 990 138 950 257 b 811 -10 851 257 811 138 b 901 -276 811 -157 851 -276 "},"":{"ha":2374,"x_min":0,"x_max":0,"o":"m 1903 868 b 2374 297 2172 814 2374 579 b 1935 -265 2374 28 2188 -200 b 1842 -382 1911 -306 1881 -346 b 1733 -460 1808 -412 1772 -439 b 1414 -557 1592 -543 1414 -557 b 1354 -558 1393 -558 1374 -558 b 878 -131 951 -558 878 -312 b 903 57 878 -26 903 57 b 938 190 913 99 924 143 b 988 528 969 296 988 417 b 828 864 988 711 939 864 b 658 775 764 864 701 836 b 581 590 618 718 596 667 b 568 443 574 553 568 503 b 585 242 568 386 574 318 l 585 240 b 638 82 593 185 611 132 l 639 79 l 558 -40 l 124 793 l 124 347 b 283 -265 124 -107 189 -247 l 283 -278 l 53 -278 l 53 -265 b 111 -43 100 -246 111 -92 l 111 803 b 94 844 111 819 104 833 b 53 861 83 854 69 861 l 53 874 l 224 874 l 581 190 b 556 451 568 256 556 354 b 583 660 556 528 564 601 b 825 881 638 819 733 881 b 1099 386 1003 881 1099 642 b 1090 257 1099 343 1096 300 b 1025 -69 1071 110 1042 6 b 1010 -204 1014 -124 1010 -168 b 1017 -275 1010 -233 1013 -256 b 1060 -378 1025 -310 1038 -346 b 1386 -518 1121 -464 1231 -511 l 1421 -518 b 1833 -372 1590 -518 1729 -469 b 1918 -269 1868 -340 1896 -304 b 1785 -285 1875 -279 1831 -285 b 1194 297 1458 -285 1194 -24 b 1785 881 1194 619 1458 881 b 1853 876 1807 881 1831 879 b 1903 868 1869 875 1886 872 m 1935 -242 b 1965 -174 1947 -218 1957 -196 b 1976 -142 1969 -162 1974 -151 b 1978 -140 1976 -142 1976 -140 b 1981 -131 1978 -137 1979 -133 b 1982 -121 1981 -128 1982 -124 b 1989 -61 1988 -100 1989 -81 b 1958 63 1989 -14 1976 28 b 1910 135 1943 92 1925 115 b 1908 136 1910 135 1908 135 b 1864 181 1896 151 1881 165 l 1861 183 b 1649 375 1799 239 1722 296 b 1554 596 1576 454 1554 532 b 1596 742 1554 682 1596 742 b 1656 817 1611 772 1633 797 b 1753 864 1688 842 1722 856 l 1768 867 b 1321 297 1519 857 1321 606 b 1775 -272 1321 -12 1524 -265 l 1776 -272 b 1860 -264 1814 -272 1860 -264 b 1935 -242 1886 -260 1910 -251 m 1953 -233 b 2247 297 2125 -150 2247 56 b 1899 850 2247 564 2100 788 b 1824 861 1875 857 1850 861 b 1756 851 1801 861 1778 858 b 1660 794 1739 846 1682 822 b 1606 663 1618 746 1606 700 b 1626 581 1606 621 1621 590 b 1661 526 1635 561 1647 544 b 1708 475 1675 508 1692 492 b 1819 378 1743 443 1781 411 b 1929 268 1857 344 1896 308 b 2015 115 1963 226 2004 168 b 2019 51 2018 94 2019 72 b 2003 -93 2019 -1 2011 -53 b 1994 -128 2000 -103 1997 -115 b 1953 -233 1990 -140 1969 -203 "},"":{"ha":1957,"x_min":0,"x_max":0,"o":"m 1486 868 b 1957 297 1754 814 1957 579 b 1603 -236 1957 60 1811 -146 b 1576 -246 1594 -240 1586 -243 b 1011 -615 1531 -374 1390 -615 b 836 -600 958 -615 900 -611 b 547 -281 586 -558 547 -383 b 549 -250 547 -269 549 -260 b 586 -44 554 -179 575 -101 b 588 -43 586 -44 588 -44 b 596 19 592 -21 594 0 b 396 269 596 269 396 269 b 279 321 393 269 279 269 b 381 369 279 363 344 369 b 500 404 422 369 464 381 b 614 631 547 435 614 518 b 483 861 614 815 550 861 b 319 761 415 861 353 817 b 267 650 301 731 283 699 b 238 463 247 589 238 525 l 238 -206 b 256 -247 238 -222 244 -237 b 296 -265 265 -258 281 -265 l 296 -278 l 53 -278 l 53 -265 b 111 -206 85 -265 111 -239 l 111 803 b 53 861 111 835 85 861 l 53 874 l 238 874 l 238 603 b 483 874 263 711 328 874 b 733 615 715 874 733 661 b 383 356 733 560 697 356 l 382 356 b 332 324 376 356 333 354 b 382 281 332 294 357 281 l 394 281 b 722 22 458 281 722 271 b 668 -304 722 -107 668 -194 b 679 -387 668 -331 672 -358 b 1000 -601 717 -531 868 -597 l 1022 -601 b 1536 -261 1324 -601 1471 -433 b 1367 -285 1482 -276 1425 -285 b 778 297 1042 -285 778 -24 b 1367 881 778 619 1042 881 b 1436 876 1390 881 1414 879 b 1486 868 1453 875 1469 872 m 1561 -156 b 1565 -89 1564 -133 1565 -111 b 1558 1 1565 -58 1563 -29 b 1553 26 1557 10 1554 18 b 1232 375 1519 158 1368 228 b 1138 596 1158 454 1138 532 b 1178 742 1138 682 1178 742 b 1239 817 1194 772 1215 797 b 1335 864 1271 842 1304 856 l 1351 867 b 904 297 1103 857 904 606 b 1360 -272 904 -14 1107 -267 l 1361 -272 b 1443 -264 1410 -272 1443 -264 b 1546 -228 1479 -257 1514 -244 b 1561 -156 1553 -204 1558 -181 m 1615 -183 b 1831 297 1744 -83 1831 94 b 1482 850 1831 564 1682 788 b 1407 861 1458 857 1432 861 b 1339 851 1383 861 1361 858 b 1242 794 1322 846 1265 822 b 1189 663 1200 746 1189 700 b 1208 581 1189 621 1204 590 b 1243 526 1218 561 1229 543 b 1290 475 1258 508 1274 492 b 1401 378 1325 443 1364 411 b 1513 268 1440 344 1479 308 b 1608 14 1599 157 1608 54 l 1608 -22 b 1594 -185 1608 -69 1606 -126 b 1592 -201 1594 -186 1593 -192 b 1615 -183 1599 -196 1607 -190 "},"":{"ha":1715,"x_min":0,"x_max":0,"o":"m 1579 292 b 1719 47 1682 214 1719 131 b 1689 -90 1719 0 1708 -46 b 1340 -290 1646 -196 1508 -290 b 1017 -29 1100 -290 1017 -143 b 1022 18 1017 -12 1019 3 b 1201 175 1049 135 1156 158 b 1236 208 1226 185 1236 196 b 1196 260 1236 233 1196 260 b 1068 306 1196 260 1142 306 l 1065 306 b 913 236 1008 304 956 279 b 797 181 872 194 832 181 l 792 181 b 707 208 792 181 749 181 b 635 343 674 229 635 276 b 754 560 635 401 664 475 b 838 713 817 618 838 669 b 818 782 838 739 829 763 b 688 865 792 829 742 858 b 642 868 672 867 657 868 b 179 299 386 868 179 613 b 642 -267 179 -17 385 -260 l 650 -267 b 885 -181 733 -267 821 -226 l 892 -190 b 642 -285 824 -242 731 -285 b 53 299 317 -285 53 -24 b 642 881 53 619 317 881 b 722 875 669 881 696 879 b 826 840 760 869 794 858 b 896 775 851 825 878 804 b 922 678 913 747 922 714 b 919 646 922 667 921 657 b 668 372 901 529 700 464 b 661 329 663 357 661 343 b 717 219 661 263 717 219 b 772 196 717 219 740 201 b 794 193 779 194 786 193 l 796 193 b 904 246 828 193 865 206 b 1072 319 950 293 1010 319 l 1074 319 b 1119 314 1089 319 1104 318 b 1210 276 1119 314 1164 306 b 1267 190 1233 261 1267 232 b 1264 171 1267 185 1265 178 b 1135 -12 1249 110 1158 96 b 1129 -60 1132 -28 1129 -43 b 1353 -278 1129 -167 1207 -278 b 1611 -17 1511 -278 1611 -143 b 1531 150 1611 47 1586 108 b 1493 178 1518 160 1506 169 l 1163 432 b 1021 654 1063 507 1021 585 b 1311 874 1021 772 1143 865 l 1606 874 l 1631 651 l 1617 650 b 1347 861 1604 771 1482 861 l 1329 861 b 1139 707 1210 860 1139 789 b 1207 569 1139 661 1161 613 b 1579 292 1214 564 1579 292 "},"":{"ha":1822,"x_min":0,"x_max":0,"o":"m 1232 881 b 1822 297 1558 881 1822 619 b 1232 -285 1822 -24 1558 -285 b 950 -214 1129 -285 1033 -260 b 938 -207 946 -211 942 -210 b 643 -285 850 -257 750 -285 b 53 297 317 -285 53 -24 b 643 881 53 619 317 881 b 938 801 750 881 850 851 b 979 775 951 794 965 785 b 1232 297 1132 669 1232 496 b 979 -181 1232 100 1132 -75 b 990 -189 983 -183 986 -186 b 1232 -272 1060 -242 1143 -272 b 1696 297 1488 -272 1696 -17 b 1232 867 1696 613 1488 867 b 990 783 1143 867 1060 836 b 950 810 976 793 964 801 b 1232 881 1033 854 1129 881 m 643 -272 b 894 -181 736 -272 822 -239 b 883 -172 892 -178 888 -175 b 643 297 738 -67 643 104 b 883 768 643 490 738 661 b 894 775 888 771 892 772 b 643 867 822 833 736 867 b 179 297 386 867 179 613 b 643 -272 179 -17 386 -272 m 938 -142 b 1106 297 1040 -37 1106 121 b 938 738 1106 475 1040 632 b 929 728 935 733 932 731 b 769 297 831 624 769 469 b 929 -133 769 125 831 -28 "},"":{"ha":1708,"x_min":0,"x_max":0,"o":"m 1431 -268 b 1665 -181 1515 -268 1601 -228 l 1674 -192 b 1422 -285 1604 -243 1511 -285 b 1043 -147 1278 -285 1144 -233 b 1033 -139 1039 -144 1036 -142 b 979 -181 1015 -154 999 -168 b 938 -207 965 -190 951 -199 b 643 -285 850 -257 750 -285 b 53 297 317 -285 53 -24 b 643 881 53 619 317 881 b 938 801 750 881 850 851 b 979 775 951 794 965 785 b 1033 735 999 763 1015 749 b 1083 685 1050 719 1067 703 b 1232 297 1176 582 1232 446 b 1085 -87 1232 150 1176 15 b 1093 -97 1088 -92 1090 -94 b 1422 -268 1176 -200 1293 -264 m 938 -142 b 982 -90 953 -126 968 -108 b 974 -81 979 -86 976 -83 b 833 297 886 22 833 153 b 974 675 833 442 886 574 b 982 685 976 678 979 682 b 938 738 968 703 953 721 b 894 775 924 751 910 764 b 643 867 822 833 736 867 b 179 297 386 867 179 613 b 643 -272 179 -17 386 -272 b 894 -181 736 -272 822 -239 b 938 -142 910 -168 924 -156 m 1033 -8 b 1106 297 1079 81 1106 185 b 1032 606 1106 411 1079 517 b 1025 590 1031 600 1028 596 b 960 297 983 506 960 404 b 1026 6 960 189 983 90 b 1033 -8 1029 1 1031 -4 m 1608 839 b 1676 775 1632 825 1658 804 b 1703 681 1693 747 1703 717 b 1700 644 1703 668 1701 657 b 1449 371 1683 529 1482 463 b 1442 328 1443 356 1442 342 b 1497 219 1442 261 1497 219 l 1489 207 b 1415 343 1456 229 1415 276 b 1535 560 1415 403 1446 475 b 1618 714 1597 618 1618 671 b 1600 781 1618 739 1611 761 b 1468 865 1572 829 1522 858 b 1422 867 1454 867 1439 867 b 1090 694 1293 867 1175 801 b 1042 743 1075 711 1060 728 b 1422 881 1144 828 1278 881 b 1503 875 1450 881 1476 878 b 1608 839 1540 869 1576 858 "},"":{"ha":1871,"x_min":0,"x_max":0,"o":"m 1281 881 b 1871 299 1607 881 1871 619 b 1281 -285 1871 -24 1607 -285 b 692 299 956 -285 692 -24 b 732 510 692 372 706 444 l 736 522 b 501 767 631 626 550 732 b 242 861 501 767 401 861 b 143 850 211 861 178 858 b 67 782 143 850 67 829 b 174 711 67 742 113 711 b 197 713 182 711 189 711 b 326 732 229 715 279 729 b 347 733 333 732 340 733 b 453 643 404 733 453 715 l 453 -207 b 469 -247 453 -222 458 -237 b 511 -265 481 -258 494 -265 l 511 -278 l 267 -278 l 267 -265 b 326 -207 300 -265 326 -239 l 326 674 b 275 711 326 674 325 711 b 243 707 267 711 256 710 b 178 700 222 703 200 700 b 53 781 114 700 53 722 b 228 878 53 861 197 874 b 339 886 268 883 306 886 b 796 628 563 886 654 764 b 825 600 806 619 815 610 b 869 560 840 586 854 574 b 1314 335 1031 421 1189 335 b 1442 375 1361 335 1406 349 b 1482 432 1464 392 1474 415 b 1508 543 1500 467 1508 506 b 1465 672 1508 592 1493 639 b 1288 761 1404 744 1336 761 b 1225 751 1251 761 1226 751 l 1219 763 b 1286 774 1236 768 1260 774 b 1475 679 1342 774 1414 751 b 1519 543 1506 644 1519 594 b 1493 426 1519 503 1511 463 b 1214 279 1464 369 1392 279 l 1182 279 b 832 436 1050 288 932 354 b 829 422 831 431 829 426 b 818 299 822 382 818 340 b 1281 -272 818 -17 1025 -272 b 1744 299 1538 -272 1744 -17 b 1281 868 1744 613 1538 868 b 875 572 1106 868 954 749 l 833 610 b 803 639 824 619 813 629 b 1281 881 910 785 1085 881 "},"":{"ha":2044,"x_min":0,"x_max":0,"o":"m 1904 292 b 2044 47 2007 214 2044 129 b 2014 -90 2044 0 2032 -46 b 1669 -292 1971 -194 1835 -292 l 1665 -292 b 1447 -240 1569 -290 1510 -281 b 1269 -61 1344 -172 1269 -61 b 1176 56 1251 -36 1218 6 b 1171 43 1175 51 1174 47 b 643 -281 1075 -150 874 -281 b 53 301 317 -281 53 -21 b 643 883 53 624 317 883 b 1232 301 968 883 1232 624 b 1226 218 1232 272 1231 244 b 1104 340 1188 260 1147 301 b 643 871 1089 638 888 871 b 179 301 386 871 179 617 b 643 -268 179 -14 386 -268 b 1086 138 853 -268 1029 -97 b 1090 153 1088 143 1089 147 b 607 439 960 290 782 436 l 606 439 b 340 176 586 439 340 433 l 340 172 b 490 -61 353 68 407 -14 b 632 -99 535 -86 586 -99 b 704 -85 660 -99 685 -94 l 710 -96 b 631 -111 688 -107 660 -111 b 485 -72 583 -111 531 -99 b 328 171 397 -24 342 63 b 325 214 326 186 325 200 b 382 396 325 281 344 342 b 661 533 444 483 547 533 l 683 533 b 1106 322 838 524 982 435 b 1224 201 1147 283 1188 243 b 1351 38 1272 146 1315 89 b 1489 -146 1413 -47 1461 -114 b 1671 -278 1519 -182 1590 -278 l 1678 -278 b 1936 -14 1836 -268 1936 -137 b 1856 150 1936 47 1911 108 b 1818 178 1843 160 1831 169 l 1488 432 b 1346 653 1388 507 1346 583 b 1636 874 1346 771 1468 864 l 1931 874 l 1956 651 l 1942 650 b 1672 861 1928 769 1807 861 l 1654 861 b 1463 707 1533 860 1463 789 b 1532 569 1463 661 1485 613 b 1904 292 1539 564 1904 292 "},"":{"ha":1519,"x_min":0,"x_max":0,"o":"m 1414 -258 b 1422 -260 1417 -258 1419 -260 b 1508 -175 1472 -260 1508 -175 l 1519 -181 b 1406 -281 1499 -246 1457 -278 l 1393 -281 b 1293 -192 1314 -281 1293 -236 b 1311 -114 1293 -158 1306 -125 l 1311 -112 b 1344 19 1326 -81 1344 -28 b 1144 269 1344 269 1144 269 l 1143 269 b 1028 321 1133 269 1028 271 b 1129 369 1028 363 1093 369 b 1249 403 1171 369 1213 381 b 1363 629 1296 435 1363 518 b 1232 861 1363 815 1299 861 b 1068 761 1164 861 1101 817 b 1015 650 1049 731 1032 697 b 986 461 996 589 986 525 l 986 -207 b 1003 -247 986 -222 993 -237 b 1044 -265 1014 -258 1029 -265 l 1044 -278 l 801 -278 l 801 -265 b 860 -207 833 -265 860 -239 l 860 258 b 724 58 824 193 778 124 b 636 -53 693 17 664 -21 b 533 -156 600 -93 565 -128 b 271 -281 394 -274 293 -281 l 265 -281 b 76 -133 168 -281 89 -215 b 72 -76 74 -117 72 -97 l 72 -53 b 97 96 74 -11 82 38 l 97 97 l 258 700 b 269 786 265 729 269 757 b 257 874 269 815 265 846 l 389 874 l 625 -12 l 628 -24 b 860 285 729 69 806 182 l 860 803 b 801 861 860 835 833 861 l 801 874 l 986 874 l 986 603 b 1232 874 1011 711 1076 874 b 1482 615 1464 874 1482 661 b 1132 356 1482 560 1446 356 l 1131 356 b 1081 324 1125 356 1081 354 b 1131 281 1081 294 1106 281 l 1143 281 b 1471 22 1207 281 1471 271 b 1411 -157 1471 -71 1411 -156 b 1393 -219 1400 -174 1393 -199 b 1414 -258 1393 -239 1399 -256 m 486 -129 b 519 -108 497 -122 510 -115 l 518 -100 l 413 293 l 288 764 l 118 126 b 110 40 118 126 110 89 b 283 -189 110 -47 136 -171 b 308 -192 293 -190 301 -192 b 333 -189 310 -192 318 -192 b 340 -187 336 -189 338 -189 b 429 -158 361 -185 390 -176 b 471 -137 436 -154 464 -142 m 679 -211 b 747 -265 688 -243 715 -265 l 747 -278 l 504 -278 l 504 -265 b 549 -221 529 -265 549 -244 b 547 -210 549 -217 549 -214 l 536 -168 b 640 -67 569 -142 604 -108 "},"":{"ha":1481,"x_min":0,"x_max":0,"o":"m 1231 874 b 1481 615 1464 874 1481 661 b 1167 357 1481 561 1451 372 b 1096 349 1143 356 1119 353 b 1025 336 1074 346 1047 342 b 985 326 1013 333 1000 331 l 985 -207 b 1003 -247 985 -222 992 -237 b 1044 -265 1013 -258 1028 -265 l 1044 -278 l 800 -278 l 800 -265 b 858 -207 833 -265 858 -239 l 858 286 b 592 110 765 258 699 246 l 678 -211 b 747 -265 686 -243 714 -265 l 747 -278 l 503 -278 l 503 -265 b 547 -222 528 -265 547 -244 b 546 -210 547 -218 547 -214 l 506 -54 b 264 -281 469 -161 400 -281 b 75 -133 168 -281 89 -215 b 71 -53 72 -111 71 -85 b 96 96 74 -12 81 38 l 96 97 l 257 700 b 268 786 264 729 268 757 b 257 874 268 815 264 846 l 388 874 l 588 124 b 858 299 692 258 765 272 l 858 803 b 800 861 858 835 833 861 l 800 874 l 985 874 l 985 603 b 1231 874 1011 711 1075 874 m 449 -125 b 490 -21 476 -96 490 -58 b 486 17 490 -8 489 4 l 413 293 l 288 764 l 118 126 b 110 40 118 126 110 89 b 283 -190 110 -47 136 -171 b 306 -192 290 -192 297 -192 b 449 -125 369 -192 417 -158 m 1247 403 b 1361 629 1297 429 1361 518 b 1231 861 1361 815 1299 861 b 1067 761 1164 861 1100 817 b 1014 650 1049 731 1031 697 b 985 461 994 589 985 525 l 985 339 b 1129 369 1032 351 1121 368 b 1247 403 1167 375 1217 388 "},"":{"ha":2035,"x_min":0,"x_max":0,"o":"m 1563 868 b 2035 297 1832 814 2035 579 b 1517 -281 2035 0 1808 -246 b 1354 -403 1472 -321 1417 -365 b 993 -510 1283 -451 1138 -510 b 876 -496 954 -510 914 -506 b 621 -275 749 -461 642 -329 b 579 -83 590 -197 579 -140 b 626 190 579 -8 599 67 b 668 515 654 311 668 421 b 476 864 668 729 600 864 b 313 769 413 864 357 825 b 238 540 260 704 238 624 l 238 -207 b 254 -247 238 -222 244 -237 b 296 -265 265 -258 281 -265 l 296 -278 l 53 -278 l 53 -265 b 111 -207 85 -265 111 -239 l 111 803 b 94 844 111 819 104 833 b 53 861 83 854 69 861 l 53 874 l 238 874 l 238 668 b 474 881 272 757 343 881 b 804 426 646 881 804 688 b 783 257 804 372 799 315 b 717 -108 754 144 717 14 b 817 -381 717 -207 742 -301 b 1074 -481 879 -446 974 -481 b 1264 -439 1138 -481 1203 -467 b 1494 -282 1353 -397 1433 -336 b 1444 -285 1478 -283 1461 -285 b 856 297 1119 -285 856 -24 b 1444 881 856 619 1119 881 b 1514 876 1468 881 1490 879 b 1563 868 1531 875 1547 872 m 1438 -272 b 1565 -214 1438 -272 1511 -272 b 1618 -129 1586 -192 1606 -164 b 1628 -103 1622 -121 1625 -111 b 1638 -29 1635 -76 1638 -51 b 1310 375 1638 142 1463 208 b 1215 596 1236 456 1215 532 b 1256 742 1215 682 1256 742 b 1317 815 1272 772 1293 797 b 1413 864 1347 842 1382 856 l 1429 867 b 982 297 1181 857 982 606 b 1438 -272 982 -14 1185 -267 m 1538 -261 b 1908 297 1749 -207 1908 22 b 1560 850 1908 564 1760 788 b 1485 861 1535 857 1510 861 b 1417 851 1461 861 1439 858 b 1319 794 1400 846 1343 822 b 1267 664 1278 746 1267 700 b 1286 581 1267 621 1282 590 b 1321 526 1294 561 1307 543 b 1368 475 1335 508 1351 492 b 1479 378 1403 443 1442 411 b 1589 268 1518 344 1556 308 b 1676 115 1622 226 1665 167 b 1688 18 1683 79 1688 47 b 1576 -225 1688 -139 1596 -207 b 1560 -239 1569 -231 1565 -235 "},"":{"ha":1497,"x_min":0,"x_max":0,"o":"m 1357 303 b 1497 58 1460 225 1497 142 b 1467 -79 1497 13 1485 -35 b 1117 -279 1422 -185 1285 -279 b 793 -17 876 -279 793 -132 b 799 31 793 0 796 15 b 978 186 826 147 932 169 b 1013 219 1004 196 1013 207 b 972 271 1013 244 972 271 l 988 288 b 1043 203 1010 272 1043 244 b 1040 182 1043 196 1042 189 b 911 -1 1025 121 936 107 b 906 -49 908 -17 906 -32 b 1131 -267 906 -156 983 -267 b 1389 -6 1289 -267 1389 -132 b 1308 161 1389 58 1364 119 b 1269 189 1296 171 1283 181 l 939 443 b 799 664 840 518 799 596 b 1089 885 799 783 921 876 l 1383 885 l 1408 663 l 1393 663 b 1125 872 1381 782 1258 872 l 1107 872 b 915 718 986 871 915 800 b 983 581 915 672 938 624 b 1357 303 990 575 1357 303 m 661 -257 b 675 -260 665 -258 671 -260 b 760 -175 722 -260 760 -175 l 769 -179 b 642 -281 744 -246 700 -281 b 551 -236 596 -281 561 -257 b 542 -193 544 -222 542 -208 b 563 -114 542 -162 554 -131 l 563 -112 b 596 19 578 -81 596 -28 b 396 269 596 269 396 269 b 317 281 396 269 351 271 b 315 282 317 281 317 282 b 238 389 282 294 242 322 l 238 -207 b 254 -247 238 -222 244 -237 b 296 -265 265 -258 281 -265 l 296 -278 l 53 -278 l 53 -265 b 111 -207 85 -265 111 -239 l 111 803 b 53 861 111 835 85 861 l 53 874 l 238 874 l 238 410 l 239 436 l 242 457 b 310 631 250 515 274 575 b 1392 1135 422 836 704 1135 l 1407 993 b 1238 1003 1407 993 1340 1003 b 589 850 1072 1003 813 978 b 506 796 560 833 532 815 b 263 422 506 796 285 635 b 261 406 263 417 263 411 l 261 404 b 288 324 261 388 265 351 b 361 285 301 307 325 292 l 363 285 b 394 281 372 282 383 281 b 722 22 458 281 722 269 b 663 -157 722 -71 664 -156 b 643 -221 650 -175 643 -200 b 661 -257 643 -237 647 -251 "},"":{"ha":1381,"x_min":0,"x_max":0,"o":"m 1311 -212 b 1381 -265 1319 -243 1347 -265 l 1381 -278 l 1136 -278 l 1136 -265 b 1181 -222 1161 -265 1181 -244 b 1179 -210 1181 -218 1181 -214 l 1138 -56 b 897 -281 1103 -162 1033 -281 b 708 -135 800 -281 722 -215 b 704 -71 706 -115 704 -94 l 704 -54 b 729 96 707 -12 714 38 l 729 97 l 810 401 b 694 411 768 406 733 411 l 669 411 b 365 244 493 411 365 314 l 365 242 b 625 -39 371 154 560 75 b 640 -97 636 -58 640 -78 b 576 -215 640 -142 615 -183 b 400 -278 533 -253 454 -278 l 53 -278 l 53 -265 b 94 -247 69 -265 83 -258 b 111 -206 106 -237 111 -222 l 111 803 b 53 861 111 835 85 861 l 53 874 l 296 874 l 296 861 b 254 844 281 861 265 854 b 238 804 244 833 238 819 l 238 -265 l 347 -265 b 576 -132 397 -265 576 -258 b 569 -103 576 -122 574 -112 b 319 194 532 -8 319 64 b 343 272 319 218 326 244 b 415 349 361 303 386 329 b 663 428 489 397 554 428 l 689 428 b 814 414 740 426 772 421 l 890 700 b 901 786 897 728 901 757 b 890 874 901 815 897 844 l 1021 874 m 826 411 b 1035 333 899 403 974 381 l 919 763 m 1081 -126 b 1124 -21 1110 -96 1124 -58 b 1119 17 1124 -8 1122 4 l 1044 293 l 1040 313 b 824 400 978 365 900 390 l 750 125 b 742 40 750 125 742 89 b 917 -190 742 -46 768 -171 b 940 -192 925 -192 933 -192 b 1081 -126 1003 -192 1049 -158 "},"":{"ha":640,"x_min":0,"x_max":0,"o":"m 625 -39 b 640 -97 636 -58 640 -78 b 576 -217 640 -142 615 -183 b 399 -278 533 -253 454 -278 l 53 -278 l 53 -265 b 94 -249 68 -265 83 -258 b 111 -207 104 -237 111 -222 l 111 803 b 53 861 111 835 85 861 l 53 874 l 296 874 l 296 861 b 254 843 279 861 265 854 b 238 804 244 833 238 819 l 238 -265 l 347 -265 b 575 -132 397 -265 575 -258 b 569 -104 575 -122 574 -112 b 319 194 532 -8 319 63 b 342 272 319 218 326 244 b 415 349 360 303 386 328 b 499 389 439 364 471 383 l 504 381 b 365 247 504 381 365 331 l 365 242 b 625 -39 371 154 560 74 "},"":{"ha":733,"x_min":0,"x_max":0,"o":"m 1238 -412 b 1001 -614 1206 -479 1121 -576 b 899 -631 969 -625 935 -631 b 769 -601 857 -631 814 -622 b 571 -219 607 -525 571 -360 b 593 -3 571 -125 588 -42 b 594 33 594 10 594 22 l 594 49 b 396 269 579 269 396 269 b 279 321 393 269 279 269 b 381 369 279 363 344 368 b 500 403 422 369 464 381 b 614 629 547 435 614 518 b 483 861 614 815 550 861 b 319 760 415 861 353 817 b 267 650 301 731 283 697 b 238 461 247 589 238 525 l 238 -207 b 256 -247 238 -222 244 -237 b 296 -265 265 -258 281 -265 l 296 -278 l 53 -278 l 53 -265 b 111 -207 85 -265 111 -239 l 111 803 b 53 861 111 835 85 861 l 53 874 l 238 874 l 238 603 b 483 874 263 711 328 874 b 733 615 715 874 733 660 b 383 356 733 560 699 356 l 382 356 b 332 324 376 356 333 354 b 382 281 332 294 357 281 l 408 281 b 724 50 489 281 724 265 b 722 22 724 40 724 32 b 690 -318 713 -86 690 -211 b 785 -553 690 -422 711 -510 b 935 -596 838 -583 889 -596 b 1003 -587 960 -596 982 -592 b 1226 -407 1149 -554 1226 -407 "},"":{"ha":719,"x_min":0,"x_max":0,"o":"m 1238 -412 b 1001 -614 1204 -479 1119 -576 b 899 -631 969 -625 935 -631 b 768 -601 857 -631 814 -622 b 569 -300 622 -532 578 -431 l 569 -283 b 593 51 569 -197 593 -3 l 593 61 b 396 268 568 268 396 268 b 317 281 394 268 351 269 b 315 282 317 281 315 281 b 238 389 282 293 240 322 l 238 -207 b 254 -249 238 -222 244 -237 b 296 -265 265 -258 279 -265 l 296 -278 l 53 -278 l 53 -265 b 111 -207 85 -265 111 -239 l 111 803 b 53 861 111 835 85 861 l 53 874 l 238 874 l 238 410 b 696 874 238 614 439 847 l 696 760 b 261 415 640 754 301 714 l 261 406 b 288 324 261 389 264 353 b 361 283 301 307 324 292 b 394 281 372 282 383 281 b 717 74 454 281 688 272 b 719 22 719 60 719 42 b 692 -271 719 -89 692 -267 b 685 -346 688 -297 685 -322 b 783 -553 685 -440 721 -506 b 926 -596 828 -585 879 -596 b 1001 -587 954 -596 979 -593 b 1226 -407 1149 -554 1226 -407 "},"":{"ha":847,"x_min":0,"x_max":0,"o":"m 1519 -18 b 1538 -142 1531 -50 1538 -93 b 1414 -515 1538 -256 1503 -401 b 1025 -692 1347 -599 1228 -692 b 942 -687 999 -692 971 -690 b 593 -504 779 -668 663 -607 b 533 -271 553 -443 533 -364 b 626 189 533 -143 568 13 b 683 514 665 308 683 418 b 475 864 683 725 599 864 b 311 768 413 864 356 825 b 238 540 260 704 238 622 l 238 -207 b 254 -249 238 -224 244 -237 b 296 -265 265 -258 279 -265 l 296 -278 l 53 -278 l 53 -265 b 111 -207 85 -265 111 -239 l 111 801 b 93 843 111 818 104 833 b 53 861 83 854 68 861 l 53 874 l 238 874 l 238 668 b 474 881 272 756 343 881 b 788 368 660 881 788 664 b 782 257 788 332 786 294 b 753 110 776 201 765 153 b 744 85 750 101 747 92 b 742 79 743 82 743 81 b 686 -204 726 25 696 -86 b 683 -281 683 -229 683 -256 b 831 -599 685 -406 724 -546 b 1046 -649 899 -632 972 -649 b 1510 -276 1251 -649 1454 -519 l 1510 -274 b 1517 -243 1513 -264 1514 -253 b 1525 -143 1522 -208 1525 -174 b 1507 -22 1525 -94 1518 -53 "},"":{"ha":1139,"x_min":0,"x_max":0,"o":"m 1831 -18 b 1849 -142 1842 -50 1849 -93 b 1725 -515 1849 -256 1814 -401 b 1336 -692 1658 -599 1539 -692 b 1253 -687 1310 -692 1282 -690 b 904 -503 1090 -668 974 -607 b 844 -271 864 -442 844 -364 b 938 189 844 -143 879 13 l 938 190 b 986 528 969 296 986 417 b 826 864 986 711 939 864 b 657 774 764 864 701 836 b 581 590 618 718 596 667 b 568 446 574 553 568 504 b 585 240 568 388 574 319 l 585 239 b 636 82 593 185 611 131 l 638 79 l 558 -40 l 124 793 l 124 346 b 283 -265 124 -107 188 -247 l 283 -278 l 53 -278 l 53 -265 b 111 -44 99 -246 111 -92 l 111 803 b 93 844 111 819 104 833 b 53 861 83 854 68 861 l 53 874 l 224 874 l 579 190 b 556 453 568 256 556 356 b 582 658 556 526 563 601 b 825 881 636 818 733 881 b 1107 400 994 881 1107 622 b 1089 257 1107 350 1101 300 b 988 -304 1015 -4 988 -182 b 1142 -599 988 -521 1074 -565 b 1357 -649 1210 -632 1283 -649 b 1821 -276 1563 -649 1765 -519 l 1821 -274 b 1828 -243 1824 -264 1825 -253 b 1836 -143 1833 -208 1836 -174 b 1818 -22 1836 -94 1829 -53 "}}}
